<mxfile host="app.diagrams.net" modified="2021-09-13T01:55:49.639Z" agent="5.0 (Windows NT 10.0; Win64; x64) AppleWebKit/537.36 (KHTML, like Gecko) Chrome/93.0.4577.63 Safari/537.36" etag="WRGbeSgP7fMFEaQ3JFx3" version="15.2.1" type="github">
  <diagram id="VIK1O4jxbp8eMoTcW2aY" name="Page-2">
    <mxGraphModel dx="1102" dy="582" grid="1" gridSize="10" guides="1" tooltips="1" connect="1" arrows="1" fold="1" page="1" pageScale="1" pageWidth="827" pageHeight="1169" math="0" shadow="0">
      <root>
        <mxCell id="Gb36NZh8UBVs52BO06hP-0" />
        <mxCell id="Gb36NZh8UBVs52BO06hP-1" parent="Gb36NZh8UBVs52BO06hP-0" />
        <mxCell id="Gb36NZh8UBVs52BO06hP-3" value="" style="shape=image;verticalLabelPosition=bottom;labelBackgroundColor=#ffffff;verticalAlign=top;aspect=fixed;imageAspect=0;image=data:image/png,iVBORw0KGgoAAAANSUhEUgAABGQAAAJqCAYAAABtrpaPAAAgAElEQVR4Aey9i58U1Zn/v/8OXqLmprvuJpuYTTZjLt+EZLPZfH+a7H6THUBA8TpgBqOMxhsY2/swQ3MdaBkuAs7QOiMg0AL2MEJzUZEmIzoqwuAVuT6/1+fUpasPPTPd1dXdVXU+9Xr1q7urq06d5/2cOuf0p55zzj8INxIgARIgARIgARIgARIgARIgARIgARIggboS+Ie6Xo0XIwESIAESIAESIAESIAESIAESIAESIAESEAoyLAQkEGMCFy6I5D88Ka/ue1ee33pQntowIE+szzb0hTwgL8gT8oY8ciMBEiABEiABEiABEiABEiAB0whQkDHN47TXCAJHP/5UntwwINf/5XmZMKk91C/kEXlFnrmRAAmQAAmQAAmQAAmQAAmQgCkEKMiY4mnaaQSBL0+flXlrdsrXpna4Isy/3LlUfvfIepn6TJ/MWrRVZi/d3tAX8oC8IE/ImyMYIc/z1u4S2MCNBEiABEiABEiABEiABEiABOJOgIJM3D1M+4whsCf/kXxv5jIlcFw5dYHcuWCzrM3kZW/+pOSOhPOFvK3NHJY7OjcL8gxxBjbsPfKRMX6joSRAAiRAAiRAAiRAAiRAAmYSoCBjpt9pdcwIYD6Wr0+3BI0/PNYjm/a8H1oRZjRxCHlG3iHKwJat+4/GzEs0hwRIgARIgARIgARIgARIgAQKBCjIFFjwEwlEkgDEmMumWEOU/rpyV+SEGF2geeD5nUqUgU2wjRsJkAAJkAAJkAAJkAAJkAAJxJEABZk4epU2GUNg+MTncs1ti5SA8fSGNyIvxjjiDGxBpMw/3rZIYCM3EiABEiABEiABEiABEiABEogbAQoycfMo7TGGwLnzF+S/Hn5BCRctC1+NjRjjiDJ3Jbco22AjbOVGAiRAAiRAAiRAAiRAAiRAAnEiQEEmTt6kLUYRWLfjbSVY/OzeVfLG4ROxE2RgE2xDpMy6nYeM8i2NJQESIAESIAESIAESIAESiD8BCjLx9zEtjCGBc+fPy49np5RYkdp6KHZijBMlk3rVEp2a7kkxSiaG5ZgmkQAJkAAJkAAJkAAJkIDJBCjImOx92h5ZAr3Zw0qM+eX9q2MrxkCUwbLYv2hbrWyFzdxIgARIgARIgARIgARIgARIIC4EKMjExZO0wygCt3X0K5EiThP5OlEx+vtT660Jfm/v7DfKxzSWBEiABEiABEiABEiABEgg3gQoyMTbv7QuhgQwXOnqW62Vlbbv/yDWETIQZ7bt+0CJT1hNipP7xrBA0yQSIAESIAESIAESIAESMJQABRlDHU+zo0sg9/djSqD499ZUTcSYdFdGktmTVtrZnLR15SR9xP6uvafTGWlLD9UkH95IGdiKyX33DR2LruOYcxIgARIggVgQuGHuetUmoV3iiwxYBlgGWAZYBiopA0+szxa1hRRkinDwCwmEn8DLg0dUB/DGeS8GL4RkM9I0qVeSR4akLdErzQkIISlpxmclzAxJW+sYlW5rZlTxxiuwVPr5xrkblM19bxwJv4OYQxIgARIggVgTQMebGwmQAAmQAAn4IfCbB9cUnUZBpggHv5BA+Aks37JfiRPTnu0PXJBJJtqlqSsnza0pFfmCCJimVkTMDEnaiZo5MiTJdE692hIpaUpk3O+jRdJUKsDox097tk/ZvGLLgfA7iDkkARIgARKINQEKMrF2L40jARIggZoReHT1TrliWqfg3dkoyDgk+E4CESHwbM9uJU7MWvhq8IJMV680IQImkbk4EiaRs66nomjsqBkc24pIml5pmpSSNle0KT3ESRdayv0OW9EBhu3cSIAESIAESKCRBCjINJI+r00CJEAC0SWA9sN5OVZQkHFI8J0EIkKglhEyuXSvElhURIwdBeNEwxTmlcGwpvoKMoyQiUjhZDZJgARIwAACFGQMcDJNJAESIIGACTyyaodcMbVTCTJXTO2QuWusKBkKMgGDZnIkUGsCmEcFnUHMq1JuhEm5xyUxBKk1Jc1dGWlubZcmO/pFfe5yJu+1hixhuJKj8DrDlmo1ZOmGR605ZPo5h0ytixfTJwESIAESGIcABZlxAPFnEiABEiCBIgIXLohcMrkQHYN2BN+xUZApQsUvJBB+AvuHPlZCyL/9eUXggky6yx5+1AphxppPBhEyaq4YR5DByksQY1p7pa0rpeacwUS/SpSp0ZClH9y9Qtl84N2Pw+8g5pAESIAESCDWBCjIxNq9NI4ESIAEAidw/sIFwSiHeWt2yiWT56v3Fa/uFwg1FGQCx80ESaC2BM6dvyDX3r5YCRSb9w4HKsoku3qlDUOVILqMEiED0QYT/yIaJq0EGUTODImKrnFEG2157HIjdEodt2nP+8rWa+9YIqjMuJEACZAACZBAIwlQkGkkfV6bBEiABKJNQG9DKMhE25/MvaEEZi7arESKuauzgQoypQSRRu+Djai4Zi3ebKi3aTYJkAAJkECYCOid6TDljXkhARIgARIINwG9DaEgE25/MXckUJLAtv1HlUhx3czlsufwidiKMrDt+7OWK1u3HzhakgV3kgAJkAAJkEA9Ceid6Xpem9ciARIgARKINgG9DaEgE21/MveGEsDInRvnrVdCRWLdYGwFGdiGSuv389arMZaGuptmkwAJkAAJhIiA3pkOUdaYFRIgARIggZAT0NsQCjIhdxizRwKjEdiT/0iJFd+asVD6Bt+LnSjTt/uowDZUWrCVGwmQAAmQAAmEgYDemQ5DnpgHEiABEiCBaBDQ2xAKMtHwG3NJAiUJ/O2F15Vg8cM/r5Cdb30cG1EGtsAmVFiPr3u9pO3cSQIkQAIkQAKNIKB3phuRB16TBEiABEggmgT0NoSCTDT9yFyTgCKAVYemPJ12RZk4RMogMsYRY256Js2VlVjWSYAESIAEQkVA70yHKnPMDAmQAAmQQKgJ6G0IBZlQu4uZI4HxCXzx1RlXlMEQH8y7EsWJfpFn5N0ZpgShCbZxIwESIAESIIEwEdA702HKG/NCAiRAAiQQbgJ6G0JBJtz+Yu5IoCwCiJTB0B7c4HhhZSIsF71pz/uhH8b0yp735dHVr7urKSH/sAU2cSMBEiABEiCBsBHQO9Nhyx/zQwIkQAIkEF4CehtCQSa8vmLOSKBiApj81ll9CTc7Xj+4e4Xc8OgGmfZsn9y9eJvMXrq9oS/kAXlBnpA3J594R945gW/FbucJJEACJEACdSSA9oobCZAACZAACfghoLchFGT8UOQ5JBBiAggs2X7gqMxavFmuvX1xkeDhFT/C8vnaO5aovCLPDIoJccFi1kiABEiABBQBvTNNLCRAAiRAAiRQLgG9DaEgUy45HkcCESRw7vwF2T/0sfS/cURWbDkgT20YkCfWZxv6Qh6QF+TpwLsfc2hSBMsVs0wCJEACJhPQO9Mms6DtJEACJEAClRHQ2xAKMpXx49EkQAIkQAIkQAIkQAIGE9A70wajoOkkQAIkQAIVEtDbEAoyFQLk4SRAAiRAAiRAAiRAAuYS0DvT5pKg5SRAAiRAApUS0NsQCjKVEuTxJEACJEACJEACJEACxhLQO9PGgqDhJEACJEACFRPQ2xAKMhUj5AkkQAIkQAIkQAIkQAKmEtA706ZyoN0kQAIkQAKVE9DbEAoylTPkGSRAAiRAAiRAAiRAAoYS0DvThmKg2SRAAiRAAj4I6G0IBRkfEHkKCZAACZAACZAACZCAmQT0zrSZFGg1CZAACZCAHwJ6G0JBxg9FnkMCBhP4zYNrDLaeppMACZAACZhOQO9Mm86D9pMACZAACZRPQG9DKMiUz45HkoDxBB5dvVOumNYpeOdGAiRAAiRAAiYS0DvTJjKgzSRAAiRAAv4I6G0IBRl/HHkWCRhJABWI8zISAI0mARIgARIwnoDemTYeCAGQAAmQAAmUTUBvQyjIlI2OB5KA2QQeWbVDrpjaqQSZK6Z2yNw1jJIxu0TQehIgARIwk4DemTaTAq0mARIgARLwQ0BvQyjI+KHIc0jAMAIXLohcMrkQHYOKBN+5kQAJkAAJkIBpBPTOtGn2014SIAESIAH/BPQ2pGGCzInPTsmzPbvlifVZo17P9OwW2M6NBKJE4PyFC7J8y36Zt2anXDJ5vnpf8ep+gVDDjQRIgARIgARMIqB3pk2ynbaSAAmQAAlUR0BvQxomyMxctNmdiwKZMukFIYobCUSVgF6JRNUO5psESIAESIAE/BBgO+iHGs8hARIgARIAAb0NaYggM/TRJ3LZlPkqM396Ii2zl26P/Qt2OqLTG/kPWRpJILIE9EoksoYw4yRAAiRAAiTggwDbQR/QeAoJkAAJkIAioLchDRFknOiYyU+9JLkjJ414wVbAh+3cSCDKBPRKJMq2MO8kQAIkQAIkUCkBtoOVEuPxJEACJEACDgG9Dam7IONExyBCpm/3USPEGNgJe/GC/dxIIMoE9EokyrYw7yRAAiRAAiRQKQG2g5US4/EkQAIkQAIOAb0Nqbsgw+gYxxV8J4FoEtArkWhawVyTAAmQAAmQgD8CbAf9ceNZJEACJEACDZ5DhtExjI7hTRh9AuyIRt+HtIAESIAESMA/AbaD/tnxTBIgARIwnYDehtQ1QobRMaYXP9ofBwJ6JRIHm2gDCZAACZAACZRLgO1guaR4HAmQAAmQgE5Ab0PqJsgwOobRMXph5PdoEtArkWhawVyTAAmQAAmQgD8CbAf9ceNZJEACJEACDRyyxOgYFj8SiAcBdkTj4UdaQQIkQAIk4I8A20F/3HgWCZAACZBAgwQZRscwOoY3X3wIsCMaH1/SEhIgARIggcoJsB2snBnPIAESIAESsAjobUhdhiw50TG4+ITWjKSPnFTLXae7UoJ9TV1DtV3+Ot2rrqOur/LQK0k7Dzntt9J5yUkzzpvkOc85f5T3yU+9pK4J27mRQJwI6JVInGyjLSRAAiRAAiQwHgG2g+MR4u8kQAIkQAKjEdDbkJoLMm50zOR2mTBruTRNSklbFoLMkLS1pqSp1SPIZIckmc5JMusRaLI5SaaHJO28ewUQZ5/9nsNvpdJQoostpmRz0tbqEYY8vymByCMYqfSQJo6x89qctsQk9zdvfuzPfbuPymVT5qsX7OdGAnEioFcicbKNtpAACZAACZDAeATYDo5HiL+TAAmQAAmMRkBvQ2ouyDjRMZMfWKaiY9oStgCTzUhTa680O4KMEkZS0pzoVSLNhETOE0WTkibs90bT6MdDSNH32WlYUTCe6BZ1nP3dPkel35qSUoJL0s6zEmycNEsIMY5Iw+iY0Yof98eBgF6JxMEm2kACJEACJEAC5RJgO1guKR5HAiRAAiSgE9DbkJoKMm50zJT50rdqvTVcCQJIa0YsYcaKVsEwIYgejgjjFVC8USteQcR7vHPM3FHS8KanRJMSgkxbOidtCQyh8gg3SnSxhis1d+UkqYZY6b8XR8wwOkYvcvweNwJ6JRI3+2gPCZAACZAACYxFgO3gWHT4GwmQAAmQwFgE9DakpoKMGx3z1Ev2sB/MH+PMx4KhSxi2ZEXMlBJYMNeMI7a4n+0IFe/x6nNrRryCjPe8IkEma1/fiXQpJc6oIVW20GJH0CByR0XvTGovGUXD6Jixih1/ixMBvRKJk220hQRIgARIgATGI8B2cDxC/J0ESIAESGA0AnobUjNBpig6ZvdRjyBz0oqGUXO1FASZHIQazO2iJs8tDB3yCivqsyOkYMiTfWxTa8qeLLh0GpYg46TdLk2JnDuxcKnfHHHFmufGE7lzxJv34sgYnMPomNGKHffHiYBeicTJNtpCAiRAAiRAAuMRYDs4HiH+TgIkQAIkMBoBvQ2pmSBTFB0zxnwrBfHjYoGjvN+04U41vdbYeeTcMaMVO+6PEwG9EomTbbSFBEiABEiABMYjwHZwPEL8nQRIgARIYDQCehtSE0HmouiYWogkaiiRHfXSOva8LuUJO2OLLeOlweiY0Yoc98eNgF6JxM0+2kMCJEACJEACYxFgOzgWHf5GAiRAAiQwFgG9DamJIFO/6JjqRJTxRJZKfneiYwA4TK8b5q4fqzzwNxKomIBeiVScAE8gARIgARIggQgTYDsYYecx6yRAAiTQYAJ6GxK4IFOX6JhaRNxUkWaYo2N0hze4/PHyMSDAMhUDJ9IEEiABEiAB3wTYDvpGxxNJgARIwHgCehsSuCBjcnQMbA/bpjs8bPljfqJH4NaO/uhlmjkmARIgARIggYAIsG8VEEgmQwIkQAIGEtDbkEAFmYZHx2BJ6wSW1q7fUKYwR8egfOsON7DM02QSIAESIAESIAESCIwA+1aBoWRCJEACJGAcAb0NCVSQaUh0jHdyX33+FrW0dm3FGWfumDBGx6B06w43rsTTYBIgARIgARIgARIIkAD7VgHCZFIkQAIkYBgBvQ0JTJBpWHQMBBmsspTOSVuiXSYkMuozviezQ1LJxLyVHhv26BiUbd3hhpV3mksCJEACJEACJEACgRJg3ypQnEyMBEiABIwioLchgQkyDYmOwdAkW5Bpbk3JhEkpaU70Fl5dtRVkwh4dg5KtO9yo0k5jgyEwPCATJ3VLx7CTXF5aOvPOF76TAAmQAAmQgFEE2Lcyyt00lgRIgAQCJaC3IYEIMg2LjikSZNqlKZGRtkRKvVsRMrUbrhSF6BiUHN3hgZYmJmYGgeEBaensk4lzBsSSYSjImOF4WkkCJEACJFCKAPtWpaiEf98Nc9erfjH8xxcZsAyEowzgvjRt09uQQASZhkXHOIJMIidpDFFSw5bqI8hEIToGhVt3uGkFnvYGQACCTM+I5Hu6pWUQ6VGQCYAqkyABEiABEogoAfatouk4+i2afmOu403AxPtSt7lqQaah0TFHTkoy0S5NranCS6ne9vcarbgUlegY3L66w+N9S9O6mhCwBRmREemY0yf9FGRqgpmJkgAJkAAJRIMA+1bR8JOeS/pNJ8LvJNB4Aibel7rNVQsyDY2OUYJMStqyhaFJ6a6UNHHuGPfu0h3u/sAPJFAuAVeQERF7+BLnkCkXHo8jARIgARKIGwH2raLpUfotmn5jruNNwMT7Ure5KkGm0dExla6KFMTxUYqOwe2rOzzetzStqwkBryCDAUs93TKBk/rWBDUTJQESIAESCD8B9q3C76NSOaTfSlHhPhJoLAET70vd5qoEmUZHxwQhsFSaRlTmjnFuLd3hzn6+kwAJkAAJkAAJkAAJVE6AfavKmYXhDPotDF5gHkigmICJ96Vus29BhtExnxSXppB+0x0e0mwyWyRAAiRAAiRAAiQQCQLsW0XCTRdlkn67CAl3kEDDCZh4X+o2+xZkGB3T8PJbVgZ0h5d1Eg8iARIgARIgARIgARIoSYB9q5JYQr+Tfgu9i5hBAwmYeF/qNvsSZBgdE43oGNzTusMNvM9pcsAErpzWGXCKTI4ESIAESIAEokOAfavo+MqbU/rNS4OfSSAcBEy8L3WbfQkyjI4JRwEuJxe6w8s5h8eQwFgEWKbGosPfSIAESIAE4k6A7WA0PUy/RdNvzHW8CZh4X+o2VyzIIDoGieD1pyfSMnvp9ti/YCfsvWzKfIH9Udp0h0cp78xrOAmwTIXTL8wVCZAACZBAfQiwHawP56CvQr8FTZTpkUD1BEy8L3WbKxZkOtJvuIIMEjPphcigqG26w6OWf+Y3fARYpsLnE+aIBEiABEigfgTYDtaPdZBXot+CpMm0SCAYAibel7rNFQsyJz47Jc/07JYn1meNej3bs1tge9Q23eFRyz/zGz4CLFPh8wlzRAIkQAIkUD8CbAfrxzrIK9FvQdJkWiQQDAET70vd5ooFmWDQM5V6EdAdXq/r8jrxJcAyFV/f0jISIAESIIHxCbAdHJ9RGI+g38LoFebJdAIm3pe6zRRkYn4X6A6Pubk0rw4EWKbqAJmXIAESIAESCC0BtoOhdc2YGaPfxsTDH0mgIQRMvC91mynINKTo1e+iusPrd2VeKa4EWKbi6lnaRQIkQAIkUA4BtoPlUArfMfRb+HzCHJGAifelbjMFmZjfB7rDY24uzasDAZapOkDmJUiABEiABEJLgO1gaF0zZsbotzHx8EcSaAgBE+9L3WYKMg0pevW7qO5wv1c2dTJnTF6NSayjOKGzX1+Pdd7wic/VymoH3z0+1mH8jQRIgARIgARiSyCovlVsAY1h2MnPv5LOl/Y0ZGEQ+K1Ri5LAZtjOjQRIoJiAifWpbjMFmeIyEbtvusP9GghRAmmZ+vrfJ3v9oovFeWfPnVcdKK//l23eJ+cvXIiFfTSCBEiABEiABMolEFTfqtzrxek4k/uTpvcl41SOaUtwBEysT3WbKcgEV55CmZLucL+ZxBMFpIXX7KXbjXk5Nt+3fJtfdJE/L3voA/nZfStd/ztM8P7bh9fKW++diLyNNIAESIAESIAEyiWA9o+bPwIm9iedftOcFdv9QeNZJBBjAibWp7rNFGRiXMBhmu5wv+Y6DSjEmNyRk8a8YC8Ywn7TNgzTmrlosyvEfPeuZbKo74DyfWd6n1x7+2L122VTOuSxtbvkqzPnTENEe0mABEiABAwkEFTfykB0qj8Ffib1J03uS5pYxmlzZQRMrE91mynIVFZmIne07nC/BlCQMUeQwTCk57celGtuW+QKLncv3iYDh44XCXE73zwmNz/3ilwy2Yqc+vfZKdnx5vt+ixjPIwESIAESIIFIEAiqbxUJYwPOpIn9SQoyARciJhcrAibWp7rNFGRiVaQvNkZ3+MVHlLfHxAYUkUCmNaIHjx6X/3r4BTcq5td/XSvpgXeLhBg9Qqp72yH54Z9XuOfMWryZE9eVd1vxKBIgARIggQgSCKpvFUHTq86yif1J0/qSVRcSJmAUARPrU91mCjIxL/K6w/2aa2IDapIg8/mpM/LgytfksinzlbByzW2L5ekX98jefHnD0wbfOSH3dmXkazd1qvMxnGn9rkPCOX/93nE8jwQiSGB4QCbO6ZOWzj6ZOKdbOobrYcOI9A+O1ONCvAYJuASC6lu5CRr0wcT+JAUZgwo4Ta2YgIn1qW4zBZmKi020TtAd7jf3JjagJggyEEw2DhyWf21ZpoQUDD+6pf0VwXAkPRKmnO/p3e/Krx5Y40bL/DHRI0c//tRvseN5JEACUSIwPCAtPbY4MtgnE53PsGE4L/2Deck7Io37fUT6sW94pOg397gS5+YH7bREJD8IEWiAokyUykkM8hpU3yoGKCo2wcT+JAWZiosJTzCIgIn1qW4zBZmYF3jd4X7NNbEBjbsgM3TsU/nTE72ueHL9X1bK2kzelxDjFWsQVZNYNyjfvGWhSvuq6QvUktnnzp/3W/x4HgmQgIfADXPXu/ct6viwvH40c5G09EB0GZH+zm5pGbQzjciZTuzPS8ecPumHWKO+47h2S7gZ7HOPz/eMfm5XD46DeDMieU2QOfzBydCwKMcn8CO3aBIIqm8VTeury7WJ/UkKMtWVGZ4dbwIm1qe6zRRk4l3GVec0CBNNbEDjKsicPntOntowIFdOs4YXffPmpDy6+nXZc3ikajHGK8xs3/+B/PHxje4fpIn3r5Z9Q8eCKI5MgwSMJqA35KGBgQiZzgHp7+kuio6BODOx0xrK1DKnW1qe9AxnciJpRhFk9HM7XsFwqD7pH3aGKeWlpRPSTPS20PoxeijrnmP6zj9yE/uTFGT8lxeeGX8CJtanus0UZGJeznWH+zW3ugZ0SNLZUV5qCe0hSSYyksza85VkM9LclZO0trx2uqtX2oqOGSoICKOlj/1aOl7RYLzPcWtEMwffkx/PTrkiyZ+eSMvWfR8UOFbBajSWi/sPyHfuXKqueenk+fJQ92vy5emzfosizyMB4wkEVa8HDtIzZMkbIYOIF+98MkXfxxFkio51MzwiHW4EDgUZFws/1I1AaO/BuhHwf6Hq+pPlzWs3Wn+kUfvj1pf0732eSQIXEzCxPtVtpiBzcbmI1R7d4X6Nq6YBhZDS1GqH1bempKnVEQRS0tw1JLlsTpon9UoyC4FlSNpa26WpKyPNiYxHTMF+HJ+TZHpI0ulemZDI2ULCkLQlrPSbEilpmpQSvE/Au0rLI9xUKDjEpRE99smXcltHvyvEXDdruSzf/FZNhRhvxyf79nG5c8FmgSCDMnndrC7ZkhvyWxx5HgkYTSCoej1wiB5BRiQvLXMG1LAi63O3muzXGtKEeV/s73PsaBqc69nnDndS6RTOfRWRNIi2cScNxnW6raFSgRtU2wRD68famh2L1Ok7/26spj/p7VdE6XNc+pL+vc4zSWB0AibWp7rNFGRGLx+x+EV3uF+jqm9AIbqk7AgXS3RpTuNJh/UZ+cRLiTUQYiDStLaLdcxJyWUzSmhpVoJLryQhyLT2ekQbW9Q5Yl2Hgozl6XPnL8iSV/bJt25JKr5XTO1UqyHtfud43cQYb6fphR15uf6ela4wBJHo40++9FsseR4JGEkgqHo9FPCcCJlQZKa+mYiVH+uLruFXo+/8u6D6/mT0omQoyPgvLzwz/gRMrE91mynIxLyc6w73a25VDagaTmQLMohuyeZUFEyz+nxScna0SxJii3pBaOmVtgQia6womSQiYBARA2EG+9xzEE0zJOkuOzIG0TiTeqUtjXORRkr97hUFKvkc5UZ075Fj8qsHVrvix+8eWS99g+81RIjxMt9z+IQ88PxOucKew+bqWxdJ97Y3uUS235uT5xlHIKh6PRTgKMiEwg3MRGUEYnUPVmZ61UdX1Z+sMMrZ2/do5Oco9yWrdjgTIIFxCJhYn+o2U5AZp5BE/Wfd4X7t8d+AYjiRNXQIeZmgDVlqSmRkbgKiCkSalLSpoUqWIKNEmXRhGNMECC1dKUuYcYcsDam5Z9J2BE1bOiPN6hqFiBs1LMpnIx7FRvTTL0/LvV3bBEtYg/m1dyyRjvQ+wepHjeyQ6Nfuf+M9+e1D61zB6MZ56yX/4Um/RZTnkYAxBIKq140BFlJD6QQAOmEAACAASURBVMeQOqaMbNF3ZUAa5RD//clw9WH0Ps1Y36PYlxzFfdxNAoETMLE+1W2mIBN4sQpXgrrD/eau6gZUCSa9klTCiHfIkjMcCWJNRpIQXPCezl0U3YIoGMwLoyb2dQUZp4F2hixBAIKgYx1bEHWc4yp7j1IjeuGCyAs73lYCDPx+2ZT5at6W19/6OFRCjLfTApHomZ49cvWMRUqYwZCqZ3p2y5mzXCLb773K8+JPIKh6Pf6kwm0h/Rhu/4yVO/puLDpj/1Z1f9LnAzZv36Pen6PUlxzbe/yVBIInYGJ9qttMQSb4chWqFHWH+81cdQ2oPU+MdxLeovlhIKY4ES22MHORIFOYa0YNRcLQJKzEZK+uBCGnSUXgWJMDY0gTjsNEwWlnZSYfjXhUGtF3hkfk9/PWu9Emv2hbLS/u+ntohRi9M/TagY9k8tMvufn/6b0rZfc7H/otrjyPBGJNIKh6PdaQImAc/RgBJ42SRfpuFDBl7K6uP1nZQzW9r9Go71HpS5bhPh5CAoETMLE+1W2mIBN4sQpXgrrDy83daS1CoZoGVEW2QBxxBZHiCBk1dwxWWzpyUs0Fg2FNiGzBpL6YHwb7rfllsKoSVlhyhiVZKzYpYSZtLZttrehk77eHR2FYlN+lr8PQiGJi3tG2U6fPyry1u+TymzqUmHHlzUm574WM9G7EalT2S61ehU7MkCS7CsuLO2JWGsdVIVqpDk7WWv1q/M4OhpiNvurV8i1vy/dnLVe2YMgVhl5hCBY3EiCBAgG/9XohBX4KAwH6MQxe8JcH+s4fN5xVTX/S7WPgYZvbp6ytSFPNQz0nv2HoS/r3GM8kgdoSMLE+1W2mIFPbMtbw1HWHl5uhW9r71J/i/3xwjTolkAa0To2n0wAG8R6GRnTppn3KF4+u3lHkvk17h+QHd1viBfz8rVuWyf/82ZqPxxLBMkrIcpcHV5Mpp6QtDYHLikhy5vRp7tqlJlp2j8WQMGd4mL0SlrviVQk/Otcbr4NUOK5YHPL6auDQcbl78Ta5dIolMn33rqXy8uCRItv5hQRMJuC3XjeZWRhtpx/D6JXy8kTflcep1FFV9SfV8He7/+Lpo3gfNnn7E6N/Hr0P4p6TxuqezrUQce1f+AlDX7KUL7iPBMJAwMT6VLeZgkwYSmIN86A7vNxL/edDa6woBbsx+teWpeo7GhW3sSrxxzxuv4WhEYUQAz9ifhW8P7gyI39M9KjP+P6j1i6Z3tIuTViVCkuHJxBBZH0vRBlZkyvjeGu5cM+S4rYfC2JJQbBREUrOhMnezoiKiMGQMauD4p7r7PeUDayqpaJ1cKwdSaOGlE1KSTOGneFY5zzPNV7cNSQ/v2+Vayds/uKrM+UWYR5HArElgPuYW/QJ0I/R9SF959931Qgy6mGSvfqm09+8qD+BaGs7Qtjpo7h9j6zVbyl1jpOe++5G4VjD6p2Ibfd3Tz9nvH1h6Ev69xjPJIHaEjCxPtVtpiBT2zLW8NS/PWOh+4cWzq/2ZaogUy23as6//Kb5RX5zhichzW/cnJRdb32shno1Y4UqvFozarWqJIZ22UO+VGfBFlYQ6WJFyHiGdmFYlzvxsr1EuXdFK28HyImeUUuMW5MsK0FGiUHWUDNMzAyhxRJqsAx5RtqwzLmatHmTzFWTLlviUbLbjsbxpOd0bhAtg1WiHH5dm/c3/J5iBkig0QRwP3CLPgH6Mbo+pO/8+64aQSan+h/t9hyB9lBsb38CD3VU38deJGKSNVze7aNgNc/0kBU9bD/ASmZz9uqcTp+o11o8whFcMCehG43jL0qGgoz/8sIz40/AxPpUt5mCTMzLue7wcs29OEJmmfpTbKoggw5Eo7ZChEyHWsq6LbVdbnom7YoU37lzqTz0+FJpcubMwbtXfLMnU3Y6JFg+vElNqoyQXWsZcespkvUUCKJOEwQVW6Bxlxq3OyfWEypraXJcBwKPJbTYc/WoDpM9Z5At3jQl7KdSSpBx0rbEnFLpQZBZuulNuW5mYUjW5Kc2yvHPTjXKDbwuCYSGgN96PTQGMCOKAP0Y3YJA3/n3XVWCjB1R22aLMGootR7Fi+HZiBhuxUNIz0Mj74Ml/RxHfNHe1byEiOZNjz73nfMAaax3CjL+ywvPjD8BE+tT3WYKMjEv57rDyzV3RufL6g//bx9aq06pugHVGrmxGq4w/RaGRnTZln1KiJm3ZmeR+7KHhuWX9xeG9MDX6oVJkTEUCE911EpU1lMktRw4ng5lC5MqKyHFXf3KiZxxJlPGcXhiVDy8SQkoSmDBClbeyZhLCDKq84ThUu2C+Wlc4cbTGdLT27TnffnDY4UhWT+enZJt+48W2c4vJGAyAb/1usnMwmg7/RhGr5SXJ/quPE6ljqqqP+kuCoCoFruv4ulPoP+IPoU+3Nrtezh90aJzRomQcaKBPUOp/fZPw9CXLOUL7iOBMBAwsT7VbaYgE4aSWMM86A4v91JBrrLktwFzxvyOff7Yq/aMfe74oadhaETHWmUJvz2/9aB8a6o1rOmSSe3y/Vu65H/mvahCcNV8Mc48LWpyXoTrYqI6z1MjjyCjOi121AvYKbHEDvl1WWatOWrUhMBF4cCWeIMy54y1tjpBKfWUCsOnCp0iZ6nzlLT1OemtkH+alJLLp1lz5Vw1fYE81zsop8+eK7fY8jgSMIKA33rdCDgRMpJ+jJCztKzSdxqQCr5WI8g4fRTwR//GWr3T05/I2hG7ajgSooU9fR1vhMyR4nPc/o0j2DhDrp0HXZ5+Taljx9sXhr5kBS7ioSRQVwIm1qe6zRRk6lrk6n8x3eF+c+CvAbUiMWq5ck/hD749ltizrPN4DWQ5v0elEd3Q/pJMWbhRIMjA55hb5uGnn5emZUc8kzBbES9KkPEOY/IIMuUwqcUx+vCk6c+9LMMnPvdbXHkeCcSaQFD1eqwhRcA4+jECTholi/TdKGDK2O2vPzn+A7Ra9E2CSjMqfcky3MdDSCBwAibWp7rNFGQCL1bhSlB3uN/c+W1AvYKJFW1xcSipavBKrLLjnuv85n1yYe9L9mEFH3vYjD3x2lgr91TauEatEX1neKRoBaYf/nmFLNv0pkeUCVenhsOT/N6RPM9kAkHV6yYzbLTtEJzhx4NHjzc6K7y+DwK8B31As0/x25+stP8WpuOj1pf0712eSQKVEzCxPtVtpiBTebmJ1Bm6w/1m3ncDqsbpIqwU4aEpcSeIxdhcJ3zUGaerrbLjhKZiOWeMFXaOt4Qaa+WeOxNd9n5t1vwxVu6ppJGOYiN64YLIK3v+Lj9qXWHNKTOpXW6cu0H6Bt8LjTCz+53jcu/y1+QKDk/ye0vyPIMJBFWvG4ywYaafOnNWntww4NbN8CW+Yz+36BDgPejfV777k56HcpX048JwbBT7kv49zDNJoDICJtanus0UZCorM5E7Wne4XwP8N6DWON2xVu5RkTOtxav2oAF1I2TQCCvR5uKVe5Z0pFyhJueZpG20NCttmKPciGLulY70G/LNW5Kq84/lsmctfFVef+vjhgozHJ7k9y7keSRgEQiqXifP+hGAUN6bPSzfn9VVJMbAl3hdN6tLNg4cFhzHLfwEeA/695H//mS4Inwr6U9GuS/p39M8kwTKI2BifarbTEGmvLIS2aN0h/s1pJoGtGiokj2xrHflHvW7tmrPmIIMBBqsFISVe1qXji7IlEizkgYUx8ahET32yZcyc9Fm90/AP92+RJ5a/4bsyY/UVZjh8CS/dx/PI4FiAkHV68Wp8lutCBx897jcMHe9Wwdff89KWbn1kKp/8d50z/PubzfOW89hTLVyRIDp8h70D7Oa/mSlfbiwHB+HvqR/j/NMEhibgIn1qW4zBZmxy0jkf9Ud7tegahpQZ+hRc9p6umEJNM7s+BBXnFV2MCN+Yb913tgr99zwoDNkCWl7Zs13V+4pTrPSxjlOjejeIx/Jfz601u34//y+VbI2c7jmogyHJ/m963geCZQmEFS9Xjp17g2KwInPTsk9y7bKpZOtVfCunrFI/rZ2t+w5XCyG4zv243f4FsfjPJzPLZwEeA/690s1/clK+3BhOT5OfUn/nueZJFCagIn1qW4zBZnSZSM2e3WH+zXMxAYUDXncGtHzFy7ICzvelu/etdQVZiY/+ZJs3fdBTYQZDk/ye8fxPBIYnUBQ9froV+Av1RA4e+68LHklJ9+esdASWKZ0yB2dm2Xnm8fGrGfxO467dEqHOg/nI51z589Xkx2eWwMCvAf9QzWxPxm3vqR/7/NMEriYgIn1qW4zBZmLy0Ws9ugO92uciQ1oHAUZx/9ffHVG5q3dJV+banX8vz59gdy/YocgmiWIJ0ocnuSQ5jsJBE8gqHo9+Jwxxe0HjspP7i0MQfrtQ+tkY9ZaCbDcuhXH4zz4Ga+f3rtSkC638BDgPejfFyb2JynI+C8vPDP+BEysT3WbKcjEvJzrDvdrrokNaJwFGaccDB37VG56Ju12/L83s0sWvrxf9ub9TZ7H4UkOWb6TQO0IBFWv1y6H5qU89NEnMuXpQl36/VnLZVHfAd91Kepg1MWok+FvvFBXo87m1ngCvAf9+8DE/iQFGf/lhWfGn4CJ9aluMwWZmJdz3eF+zTWxATVBkHHKA56+4iksygtefp7qcniSQ5PvJFBbAkHV67XNpRmpq2jDNTuLog0fSO2UwXdOBBJtCJEb0YuIYoTfEdU4b81OwXW5NY4A70H/7E3sT1KQ8V9eeGb8CZhYn+o2U5CJeTnXHe7XXBMbUJMEGZQLzFOw5JV9cvWt9sSSUzrk9o5N4857wOFJfu8qnkcC/ggEVa/7uzrPAgHMx7X2tbflO975uJ6q3XxcmOdr8lMvuaI5rovrIx/c6k+A96B/5ib2JynI+C8vPDP+BEysT3WbKcjEvJzrDvdrrokNqGmCjFM2sLLHX7qKVwZ5bO3ARSuDcHiSQ4zvJFBfAkHV6/XNdTSulh8ckI7BEZXZ/p4+6Ri8ON978tqKdXOCW7Eu3dUrbelSc84MSVsiI/MzhwUr5KEM4IWV87CCHrb+ngHpHx6R/sERyYtIHvkfvjj/3FM9Ad6D/hma2J+kIOO/vPDM+BMwsT7VbaYgE/Nyrjvcr7kmNqCmCjJOGTn47nG5Ye56t+PfdM/zsnLrIRWGz+FJDiW+k0D9CQRVr9c/5+G+Yn4wL/093TKxZ0TyPd1u3QfeEzrz8tHJL2Tmws3u/mtvXyxPb3jD9zwxaGPUKzskyXROvdpa26UpkXG/p7POMTlpntQryexJ2ZMfkfsfWyITJlnLaSN/M59ZJT+/d6fkhwdk4pxumThnQDo626WlZ0AmdkKe4RYkAd6D/mma2J+kIOO/vPDM+BMwsT7VbaYgE/Nyrjvcr7lOA4r00LCY8oK9eMF+EzdEw28cOCzXzSpMLOkwwfuPZ6dk236u/mFi2aDNjSOAe49b8AT6O9stMaMHYkaftHQiQiYvd8xZKROTb8g3brbmcbl8SqfMXNQnz724R9IQVbI5SWb3SzqdE0tAsQSW8n4bklw2I82JXvVqam2XCa3WZ+xrU4IMomOstmgCjmtNSZNqm1bINbcukkvsZbIvn9ohE+9cIhPmZKVD2QBBJi/9jJIJvLDwHvSP1MT+pNNvMrUv6b+08EwTCJhYn+o2U5CJeUnXHe7X3Gd6drtPBZ2GxaR32G/ydurMWXlqw4BcNc36Q3LV9AXyXO+gnD57zmQstJ0EGkIgqHq9IZkP80UHB6RlTrtM7MkLhi7dNaddJtzdJdfcWRCkf3ZHu/yw803JpXtVm9icPinJRLs0dQ2575X+BiFntAiZpDt8yY6QOZKT5lYMa7IjahIplZ+f3Y2IGUu0+drUpPx+7jqZOAkCU5+09FhDsMKMPmp54z3o32Mm9ydN70v6LzU8M84ETKxPdZspyMS5hIuoDloQJmJeETQkUPdNe8Fu2M9NZPjE56pM4Z0bCZBAYwjoDXljchHHq46IipLpyctDT6bkO60rXJHjG7d2yROb37KEmNaMJLtS0oRIla6ctLWmrEgWiDQV/zYkyS47IgbRMZNSbrSMiprpykn6iB4hg6FLQ5LGUKcE8jCk8vW9u16Sf7nDmpQdZUS97unlPDI1KKq8B/1DPfn5V9L50p6G9CV/98g6ueymDsF7vfuysBm2cyMBEigmYGJ9qttMQaa4TMTum+7w2BlIg+pO4Nx5rupRd+i8IAl4CLBe98AI7OOIdCAiZlK7XHvPWrnEFjQuv6lDrp3ULk2Pb7eHJ2WkaRLEGIgiGUuUwdwuauiSz9/cc9sFETeIsFHpO3PMHDkp6awTIQNxBsOWMLTJEm8wCbASiBK9MmdZj2Bum0sndShbLpk8X66/Z6N8+uXpwEgxoeAedpFlfQng/nZe9b0yr0YCJDAaARP7NLrNFGRGKx0x2a87PCZm0QwSIAESMJYA63V/rh9LTMZvT3W9Kt+abk2Ue+nkdvn2jG5Ztf9QIQJGCSRDgol3JyRyksPwIfzBU58x+a7P35TYAoHFmcw3YwsuGUsEUte1BJlmZy4Zzx9LnDdXRdnYUTutvfLUtkPy25ntAkEG5QUiTWrrARmLgT+qZp7FezB6fn9k1Q65Ymqnuh+umNohc9fsjJ4RzDEJxJCAifWpbjMFmRgWbK9JusO9v/EzCZAACZBA9AiwXvfns6Wb9qk/Y4+u3lGUwOtvD8sv7y8sJX3VXStlw66/u/PEYJJdFQHjiVhxV0gKYh8m9cXwJ3tiX2eCX+xrtueQwTw1SrCxr5fuSnmEoJNqQmFrGJOdFtJrTckPZnbJVbcuc6MCYGf2EGf5LSoAPr7wHvQBrYGnYIGCSyYXomPgP3znRgIk0HgCJtanus0UZBpfDmuaA93hNb0YEycBEiABEqg5Adbr/hBDiAE75yl524ptMuXptCtWfOfOpTJ/Y676ZayDEGkCTGNv/qSyC/bBfrxgN+dG81eOcBbvQf/sGnHm+QsXZPmW/TJvzU4VNYb3Fa/uFwg13EiABBpLwMT6VLeZgkxjy2DNr647vOYX5AViSaC/s7swMeRgn0zkqh2x9DONigYB1usiN8xd74oL4FHO6/KbrOE7zrGYH8b5/I2bk7LrrY8l0MiXAEWVIPK1862P5RvTrZXyYDf+oHLzRwD8uEWTAH0XTb8x1/ElYOI9qdtMQSa+5VtZpjs85ubSvFoRGB6QiZ15EcHEl33SX6vrMF0SIIFxCbBe9xehUIiQ6VDDFeaktssfEz2uKPOj1pSs3HoolqIM7PqRZ9Uo2P3l6bPjljUeUJoA78HSXKKwl76LgpeYR5MImHhP6jZTkIl5idcdHnNzaV4NCSBKpqWnT1oYHVNDykyaBMYnwHrdnyCzbMs+JcRguIJ327x3SP7t7uWuMDP56Zdk+/4PYyHMwI7JT73k2gY7YS+36gjwHqyOXyPPpu8aSZ/XJoGLCZh4T+o2U5C5uFzEao/u8FgZR2PqSwBRMpMYHVNf6LwaCVxMgPW6P0FmrBWGTp0+K4+t3SXOMKZvzVgoj7+wW/bkRyIpzCDff1u7W2AHygvs+tsLr8upM4yKufiOqnwP78HKmYXlDPouLJ5gPkjAImDiPanbTEEm5neD7vCYm0vzakogLy1zBgQDl7iRAAk0jgDrdX+CTDkee2d4RH4/rzA/zf+Zs9pacWnc+WCGJNnlWaY6m5O2rpxn2Wosi31SctkhSbuvnCTTOXVeMuv8jvOG1BLaheOGLk5njPxghSjkG+UEr98/tkEOf3CyHPN5TJkEeA+WCSqEh9F3IXQKs2Q0ARPvSd3mwASZ45+dkmd7dssT67PGvZ7p2R3a1Qp0hxt9x9P4KglQkKkSIE8ngUAIsF6vnSADB2HllXU73pZ/vnOJEjQumzJf7ujcPPakv9mMNLVCkBmStgSWnLbEECw93awEFgguOWmGSGIvSa1+U0tdZwSCTDqdkeauXmmehHN61bLVOAb+bnLTsIWbEoIMJiVGPpFfnIP8r9t5iCvJBHLXFSfCe7CYR5S+0XdR8hbzagIBE+9J3ebABJmZCzerDgAuYOILYlQYN93hYcwj80QCJEACJFA+AdbrtRVkHE98+uVpuW/5NjXvDJhfe8eSUZfFTiZsEQViihJZIKTYn91IGQgyKWlLe6Nk7M9HTkq6KyUTEjlPBI0VGZNMjC3IOMtaI3/I5yWT21W+kX9utSHAe7A2XOuR6seffFmPy/AaJEACZRIwsT7VbQ5EkHn340/dJzJ/SmyU2Uu3G/H6n7/1uuLT3iMflVns6nuY7vD6Xp1XIwESIAESCJoA6/X6CDKO3/YeOSa/eqAwBOh3j6yXvsH3iuaWSXalpGlSuzSnh8QSZzLSluiVtrQTOVMcIQOxBtEvbiRN15AryECAUb/jAVciJ2MJMsjHfz1cGGKFfCK/3GpLgPdgbfkydRIgAXMImFif6jYHIsjMXvaqEiYgxqgx0iVCaeO4//89vlHZDfvDuukOD2s+ma/oEPjzki3RySxzSgIxJMB6vb6CDIoQJgReummffOuWpGr3r5jaKX9Ztl12v3Pc6veke2VCImMNO2rtleZ0TtpaU9KGoUhun8iJkMlI06ReSWI/zrM/OxEyEGCa0/ZvowgyuO49S7cL8oHy8O0ZC2XZ5n0qnzEs8qEzifdg6FzCDJEACUSUgIn1qW5z1YLMByOfy9emdqgOQc/rmIhu9PHNcfrtxV1/VzbD9uETn4f2FtAdHtqMMmORIcAyFRlXMaMxJcB7sP6CjFOUjn3ypdze2a/af/jhulnLZfnmt0RFyLT2SlsXImNS0oQXomAwfMkZsoR5ZrziCyJkMKwJ4otnyJIVIWMP/y4hyHRtfkuum1lYpvv2Ba8I8sWtfgR4D9aP9ZhXGh6QjuExj6jwxxEuXFAhMR5OAtUSMLE+1W2uWpBpS21XHZM/PNZjjBiDjtON815Uds9Zsb3acljT83WH1/RiTNwIAixTRriZRoaYAO/BxgkyTrHIHHxPfjzbmnAX/pjYulT+e95yaVJzwCA6xhJUlBhjr6CkImAw8S9WYEo452LuGWs1JidCJt2FoU6FeWacIUtb930gf7Qjc3HNpntS8trB95ws8b2OBHgP1hH2WJca7JOWQe2A4bx0dPZJi3p1y8Q5zuc+V7zJDw7Yv/fJxDnd1v7hvLR0DkhHZ7dM7HTWk8RiBn3S0tMnEzu5yqRGml9JIBACJtanus1VCTJ4InPlNCtcdt2OI8YIMi+8lldizFXTFshHJ78IpDDWKhHd4bW6DtM1hwDLlDm+pqXhJMB7sPGCDErG6bPn5OkXB9x+0JXTFsifn1lvRb0okcWaTwbzwOBBDuaWaerKqJWWlHCDqBisrNRqTdrrCDJONLH6rhZKSMn/9/Tr8o3pC1TfA/0urO6I63NrDAHeg43hjqvmB/PS77x6umVij+f74EhxxoYHpKVH21d0BEQYR3xxfhiRDlt8yfd0u4JPf6ct3DiH8Z0ESCAQAibWp7rNVQkyD6/aoToH//fRDcaIMegoYUI/gHyo+7VACmItE9EdXstrMW0zCLBMmeFnWhleArwHwyHIOCVk6Nin8r9PFib5v/4vK2VtJh9IvwjpID34HC9cB9fj1lgCvAcbyH94RPL2qx+CSU/he35YF2ysyBZXwNEEGwgu3iFPEHtUdI0ddeMVYbziTAOt56VJIHYETKxPdZt9CzInPjslX7ef1qzOvBNIx8N5KhTm91Xb3lGdom/cnJTjn50K/U2hOzz0GWYGQ0+AZSr0LmIGY06A92C4BBkUtwsXRNK78/KvLctUHwFLT9/83Cuy881jvvpHOA/nIx34G+kifVyHW+MJ8B5svA+QAwgmheFFdp48go0amtSTdwUcCDaFzRqiVBQfo84dkJY51vAkCjIFWvxEArUiYGJ9qtvsW5B5bO0u1Un4zUMv+OpshFl0GStv//HXtcpu2B+FTXd4FPLMPIabAMtUuP3D3MWfAO/B8AkyTqn7/NQZFT172ZT5qq9wzW2L5ekNb8jefHkLHuA4HH/1rYvV+UgH0bhffHXGuQTfQ0CA92AInID5YxAd01NiHhkne2MNWRrsk4mjDGfq7+yTfgyP4pAlhyTfSaBmBEysT3WbfQkyn3552l368flXDxkjyKzY8rbqIGF5yU+++KpmBTPIhHWHB5k20zKTAMuUmX6n1eEhwHswvIKMU0oOHj0u//XwC6rPAH/9+q9rZWN27JUo8fuvH1jjnvO7R16QN9877iTJ9xAR4D3YWGfkIaZ45n5BJEuLNhxJ5XAMQcYb/YJjlbDjTATc48TNYFLfbmkpFYnTWAS8OgnEhoCJ9alusy9B5qkNA6rDMLFtteTS9rhprBxgL3ntTETX1DV252OsSJSyfnOubY+tntDaK0ln2W3tt4vyMt7vTjr2O55a/aJttbIb9kdl0x0elXwzn+ElwDIVXt8wZ2YQ4D0YfkEGJfH8hQuycttBuea2RarvcNmUDpm1aKsMHDpe9CBr4O3jMnPRVsHv8O0/3rZIure9qc43o0RHz0reg43zmRJfSkS2KEHFFVJGpGMOVljqlg59FabGZZ1XJgESKEHAxPpUt7liQQbhuE7nYtmmNy1BpjWlVhVoU0s7DkkbvturBihhJTskyXROkt6nQ9mcJNWyjva7I4Bo+11hplQaSlSxRRgsI4llJh1hyPObEoic/c51xvvdOc5+X7rpTbej9Nmp6IQO6w4vcR9wFwlURIBlqiJcPJgEAifAezAagozjeMy5N2vxZtWHgO++e9cyWdR3QIkyeMd37Mfr7sVbBMdzCzcB3oPh9g9zRwIkEB0CJtanus0VCzLz02+oTsPP7l1ljYmGsNGakbaEtWxjLpuRptZedxlHK4ImJc2JXiXSOMs/WlE0KWnC/kn2uUok8RzriCj6fnsJSSttPSrG/m6fo9JvTUlzWhu/Pd7vHkEG0TE/9zQImAAAIABJREFUubdb2Q37o7TpDo9S3pnXcBJgmQqnX5grcwjwHoyWIOOUzOyhD+Tn91l9CfjQ+8J+/M4tGgR4D0bDT3ouv/zqjPzthdflZESmHdDzz+8kEEcCJtanus0VCTKnTp+Va+9YojoRztMdJYpAOIHA4QozVrQKhgklE+3iiDBeAcUbtaI+J3JFx3p/Hy0Nb3oqkkaJLMWCTFs6J22JlEyY5BFuILbYgsyov3sEmeTLB5TN/3znEvny9NlI3Qu6wyOVeWY2lARYpkLpFmbKIAK8B6MpyKCInj13Xjpf2uOuUonVKvEd+7lFhwDvwej4ysnpO8Mjgn48fIfX4Q9OOj/xnQRIoIEETKxPdZsrEmQW9e9VlVjTPc8XVgywhZj0kZw0q0ouJW1ZDFuyol68YopXZLnosybIqPPsCJnR0igSZLL29UtFzzjiixpSZUfKlBJvvL/bgsye/Ij8+2wIOu0C+6O26Q6PWv6Z3/ARYJkKn0+YI7MI8B6MriDjlNThE58LIm7xzi16BHgPRstnu94elqtvteZygu/wwvfX3y5aBztaRjG3JBATAibWp7rNZQsyp8+ek+/etVRVYh3pfYUJ6VxB5qQV4aJElIIgk4NQg7ldbLHGGTpUSpBRw53s45paU4X5YEZJwxJknLTbpSmRcycWLvWbOx+NGyFTfG7R77YgM39jTuX9X1uWyVdnzkWu6OsOj5wBzHDoCLBMhc4lzJBhBHgPRl+QMazIxs5c3oPRcen6XYfka1OtCbNvnLtBtu//UG54dIPq22P/hl2HomMMc0oCMSRgYn2q21y2ILN8y35Vef3wzysEUSOlxIvg9mlDnTzDh4K7hjanTIlr7Dk8Ij+4e4WyG/ZHcdMdHkUbmOdwEWCZCpc/mBvzCPAepCBjXqkPl8W8B8Plj1K5uXBB5NneQdWHh79u7dgk6NfjfwTeZ3Rscn97rndQcDw3EiCB+hMwsT7VbS5LkMHY5utmdamK65mePbUTY9QwIjtqxbuEdQmxpB7CzNMbrAmMf3D3cjlzNprju3WH1/824xXjRoBlKm4epT1RI8B7kIJM1Mps3PLLezDcHj13/ry0LnlV/W+5ZHK7PLRyV8n/LtiP3+HP2UtfFZzHjQRIoL4ETKxPdZvLEmRWbbeWfP7+rOWuulwPQaSR19hz+IR865aFrnoOcFF83TB3fX3vKl4t9gT0SiT2BtNAEggZAd6DwhWJQlYmTcsO78HwevzzU2fkj4ke1We/ciomzd5fUoxx/mN0pvfJFVM71fE4D+dzIwESqB8BE+tT3eZxBRmoxT9qtYbtJNYPjlmpOZVbHN4TL1hhjpjQl4p5/W5KXin8BPRKJPw5Zg5JIPoEzp2/IEs37ZNHV++Qy2+ar96Xbdkn2M+NBEigvgTYDtaXd7lX+/DkF/KLtlVKXLlmxiJZnXmnrP8tOA7Hw684H+lwIwESqA8BE+tT3eZxBZl1Ow+pCuq7dy2TNw6fKKtii7ogM/jOCfnOndYExrCfGwmYToB/Bk0vAbQ/DATQgHtfCLXnRgIkUH8Ceme6/jngFXUCb753XLAAB3xz3czl0jf4XkX/Wfp2H1Xn4fzvzVwmb713Qr8Ev5MACdSAgIn1qW7zmILM+QsX5Cf3Pq8qt3lrBiqq2KIsysxdnVU2w3Y+fazBncckI0kAlYf3xT+DkXQjMx1hAo+s2uGG1l8xtUPmrdkZYWuYdRKILgG9Mx1dS+KR8+0Hjsq3bkmqPsov2lZL5sBHvv6z4DycD/8ivczB9+IBiFaQQIgJmFif6jaPKchsHDisKqVr71giu9857qtyq0qYyeakOZEpLGVdh8l9Bw4dl2tvX6zshv3cSIAELAL8M8iSQAKNJ4BGHK/4C6J5aZnTLS2dfdLSk5e8Qo99+N4nEzsH7H34YbT9jfcXcxBPAnpnOp5WRsOqVZk35bIp1rLW//O3XkE/vpr/Hjj/vx/vVfUs0l2deSsaIJhLEogoARPrU93mUQUZLP/mjMN8eJTZyaup8EY917vSkvZEfkJr7cWZB1fuUpUwbEeEEDcSIIECAVQgeMX/z2DB5qh9Gj7xuTy2dhfDraPmuDLze2/XVrnspg65e/GWMs+I6GHDA9LSM1KU+XxPt7QMWrv6O7ulY9j6PNr+opP5hQQCJKB3pgNMmkmVSQBd9MS611WfBP5oWfiq7Mlby1qP+h+jzAe7SOeu5BY37SfWZ7ksdpl+4WEkUCkBE+tT3eZRBZlX9vxdVURX37q4arW5oooRggyWvE7npC3RLhMSGfUZ35PZoapU7/HykX37uMBeQIL93EiABIoJqD+DUzpk5sLNxT/wW8MJnD13Xjpf2uN2IFGPLdu8j8Jywz0TTAaM8+/wgExENExnnyu8lCPCeMWZYMgzFRK4mIDemb74CO6pJYEzZ8/LXclNqr27dPJ8qdW0CvPWZAXpw98tCzcJrsuNBEggWAIm1qe6zSUFGajO//HgGlUB3b9iR01FkItEEluQaW5NyYRJKWlO9BZeXbUVZOYsf03Z/JsH11IJD/ZeY2oRJ3DqzFl5csOAuj9QieD1bO+gnD57LuKWxSP72UMfyM/uW1nkH8dPv314LaNlIu5ms/07Ih1z+qRfRCjIRLwgxyj7emc6RqY13JT+HoiwI5KXEckP5qXfeQ0jYm5ENqzbJT9/aINq79RcWquzklYPbU9a/1eyOUmmrc/p7JAUv+xjECmTzUhzV86aFkGdU/wfI93VK23pk7Ko74BcOdUaEvWbxzbIp1+eVvnoH7Ty09E5IP2I1kM+7ai9hkNkBkggQgRMrE91m0sKMtv2H1UV3bdmLJTX3/q4QYJMuzQlMtKWSKl3K0LGU5GWGXZ4keAzynk73/pYYC8AwX5uJEACooTJ3uxh+f6srpJ/9n88OyVbeb80rKic+OyUzFy02fUNVsND5xH1Xmd6nzsfFsbBYxjTV2cooDXMWT4uTP9a0Bwhxhv94uzDEaPt94Gcp5BAWQT0znRZJ/Gg8QkM9lmRcXPaZSLmjurplglzBpQYO6EzL+8d3C//PLVTtXnfnGovNNCakqbWlBJXVJ8/m5GmSYi071X7m1o9x2FeyuyQFXnflVIR+W0Qc/B5Urs0OQ9+PdMnIO3rZtppTGqXK25ZImtXpWQC5rFCfif1ST8EpJ4+mQDxmKLM+H7mESTgIWBifarbXFKQ+b+PrlMV01+Wba+vGAOxBJVgImep3WrYUn0EmdlLtyubYTunjvHcJfxoLIGD7x6XG+auV/cFKo7r71kpK7ceUnXCslfedJeHxG/Tn3tZ3j/+mbGs6m045rd6futBuea2Rco/EFzuXrztouGlO988Jjc/94qa8wd++vfZKdnx5vv1zi6vVyEB+hdPmwesCX07u9UfMwuhM9Fvt0zstKb5HXt/heB5OAmUSUDvTJd5Gg8bkwCi4dplYidEDrwPSIv9He/XL98r35hmDR+acFNSfj+3XZrtSJiih692VIy7zxFonAeyiIxB9L0nEh+iTZMTLXPkpCQTvdKGhUWU2NOuhJvHN2+Wr928RLW5/3Rzp1w/e4XdP+qWiXM8r6IJx8c0mD+SAAmIqPvINBB6G3KRILPr7WEF5ps3JwWdebdCcyqyGr8nE+22om0p3k1qeIT9uUYrLr124CP5xvQFym7Yz40ETCaAp/L3LNvqjpu+esYi+dva3bLncPFkeVh57b7lr8kV06ynVVdNX8BhTHUoOAePHpf/evgFuyPYLr/+61pJD7w7Zl3dve2Q/PDPTuexXWYt3iwnP/+qDrnlJSolQP9WSozHk0D9Ceid6frnIJ5XVNFuPZjQG2LMgHT0DEj/4ID8Prlfvm7306+atED+34Zjgv8LmNoAESzqpf4jDEkbImLUIiA5aUakjBJkUqIiYbxzUaopEqzFQtR/Dyc6xv6fk05nLEGma0jSdjTN7A2HVZsL/399eqfMvBvCkWdY1SCGWnEjARKohICJ9alu80WCzH//7UXV0cfT1nqLMbheMpGStmxhaBIqQTeEsEZi0MxFW5XNsJ0bCZhKAJOGLnklJ9+2h+5dOqVD7ujcPK4wu2nP+/KHx3pcgYDDmGpTgj4/dUYeXPmaXDbFekJ4zW2L5ekX98jefKG+HKvOHnznhNzblZGv3WQJaNfevljW7zrEiMDauKviVOnfipHxBBJoGAG9M92wjMTswhBkiqJNtNVWb5ydtPsaGI6ECJkha7gRIuud/w4QYEoIMk2Iiunabwk2WrrwJ17O/w0l9rRaUTSu4ONEyzy+V254Mu32eb73143WPDed3TIBw5di5hOaQwK1JmBifarbXCTIDB7+UFUwV07rlMyBjxoiyIz1h6IWv20/8KHAXoCB/dxIwEQC2w8clZ/c+7zbwfjtQ+tko/dJUhliKIcx1abkYAjlxoHD8q8ty5R/sOT4Le2vjCuUjVZfpne/K796wJq0HfXeHxM9cvTjT2uTeaY6LgH6d1xEJQ9YnXmr5H7uJIF6ENA70/W4pgnXUHPGOGLJnJXyk0cKwsctz/XLnMctkaQta0XCYMiSil5J5Ar/WZQggwl5M54ImV5J6v0YT4QM2ks9SiaJSX2z1n7rOr3usKa9G3tlwiRryDDKwk8feV4mTlopLYMmeIk2kkCwBEysT3WbiwSZ5idRwbTLnckthYpNr8Bi9v3OBdaEmLCdGwmYRmDoo09kytOFDs/3Zy1Xk8KWG3Wh/+nnMKZgS9DQsU/lT09Y9TLq5uv/slLWZvJV18/wb2LdoHzzFmsicww3w5LZ585zSc9gPTh2avTv2HzG+lXvzIx1LH8jgaAJsPwFTdRKT03WPTggd2zIynUz7IcQEGju6LZXRIIQg+FHmLjXiqi/SJCxJ+RFRIw6pst+x+S9ac9KSo4go+aUSQmmSCjMSWMNU2pSc1pmpFmJOykVkZM+YolBiKa5b/6LcokjIM1YJs++/o7kOfNBbQoHU40tARPrU91mV5DZN3RMiTFXTu2Ubfs+qLrDr/9RC+P3V3PDcoU9Wzvs50YCphD44qszMm/NTvmavZQjxmY/kNopGNYSxL3KYUzVlSQsJ/7UhgE3eg9zej26+vWL5vGp1lfb938gf3x8oxsZNfH+1cK6sDrflXM2/VsOpbGP0TszYx/NX0kgWAIsf8HydFLr7+yTdYffkmunW0OIML9j19I17lCinBJDbEHGjoq5SJA5MiRJFdnimV+maJ4Ze5ivI8jgeE2swZLXxUOVCmk1Y04ZTBysVmZKyW+W7JarpluR9l+f3i7/5wVG2zv+5DsJlEPAxPpUt9kVZKY9+5LqlN/asSmQP2TV/lGox/kz5m9SNsN2biRgAgGs3rL2tbflO3ctdf+ET37qJdlaIxGWw5gqL1WZg+8J5uFBZY3Xn55I18w/Tj27uP+AfOdOq0xcOnm+PNT9mnx5+mzlmTf9jOF80ZKnWAa1Y3CkiIru3x/fv0G2rtsibc6T2yye4lp/GFSn314xxPqszReEJ7vOyiDqvMLTX0xI6aS5eM2r8s2brfD6gn+PSYdnNZA8VjXqKc5rUcZD9kXvzIQse8xOzAmw/NXGwYjaddq/f75jiby4q1CnOe1VGN9f3PV3QX5RLpB/2MGNBEigPAIm1qe6zUqQeeu9E6oSufymDtmyd9gIQQZP8GEv5mOA/dxIIO4E9uQ/kv98aK37R//nc1bJ2szhmt/vHMZUXsk69smXcltHv+uf62Ytl+Wb36q5f5zObfbt44IhnPjDjobiulldsiU3VF7meZRFYLBPTerY0dOnlmyeOKddJsyxPt+yZrjIv9fevkSmtrRLUyIjmKugqRVzHgxJzlmiNe08obWEuQl4wuusNJi1n+jaK3+o1UPU01p7UspsTk1cqdJ2nuT+uUd++eh6ucTx712L5Q+T1kn/8IBaYhY+d19FS0qH07l6ZyacuWSu4kqA5S94z2IeR0w2D7ZN9zwvW3LRitZHfn8825qLD3a8kWekTPClhCnGkYCJ9alusxJknD8B057tr1vn3/kT0Kj3ac+i49yuOshxLNy0iQQcAh+d/EJmLrTmSkKZR0fh6Q1vlL06T1D3KIcxOR4pfj93/oIseWWffOsWa/UIDKPEakgQsoJiX0k6L+zIy/X3rHT/nKN9+PiTL4szzW+jEsgPj4iKNunsE0eQ+Y8HVssV0xYoppdPmS8/bk3Jnx7vUauETMBKHlj9Q60AgpVCrHB412eOQOOdv03NeWBNbollX3EuVhxpsqNlVCi9vULIBKSLPzh4x3KwD+2Q6+8pLIE+YdYLsnbN8zJhzoDkbUGpPwJzIOidmVEdwh9IoAYEWP6ChfrS7rw7RPe/Hl4vu976uCHtn1vveuvbCj4j31gUAeXjqmkLBHZxIwESGJuAifWpbvM/5D886Xa8Jz2ZltlLt8f+9b/2cnV4Enz4g5NjlxL+SgIRJYB5Kuan35Bv3Gz90cdyx1ji/fVxOjrOH8I0OiH2sAcMf8C46Wo7Kzifw5gKBWrvkWPyqwdWu3Xw7x5ZL32D7wXCuRpf7Tl8Qh54fqdcYa9Ad/Wti6R725tcIrvguhKfRqTDExHT0tknzYkX5ZpbCytxTIR/X9ms5iZwVu+YoJZndVYMsZdkLbFkq4qC0Vc+c+dAKF4hBIKMWr4Vvycy0mZH1jhzLVj+fUkunWRFQ106xYqOcZeb9QxlKmFoKHbpnZlQZIqZMIYAy19wrl7Yt1dFq4MpHpaifqqm/Wr0uci/89AXUfiwjxsJkMDoBEysT3Wb/6Ej/Yb7ZwA/mvRqWbhp9NLBX0ggogSwjG7/nr/Lj1oLT8FvnPdieX/01R8864m7EmAcQQbDITCBXjYnzc6wiQqeGukdJNOHMX365Wm5t2ub2wm99o4l0pHeV/eoJd0v+vf+N95zn/ahbbhx3nqBiM9tFAIY/jNnQHI7rDnZvO3pxKTHv9mMtHXlrIgV1e6mCoKnWrI1I+kjOc+SrRiu1GsfY4k33rS9nyHEWJNN2u05BBlExmC1EEeowcSYCfv36VbkDtL4xh2L5aaneqWlJy9hf66L/HIjgUYRYPmrnjyiQ9tS293/HXOWvyZ78/aEuYgUdPsYQ5LsyqiJetFGOfNjpdW8WZhzy35ltTm23PO1/UXzchWug4l8nXm3MHRU9YEw/BORh95rqeuMnU+sZHjf8tdc22An7OVGAiRwMQET61Pd5n848dkpeaZntzyxPmvU69me3QLbuZFAnAi8Mzwif0z0uJ2AH/55hXRVMg+JeqKec59OqZUG7D9yExK7rD92avgDjsEfSmvlgRvUkAnPHBejdYS0/aYNY4JY9sKOtwUCDCrjy6bMV/O2jBe1pAsl9fyOjuUzPXvk6hlWpAeGVKHNOHOWS2TrdceF9wfkupkvyzUzrBU34OOrZ1hLi7vLqaKDn8Ckzbh3MMwoYw8pyll/QJQggz8G2N8ryVJDlpz7yBMhgzKRTFhzyLjCi3M/qyFOmKvGjpyx/9Qg/QX5Ifl/d7bL16ZZ+cQcM3ekwu9fvTOj+4LfSaCWBFj+yqdbSog4dfqsTHk6rdpBzOf4bM8e1e/wislKXFbiCebEspe4xkMiNeeW9e4O91R1aTlRvBCjnUnzrf6LlQYiCe05uOxlreFj54UVl9TwUvs64+XTaaPRdsI+pHPTM2mB3dxIgASKCZhYn+o2u6ssFaPhNxIggSgRQMTFX5/PyGVTrIb/m7cslIe7sUxyhaG/+ANnd0LcJ+2uIIMImYw0qeEUnj9/6Yz8222LRQ29KPcJlfOH0n43YRgTxLLfz1vv8v1F22rBygxOxy3s768d+EgmP12I/PjpvStl9zuctNCpJ5R/H1zu+hf30Q9mdqnhSfjsCDLJBKJhrLli3D8AiDyzo1hy9j2IiJimSSnrzwfetWVZVXlxBBkluKSkyb6O+rPgziED8dR6motrq6FM6r6zI3BscebfPX8+kN+w+xd55EYCjSLA8lc++aWb9ql68dHVO9RJn3zxlfz6r2vUPvRVnn/1kNsOOmKyelfzXlmiCXijj7FEicqWqO0uS10U/adFw2h9DVVv2qK3ErtbbdG71SvIYLh2r7qeNeG6I2bnXFF7vHwWontOSmrrIYGdsAF2w35uJEACBQIm1qe6zRRkCuWBn0ggcgTw5Cm19YC7MgHmRZr+XL9s3/+h28Gp6I8+OiEYmmR3YtQfu7EEGawQk87J3ERX0XnO+ZW8R3kYU6kngE5hwhOxeWt3uU/Jvj1joSReGJQ9+RGXcyWcSh87JEl9fpFSHdEA9i3f8rZ8f5YlPGB8PIZeQRCM81aJfy+/aYHc91y3THjcETCtaBjMGVPwHcQQPH21nvoW9uMY+BKCp/VHxP3T4V1lyfGjI8jgHI9gY/2Zsf5EqPsZx2nXQzQN/uAgaga/WSsy5WTqX5fJ5TOWqX1h9q/emYlz+aNt4SPA8le+TyDEgBeiK/H+pycKUbzJl/Z76sWT1nBLJSZbdZI1RBrDNO0IGUeQwff0kKTtPosjkBTXpd46t/BZ1X0qQtESsZX4XYYgc1GEzBj51POx4OX9ynbYv3LbwfLh8UgSMICAifWpbjMFGQMKOk2MJ4HX3x6WX96/ym3kf/XAGtlQbcRFOYIM/thBtMGyvPgj15qSGx6sXpBxOjB1Gcaklvrtlg53NZm8tFSx1K/+BNApcZv2DskP7i5ETUx5+mX/Yhn+hLt/rK1QaifaQQlnduSSw7GW7wOHjsvdi7fJpXZE1nfvWiovDx5xzK7Le3+nx3+DfTKxZ6Rm162bfx2hpcHvtfJvkD7TOzM1cz4TJoESBEwsfzfMLUR4wv5yX5ffZE0e7hx/5bQO+fp0a7GBkhEyaiJyRPNhqJK1etzFggwEZUtQKZ4fqyC8jN4GQsjJSJMaEoroQSvy141Y9LS1GFbqCNcQrTHcyYkeLny/OJ/ea3sjZP7jQUbIlLiduMtwAibWp7rNFGQidhOYOucP5qzgnD9WYQWHyfbYa9zQ37lzqczfmAvdhLDeDomfz/owpv99sleOBzXv0/CAYBUcTMBqTV5anSCjPwF8cGWmaC6fH7WmZOXWQli2Hx7qHCXI9ErS7TDan9WEg0Nq0uUknhra371h05iQ2fub7zx4xIIXdw3Jz+8riIKYv+iLr87Up1aFqKZENKxu1Cf9Nbxq3fzrYRuEf6pNI3D/BugzvTNTQ/czaRK4iICJ5c+vzYX6s0NNZP/o6p1qLpXR5pBxBQ+s7GhPpnuxIGMN/VQRfhUOWbKiD21BqRXp6ILMkIpQhODTbM/3pd6diBh74vSx8unUvZxD5qJbhztI4CICfuuWixKK0A7dZgoyEXIesgphAk408YU/5NVufp/whJU35ozB3B5O4x+3911vfSzf8KwCE5Qf+jb1S0vPiOR7uqVlEKWqIMhggvNKr6M/AXQm8UM6WHYcdgTiG48go6Ji8IQPc4Bg2Ik9vl5NFqvmH3EmKHQia6zVs5wnfkViTRVCAKIpnEmKK+VWzfHvHf9MEHHR0tOnfAkv3trRX7HvyslD3fxbhR8CKV8lrh+kfz/+5MuLfIaJLsvxgX4Mhv5xI4FGEUB5NG3za/OyLfuUEDNvzc4iZBgK6l1lCasSbVzmTLjrtF/WA4Zme3inNTTJmkMGc3GpoZqY+Nc7YbndHo7axmWxapM9R5c91DOthok61zyp5svDcKlkGqvbWREwmAfMuY5qc+2+uBWpWpxPTIZ/r2eVpftTGa6yVOR9fiGBAgG/dUshheh90m2mIBMxH3r/LM5eul1MeKHQ4nXf8m1Ve0u/AapOsAEJIELGebIEe+IaIbN005ty3czCcJ9JT20MNkJGDXFxoisKgowfl+pPANtWbFcrKjhlNzAfOUOW1OpWveLMS6I6h44gYw9dUvvs+YDUmHn7s3PsqJ3VEn/KR/uzr/tocpA+KscRauhZbaNjkI26+bcC9qP5JMj9NfFvQD6LQ11eThHnMeEkYGL582vzWHNwwbuL+vcqwQbp/8+DK2XOxiOFpa3tOa4wf4vz8MESQOyhSWoVOvQRU+7E6WoeLkyeni616pK1ylITol0waXACK9pZgguu70y+jnbSuo6zmmSvEmesY6whT9YcNhlrLhtPPhccPiFTn+lT/VbMwwX7uJEACYxOwG/dMnqK4f9Ft5mCTPh9VpRDR5CBEBNkxzvMacFWFFzYXu2m3wDVptfI87OHajCHTAj+EJaaQ2bb/qPBosaQJWfOEXv4UjVzyIz2BDBwH3kiZLz3rCOyYAUKRMpAbBlNkHEmc61GkKmLj8ryeF5a3GFnZZ3g66C6+TcE9x/KVW39G4zP4lSX+yqUPKmhBEwsf7W0+aXdeblymjXp728fWhdcVGmd61REwyL/YHXVtAV1n1utoTcFL04CPgnUsm7xmaWan6bbTEGm5siDvQAFmep46jdAdak1/mw8eXp+68GiVZamPVvFKkt17rx4RQWssoQQ3yvsTtlV0xfIc72DcvrsueBBewUZDFjq6ZYJVUzqO9YTwEB95FOQUcuVq0gzewlRnxMA19VHZXk9mD/3412qbv5t4P2He7E+/g3GZ3Gry8crg/w9XARMLH+1tvmN/IduX+bHs5+XLbkPIvXgEflFvsHp2tsXC+zhRgIkMD6BWtct4+eg/kfoNlOQqb8PqroiBZmq8KmGsroUwnk2lh1+cOVrgjllcJNj3pKHu3fJnsMnItGh0YdGTH/uZRk+8Xk4YfvMVTh8hMkK7VWyKvzzb4KPfLpWnVZT/zpD1UrMH+aE2HvFTT+fo+ZfvTNTje94LglUSsDE8lcPm4c++kR+PNuaR+af71gimFjcT31W73Ne3PV3dy415H/o2KeVFikeTwLGEqhH3RI2uLrNFGTC5qFx8kNBZhxA4/ys3wDjHB65n98ZHila3eeHf14hyza9GdoOTW2HRoTTfQ3xkfcPvT0Wv9wOq4k+qqZT0x58AAAgAElEQVTk1MS/8N9FUU1DaknYagWZqPo37nV5NWWQ59aegInlr142j3z+lfzuEWvYDyb179r8Vmj7MGhH0cdyFh9AvpF/biRAAuUTqFfdUn6Oan+kbjMFmdozD/QKFGSqw6nfANWlFs6zL1wQeWXP3+VHrStUtAxsvnHuBukbfC80nZr6DI0Ip3+QK/oovL4JImeB+7cGgkzU70ET6vIgyiLTqA0BE8tfPW3+6sw5uWW+NTHupVM65In1b1TVf0mn7cl37WW01epMWGEpa08OXGHEqPNAI7F+UJA/sJkxv0+Qb24kQAKVEahn3VJZzmp3tG4zBZnasa5JyhRkqsOq3wDVpRbuszH3Skf6DfnmLUnVWcBSzLMWviqvB7UEs88OTNSGRtTSy/RRLek2Pu3A/BuwIBOHe9CkurzxJZk50AmYWP7qbfP5CxfkkVU73AdLWOABy0k7Yki570qMwTLXrRlp6yqsrtTc6lnmusL+DPLRumSbm7dHV+8U5JcbCZBA5QTqXbdUnsPgz9BtpiATPOOapkhBpjq8+g1QXWrROPvYJ1/KzEWb3Y7DP92+RJ5a/4bsyY9U3LEptwNU6rioDo2oh5fpo3pQbtw1qvZvQIJMnO5BE+vyxpVgXlknYGL5a5TNy7fsl0snz1d9mElPpmXwncrmxrOWsM5JW8Ka1L6pNSVNiZxaibBoCe0yRRlcv/nJtMoP8rViywG9ePA7CZBABQQaVbdUkMXAD9VtpiATOOLaJkhBpjq++g1QXWrROnvvkY/kPx9a6wozP79vlazNHK65KBP1oRH19DJ9VE/a9b+Wb/9CkJnULuqPBP5M2C/sK2cOmTjegybX5fUvubyiTsDE8tdImzfvHZKvT1+g6sFf/3Wt7HzzWNl9F1eQaU1JW3pI0qhPfQoyuC6uDxbID/LFjQRIoDoCjaxbqsu5/7N1mynI+GfZkDODEGTQGBV14rMZaU5kJH3kpKS7eqXNGVOb7pWmREbUWNssZrrPWcdl8aShEPZpNXBIw97XZc+Kj+s4n8t88lAqsgJhqii4sL3aTb8Bqk0vaucjpPaFHW/Ld+9aqpiCx+QnX5Kt+2qzvGQchkbU28f0Ub2J1/d6vvyLuhiT+maHil5traniurxEPRvXe9D0ury+pZZX0wmYWP4abfO+oWPyL3cuUX0XLFiAiL9SfUZ9X0GQaZcJELOxWp0PQeaVPe8LrgsO37lrqSA/3EiABKon0Oi6pXoLKk9Bt5mCTOUMG3pGEIJMzhZgku5YWiwxmJLmrpykIbZ02YJLq7XfCu/cJXO70JCllPDS1NorbV0ZKwS0a0iFfuJ8pAkRB38UMFbXTzio3phSkAm+yH3x1RmZt3aXfG2qNRkdnvTcv2KH4Em6zt/P9zgNjQiefnkp0kflcYrqUfRvdZ7TOzPVpcazSaAyAiaWvzDY/P7xz+Sn965Uosg/3rZYXtiRH7fPUhBkrH5usitVsSCD6+B6YIDrIx/cSIAEgiEQhrolGEvKT0W3mYJM+exCcWT1gsyQEk0QuaKiYVT4ZkY9fU1mhySZwBPXnDRjaVwIMBBXlHCTk1wW+zOSzOL4XmnG01mMyXUEmQTEGAoyoSgoZWZi6NinctMz1lhoVA7fm9klC1/e72viPAg3cRwaUSbKmh1GH9UMbSgSpn/9uUHvzPhLhWeRgD8CJpa/sNj86Zen5fePbVDiyJXTOmVR34ExRRlXkEH/Fg8O1epK1oPEch4aIn1cB/b/4bENgutzIwESCI5AWOqW4CwaPyXdZgoy4zML1RHVCzIn1fhZTGiGSBkIK5bAYg1ZguiSVMILImBsQUaJLvulLdGuGiRr/gIIMvYxFGRCVUb8ZGb7gaPuUydUEr99aJ1sVMPUyl/RIK5DI/zwrMU59FEtqIYnTfq3Ml/onZnKzubRJFAdARPLX5hsPnP2vNyV3KT6pJhYd96a7KiijCXI2EPpMawTfV8MW0LEd3rsPs7c1Vl3QuGWhZsE1+VGAiQQLIEw1S3BWjZ6arrNFGRGZxXKX4IQZFRjBEEGc8akc5ZAg/kJ0FCpeWPsGejTOTX0SD1RwLwyqhHDpGgZFR2DBg1zz6g5ZNSSgjgP88hwyFIoC884mTp3/rwseWWfXH3rIquTM6VDbu/YNO7keRyeNA7YAH+mjwKEGcKk6N/ynaJ3Zso/k0eSQPUETCx/YbMZq0w7fWLk7a7klsBWj8QqlHcmt6i+ENLGdbiqdfX3DVMggVIEwla3lMpj0Pt0mynIBE24xuk5jQ/mVfEzt4cSYTB+VkXGWMOXEPHSjKFLWUzq68wRY63kgf1YKtCdAC1hTQCs9qkVPqxhTGlM+Guv/IFzcoiugLhTo0l90TBicsxKN/0GqPR8E44/8dkp+UvXVvep0NUzFsljawdkz+HiZbI5PKlxpYE+ahz7elyZ/h2f8n//7cXxD+IRJFAjAib2JcJq86rMm3LZFGs+vP/5W68MHKpuLjyc/9+PWyvbId3VmbdqVIqYLAmQAAiEtW6ppXd0mynI1JJ2DdIOQpBJdmHlJDvKxbOEKoYxqYl+sdKSGmeLlT2saBk1v4y9ApMK/8QM9WkMecIcMjl77hmEfkLkySlhB7PZjxcOWo6opE/q+8iqHXLJ5HZZvmV/xYT1G6DiBAw64eC7x+WGuevdJ0RN9zwvK7ceUkIghyeFoyDQR+HwQ61yQf/WiizTJYHqCJjYlwizzRjy+a1bkqq/8ou21ZI58JGvh5Y4D+fDVqSXOfhedQWFZ5MACYxLIMx1y7iZ93mAbjMFGZ8gG3VaEIJMOSJImI5xBJnfPbJONZJXTLUmV5u3ZmfFbtBvgIoTMOwEBCFtHDgs183qcoUZMHReP56dkm37jxpGJVzm0kfh8kfQuaF/gybK9EigegIm9iXCbvOb7x2X781cpvon181cLn27j1YkyuB4nAc7kc5b752ovqAwBRIggXEJhL1uGdcAHwfoNlOQ8QGxkaeYLMg4IakoxHhdMnm+Kww4+8Z7R8QHt8oJnDpzVp7aMCBXTVugmF81fYE81zsop8+eqzwxnlETAvRRTbCGJlH6NzSuYEZIQLWDpmFA/yrs24cnv5BftK1S/rlmxiJZnXmnLFFm1fZ3BMfDxl/ev0qQDjcSIIH6EIhC3RI0Cd1mCjJBE65xeiYLMr975AXVWF4x1Ror7CdCpsbuiX3ywyc+Vz7AO7dwEqCPwumXoHJlin/zw0ERYzokEDwBvTMd/BXCl2JUbP781Bn5Y6JH9VWunLpAOtP7xhRl8LsTef2nJ3oF53MjARKoH4Go1C1BEtFtpiATJN06pGWyIAPbsc1ds1PNIbPi1crnkKmDi2J/Cb0Sib3BETSQPoqg0yrIcqz9OzggLZ0D0tHTJxPnDEhecclLy5w+acG+zrH2jUh+sE8mTuqT/gp48lASKIfAufMXZOmmffLo6h1y+U3z1fuyLfsE+03YolTvYMW62UtfVaIM5hx8cOWukqIM9uN32DZ72auC87iRAAnUngDr0+KIQwoytS9zgV6BgkwBp49Flgon85NvAlHqlPk2MuIn0kcRd+A42TfFv/2d3dIxLJLv6ZaWQQvKWPtkeET6h/PSMYeCzDhFiD/7JIB7z/vCn3lTtqjVO+gjYmi1468ZHZvc1SKxaiS+O7+1bxzkstamFGTaGRoCzv3nvJtcn1KQCU2xLC8jFGTK48SjakcAFSe3cBOgj8Ltn2pzZ4Z/ERVjRcM4Igy4OeJMqX0W1xEKMtUWMJ4/KgGs8ugMb8HwaZOGTke13lm/65B8zR7qfuPcDbJ9/4dyw6MblBiD/Rt2HRrV3/yBBEigdgRYnxbYUpApsIjEJwoykXBTrDMZ1U5ZrJ2iGUcfaUBi9jX2/h0e8AxXEiklvpTaZ7mZgkzMinvozMH9h5dJT3PhhCjXO7veHparb7Um7XX8h++vv83JqkJ3gzFDRhFw7kfT61MKMhEr9hRkIuawGGY3yp2yGLqjpEn0UUkssdkZa/9CjOm0Zo5xHOZExeC7I8SU2mcdHw1BBpMzP7xqhxw8etwxk+8VEDj5+VfS+dIeQZ+o3i8sMHDZTR2C93pfG9eD3bC/3lvU6513hkfk3+62lrXG++EPTtYbIa9HApElcPyzU/Jsz+7A67xG16fj1eHP9OyuSX2r16cUZCJ2a6DgwImzl24vOUFZ7sjJ2O2HrbAZtnNrPAG9Eml8jpgDnQB9pBOJ1/c4+xdCy0RM4NtpvTCHjAiGL3VLS2e3R6wptQ/HhluQwfLlT24YUG0a/IgXvmM/t/IJoJPs8DPx/X+f7C0fVkBHgnPUt+OffqnKDd65kQAJlE9g5sLNxta5mMw96E2vTynIBE24xulRkKkxYCY/LgG9Ehn3BB5QdwJ88ld35HW9IO/BuuIO5GKYYLQ3e1i+P6urZKf2ulldsnHgMCcWLZO20xfCvYCHNqa8YC9ec1ZsL5NUcIfFpd6Jix3BeZYpkcDYBN79+FO5bMp8Vff8KbHRiPq2+cm021a/kf9wbEA+ftXrIQoyPiA28hSnE8IImUZ6wexr65WI2TRoPQnUn8DKbQfrf1Fe0TeBg+8elxvmrnc7d9ffs1JWbj2kolnx3nTP8+5vN85bz2FMZZA2sS+ECOhGRgzHpe2Pix1l3CY8hAQCIYAl4XHfQIyJ40iMUjZNe7ZP2Xx7Z38gDPVE9HqIgoxOKOTfTeyENLIDEvLi0JDs6ZVIQzLBi5IACRhN4Ad3Lw+9/Sc+OyX3LNsql062nixePWOR/G3tbnfpXacTiCV4sR+/o37F8TgP53MrTcDEvhAFmdJlodK97MNUSozHm0zgg5HP3VXKel4fMkKQ2bJ3WC6/qUO1x2+/f6Im7tfrIQoyNcFcu0RN7IRQkKldefKTsl6J+EmD55AACZBANQTCXA+dPXdelrySk2/PWGgJLFM65I7OzbLzzWNjdmbxO467dIrVEcT5SOfc+fPVoIrluSb2hSjIBFOUw1x3BGMhUyGB4Ai0pax5PP/wWM+Y7ZfzgCEO7zM6Nqm2e/pzLwcHUktJr4coyGiAwv7VxE4IBZlwlUq9EglX7gzNDVammdQt1gSoYJCXFm2lGkPJ0OyYEghrPbT9wFH5yb2FIUi/fWidbMxW9lQRx+M82IjXT+9dKUiXW4GAiX0hCjIF/1fzKax1RzU28VwSqAWBY598KVdO61Tt0LodR4wQZLbu+0CumGrZvH/o41pgVWnq9RAFmZqhrk3C/z97b+IeV3Hl/f89DiRkHTLDO8lMEk8mymQyM2R+mUzeCZl3nmRaNksgEDAOghCLKCx2EiVAYiTLBluy8IIBY9Fgg8FIeJEXWbZZbMs0EBPAtgIEY2xzfs+36tbt26XuVi93r28/Tz/dfZeqcz6nbvXtb5+qcvEmhIJMNG2p1VLtTqTVcnheiASO71ar0ly6aLfoBYMpyIRIN/miKLjNiEHa+qHSm3+W+feUJwH80sIhWbH5kOyfam3lQ5y3/MmD8vc3licBvvzeopTeemcGCxc3uHgvREEmnJaetr4jHK9YCgmET+COdduVGPN/79rohBiDPvb6gWeUz513Px4+0ECJdj9EQSYAJwtvXbwJoSCTrpZpdyLpss5RayDIbDolWDJ4wV4woCCTq5ZAwW1GONPSD/3lgw9lyUM7/DH2n75qmfxieIfsPXIylBvYPUdOyG2rtwvKhc+fuKJP1Yd6XX64eC9EQSacFv/+GS4xHw5JlpJnApjDzHzvrB87Esr3GfqwND9HD/7JzwiKYmWlYHux72EoyATpZOC9izchFGTS1TDtTiRd1jlqjSfIiJySvkWbZQsFmXw1BApuM+KZdD90/qOPZMPzL8sXbliphBLYM+/uJwTpzlHccKJclI968ES9qB92uPhw8V6IgoyLLZ0+k0AyBH61Yaf6rvn27Q9H8p0Wxfdku2UuXLFN+fw/v3kscuj2PQwFmciRh1uBizchFGTCbUPtlhbVjOPt2uX0+b4gIyJeNgXnkMlRi/DjS8HNRNW+mTHb43idmHpT/uP2Db448s1F62TD2NFYblpRzzd/vs6vG3bsP/ZmHG6nqg4X74UoyKSqCdIYEsgtgXfePyOfu3pAfc88+OzhWL7b2hVT2j0fk+p/xstE3fXy8chja9/DUJCJHHm4Fbh4E0JBJtw2xNJySMD/wa59w9ClOZzUNz+BDsaXgpuKq30zE0ew35z+i9y4fKsvhlxy3f1yz8Z9Lc8T0+oN5MTUKVUv6gcHPGEXJmB05eHivRAFmSqt+/hu6dt7qsqOVjed8uZha/V8nkcC2Sdw98bd6nvl0u71Togx6FtvWalXk/qvux6JJYD2PQwFmViwh1eJuQlBICFUuPA0N5zwnQ8SIAEScI5AUJDBDEEU3NTNYlzt4MzZc3JfcZ985kf6H8NPXN4vN67YJrteejvRm1XUDzs+frleJvuzVw9IX3GfwN68P8y9EO6BWhW2snhekn9Q2T8gUtHG9m6WSzdZgszxKenr36wmul/Qv1YuXWTeb/ZXIpzaqyfCX9C/WS5d5K1QeBxzr+2WPpzj/6ExJQtw/qbNcmm/mTQ/FZ7TCBKIhMB7pz+Uz1+7Qn3Hrnr6RSf6150vvS2fu2a58jmuFQ3t/pSCTCTNObpC7920RzUYI1K49Arf+SABEiABEiAB+2YmCiKYnmXLxCvy1a7V/vfuZUsek817X0/VTSrsuWzxRt9G2PvUxCuS5+llKMjE/wdVHNdcw9exyowREU+QmdpUFlsqyrDE7Ip96kO1CfBPSZ8nvpQnyhfZ0u8JNzML4RYSyA0B/PmAa/2fb10Xe/ZnUiJ592q9mtS3f7khtu9Nuz+lIJOxSwizXkOYwM2IS0/4DN/5SIZAxY1ItX+kkjGLtdYg0P/ERI093EwC+SBg38yE7dWR46fkB72bfJHjH25aLYNbX0qVEGPfvOLfTNgJNnjCfviRxwcFGbcFmS39ngBj7kfUUM4p1dSn9k7JFvP0Mlv8z9bwJggufYHpInCuyq5RqxVWijBBcSaP1xR9IoHTZ87KJT95QH1/rNh8KNXfd/b3X6ufd798Qi7+sR7++/T+UmyNwL6HoSATG3pWRAIZJnB8t5fCayYVzbAvDphud/QOuOyUi1Evx5gFmFG1cUxm2PPgmFw43wwDWi53rN0lE0fDWca61ZvGRs+DnbD3s1fr9Gv4AX/gV54eFGRcFmQCWS1GkJGAeHL8lEyZJ4YmbZoqfw6IL6JWI7SGIanzdsuCRXp78M8oCjJ56kHoSzUCK7bsV2JMxy0POpMdc/savZrUv922LrbsGLC372EoyFRrkdxGAiQwgwBuTDCOeoE9XnvGkdyQNAG7o0/aHtYfLgHGd+bNTCOEz52vvUQ09g1vOyRmotwL5t0nV/1hi4we/FOdfwlL0t07JsVj0/4xxeKYdBdL+vP4pBTHp0VtG/eOGS9JcXxSBsZLMonXot5eVNuxzzzLZSoxZnxMCoOTui51nldHoO6gaAO7YT/8QHuBX/CvHoNGGCZ1jG13aIIMeNdgGOQZzvv6MWukDs4ho+fQ8rNaAoIMVhgsz/3itdR6Q5aC51oNGxk4W7z5uhZUyZaxDudHEsgUAbs/hfGYe+yLN6xU3xd9xQP+d5rfLzXwveMfO6NPLenvvBnbre+5sPfPYvOeIyf87/ziHp1hF1cg7fs4CjJxkWc9JJB1ArjZ6dQ3KVl3Je/22x193v11zT/GtzVBZuXTB9TN5l3rt1c0GSxxiX/HwBXPb/3iIdm485WZN6SBm8WB3qXS0TsiHZ0j0j04rN4XesdkAO8H9Q/vIt53jUihd1gKvfoV5eO8Ao4ZH1PnDxRHpKMLx+r65+C9EXrGSzJQnFTlzukakW7zHuV49dS+CZ6WjTtekUtve8j3DX6OH65IE6hgEeaHYHaBmeuj1fLt2LUtyCj2Hu/OYelWgllJBgbHZMCIZ4F4V2fc6PElGegdlo7OpVLwBLjq5c3+44SCjIgEh+HVEVVUW6sjyFS0TyW+mMl/18qlm8yPM0zqu1bU5MD+RL+ttmKeRwLpIGD3p7Bq6JmD6nsCw14nHh/xvzPmeP0jvs/mdFX+AVG7H6vsG5s7d/Z+sHa9lefOVu+Sh8aVn9+4dY2cj3nSNfs+joJMOq4NWkECGSCAGxMrvTcDVrtoot3Ru8ggzz4zvq0JMhBiwO6iK/rVa/fq52T+PUX/xvML16+U+x6fbCxVe3xSuj1BpqB+xI9JR9dMQQZZLRBkILAMDI7InN7JstDjZcP4N5dGoAkKAciMgYDTNSy4McZ7CDcdJlsmeGyN9/unppVf8A/+4wm/I5+Xzc9YaH+oqx277975sPKj1VWWIKjZPy6KEMbA2GNbhPhV1FlOKkbev63IcNKZT5XH+3G041AcU/EvdFGQCa9fRpvCCkprpc/LYKkse7b9lUfzEwm4RMDuT+9Y+7x8eeGg6lPv3TQhk0UIMiMyEOjLguLGjL7RO05lfxYnZfFaq28MZqqYPxlMJumxaZ01iv7WiOHq+EDfi2Nm6Y91H+39geGVbWweMH13wJ99R0+K+U58dOfh2MNv38dRkIk9BKyQBLJKgIJMViJnd/RZsZt2NkaA8RX53uJHfXEBPBp5fvxyPXzHHGuWi8ZnLGmNpS9r/qgO3MjhGPWDPlCvypapIsgg80XXp8UUU/ecrqflemTEqH8cJ6WAm18lyAzrLBgMaQrWiRtk799JlZ3TQHZMxfnHpmXHS2/LZ65a1hAr386Aj81uu+mBZ9TKNMGhri//8WRL9deKXauCjP7BsVRlMOkfATqLBT4q8Wwthohpgc38MFE399jfhRhZx6sfEpNKONPZTjo7Smfe4F/bknSHKMg0G4swjsc1xwcJkEA8BFr5jmv0Oq/Vn35p4ZBMHD3lCTLlzE8M6zTiBobg2n0jvmv0fmRxPi2Fbi3uqL4Uw3ZNdo0Svb0s0V49BLd8njfcV4lBw9I9qEUd1YdWqVOd5/fH08pmZCGqDNRg2Z3aD7Uv8L3Z+8he9V30jzcPJzKUF7EKPijIBGnwPQmQAAnkgIDd0efAJboQIMD4BmA08bb8r2CffGzeUlk0PFqxktJXu4ZlzbbDlUJIUBQJvkd2CzIfIMKoTJdaGTIYlgThZUQwNAkZMhBU1NAVCDBVBBl/SJP3I77WTXYjQ5aMKAO/gst3YwWm98+cbYJei4eGNNTVjt1373xE3Uy3LMgglirLSQtmfjzM8CWTAaWGkekhTf6PCtMOjIBm/tU126u+hivIYMgWH40TwHCEnS8fl837jsltw6Pqddfh47EPU2jcYh7pOoEov+ft/vTiH+tJ4Hsf3au//4woorJS9Dxbfv9XpW9U3zPeOR0QQzbje88MBS0LMouRmRjMEkVfGTxv3PuzQw31hSBjviu9jNQ6/bH6k8Qq27fZ/Ini7cfk939/oxaN1o29mEhTs+NLQSaRMLBSEiABEoiOgN3RR1cTS06CAOPbGvVVzxxQQsySh3ZUFLB1f0nm/nTIz9yYd88Ts07mi+FHGIKC+V4wjEj9m1clQ0YPM9LDYLoxdGkQmRXmJhOCDP5RHAtkyFSmiRtBRd20BsbvN5olg8l95939hO8b/IS/8T3Cyay0Y9f+HDImAwlZLd58PAGBxecb2Ba8uVdxCezTcYovQ4aCTPMtGP1m8AlRlg8SSCuBKL/ng/3pIzsOq+viizesEgzjKYsrld9Fpv+DqKL+DJjR/0HkxkT3S2XOnYHsFj97ZkyqCjIQZcx53h8WEG3MBPewp5H+GMfYYo+xGRk+wf33PDahfP7KT4fk7LnziTQBO74UZBIJAyslgewSwLJ4fKSbgN3Rp9taWtcsAca3WWL6+GorS5iSTp85K7/asFPMMKbPXbNcfvPwHpmYOlUjY6ZKxgPGxnuiC24icTOIyXuLg3oyXjNkBTeGKiND/TOoU6zVv4kmRdv7V1L/yPcmKcSxEGTUnDKzTxALu3+9YY/AD7QX+PXrh3fJ6Q9jyIoxUNVrOIKMHbt2BRl1o25+oCN7SWW1YOgYfrQPy/V9OnOmQ03GWyND5lj5+PLQpMpJJcsxrNJeqmbS1Dpfb09yUt+KsGbww53rtvvzR110RZ/YwmwGXaLJOSYQ5fe86U+ROfZPtz6oviOWPLS7/F3nfTfBBjzxfWXEjQcw/EgNDcL3kJ0Fg3343tvp96XoG8256vtLZbmY4bpmnzlPT3Zv/uzApPnom01/Xbc/xndj1bL1RMRGkMF349ybVisfVj9zKLEWZMeXgkxioWDFJJBNAnYnkk0v8m01Y5S/+OIGCisjINUY47/xin+5zI1V/jxOxqMjx0/J95eU56f5l0Xrq6+4hH8HAxkrZo4Q3Ix2m6WsIbCo1ZMwnwgyaco3hkqQOYalQPHPnd4fPNZfZcn8aDeCDM6pJtiY445NK3thN/oBPL//q41y9I3pZIBGVGu7gkxZKKkvgKTtOAoy7TUoc00wO6Y9jjw7egJx3Mc9vvuo+o645CcPCJaATlt/F4U9mLgfbP9uwSq11Hf0kaxegx1fCjLVOXErCZBADQJ2J1LjMG5OkABjlCD8CKtGXINP/qiIBjZWv3xk+8vyf65/QPG+cP598pP+rU1N+hvFjeRsZWJSYtgJe9FOYD/S0WNezTOaoFilUpDJ7hwy0+99IP1PTAhiGPcTq3NdeHmf4DXuuuEzfOeDBBohEPV9HL4X/rV7nfquuGPNTifEGKw4+LWbdUbQ/VsmGwlDZMfY8aUgExlqFkwC+SRgdyL59DLbXjFG2Y5fLeuZcl+LTDTb33n/jPx86Dk17wyuKfyL2PCy2IGMldmElHb3m2WtYR/shFAHu2F/Xh8UZLIryNy7aY9qp2irrj3/93cjeb0k6VfIBHBtRPl4auIVdf1d/OP7ZfdhN7Jjlj95UPmM78r4h+9WRtOOLwWZSj78RAIkMAsBuzhU2dYAACAASURBVBOZ5XDuToAAY5QA9JiqRGzxZHZMTMBFZP+xt+RbvygPAfrunY/K5r2vp+IfRdjxn3eUh1jBTtib9wcFmewKMiZ26McwBMuFp+m3F60ezfulSf9CIoA2E9UD2TH/3y8fUvcSt63enorvsnb/mJjtfPxx8Y1b1yqf+4r7okLbcLl2fCnINIyOB5KAuwQ4f0X6Y88YpT9GYVh46+A2NSTlp/c/E0ZxLKNBAub6+tzVA+qG7qIr+uVnq0YTG3eP8f63rBz1Jyn9q2uWy6qt7swpZH7U48f8bDfiedqfhzlkXIxdHuLWYFfJw0IiYP9gD6lYVcxzB19T32OY9H3XS2870YeueupF5fPnr10hf/ngwzBxtlSWHV8KMi1h5Ekk4B4BdB7BJ/+hT18bCMYH7xmj9MWoVYuwNCPmIAjGGD/AsUoCH/EReOvP78t1/Vv8OHx54ZAMbX0p1hvawa0vyZdvLC/Tfd2ypwR2ufRw8Uc9hKU8/LB3MXZ5iJtL/UsafMV3fVSP/3vXI+o7DH8q5EmwrufLv92ms1zveWx3VFibKteOLwWZpvDxYBJwlwDnr0h/7Bmj9MeoFQvHD78h//zzNb4IEBRlvnPHBnnp9ZOtFMtz2iAw9sLr8rWb9fKfiMcPex+XbQfeiPTmFuX/4DeP++2g45Zhef6F19vwIrunuvijnoJMtlbECv44pCCT3b4mKcvtH+xh2bHz5ePqO+SzPxqQHS++Fel3VvAaSPL98LbDymdkkqZlbjU7vhRkwmrhLIcEHCBgfggy8yK9wWaM0hubZi07+e5puXHFVv8H+BdvWCUrNh9SN1D9xQNyyXX3q30Xzu+TX23YKR98eK7ZKnh8GwTOnD0n+Lftk1f2+ze4d67bJRNHT4V6k4vy7li7Sz5z1TJVD+rDxKio39UHBZnszyEDkSLJH2lx1k1BxtWeqnW/7R/srZdUeeb/+/Vj6nvkp/c/58z19+1fPqx8/vXDuyphJPjJji8FmQSDwapJIGoCmPfgYOlt2bzvmAw9c1Du3ri7raUesVTkx9WSkY+0XA5sgC2wCbbBRpcfjJHL0a/uO4YhPbjtBcFYZ3xpQ3DBzZO9EgL+3frRH57yVwH6x5uHZfuLf6xeKLdGRqD01juC1VOMGPr1n62RDWNTodzsohyUZ8pGPajP9QcFGQoycQoq7dZFQcb1Hqt5/+0f7M2XMPOMvUf/pL5LIOqPHXozlO+odq+NqM9fN3pE+fzpq5bJqRQtO2/Hl4LMzPbKLSSQaQKYUgITduGfdfMPurmZT+MrbIStsNmV6TAYo0xfYpEa/8JrJ+Q/79D/5uB6/feeDVLc/WrdG6e1zx2Wf7hptf+jfeH9W2U6RTcekQJLSeG4pot7puTvFqxScUAWIcSyVlPCbbEN5aJ8V/rI2cJKQYaCTNQ/5MIsn4LMbFc099sE7B/s9v5WPhe8Pw6uH3im7j1FmG0/6bKwKiJY3rFueyvIIjvHji8FmchQs2ASiJ/AxNSbctmS8hKouODn3rRaLlu8Ua78/Rb1LztuDJJ84p9+2AKbYBtsNE/YDh/y/GCM8hzd1n177/SH8ss1z6sVlHA9fP7a++WexyYESzU2ckOz98hJuXVwTD5xuR4+A6Hz0Z2H+QO+9ZC0dCbiePtaK44b9zUcR8T7no375OIfm+Fo96ny0rAqREtAIjqJggwFmUb6xbQcQ0Emoo4gx8XiPiDMx4HSW+pe+5NX9MtzEc93lpbr7uHtU8rnT125TN5O2cT3dnwpyITZ2lkWCSREAEMcMDbSCBtYgWPx+nF5euKPDf2YS7LzhI2w9UsLy6uGwJe8rR7DGCV0caS8WmQ8PL77aEVmxdVLW8+sKO55Vb71i4f8vuAHvZvktbc5xCXuZlAt0+nx8VLd/hj7/z0QOwwRffH1E3Gbnon6KMhQkEnyvqXZuinIZKJbSZWR9g/2do278vdPqPuCH/c9Xfd7qNm2nebjv79Ez5dz2/BYu/hCP9+OLwWZ0BGzQBKIlwD+OZ1/T1F1tJ+7Zrn0PrJXJo6ezFyHC5thO3xARwWf8vKvMGMU7zWRldowF8gPfxv+3CPIssC19Nmr9bX0qauWqSWzz50/nxU0ubATIuya5yrnAlq4YtuMuYB2v3xCblyxTc0VhL7vr69dIWufezF3onSYQaUgQ0EmzT8EbdsoyIR59btRlv2DvR2vsRIjysMckM/sP5653wf29dTI58d2lpTPn7iiT9449V47+CI5144vBZlIMLNQEoiHAG74jRjz1a7Vsnnv65nvaOGDmQ8DvmU9U4YxiudayFItWB0Hk1sHV+e5a334q/OMHqxcJvnS29YL0pb5iJcAVsvCvD64AcMzuFoWVs3CZ7Pvp/c/Iziej/oEKMhQkGnkR1lajqEgU/965t6ZBOwf7DOPaHzLtX1b1HcMpgtIyzURtR0/+M3jyudbVm1rHFSMR9rxpSATI3xWRQJhEzDDlCBg7Hjp7dx0tPDFiDK/eSQ9y9S1Ej/GqBVq+T1n7IXX5Ws3D/s/wH/426Jsi3g89/1bDskXrl+p6rxgnp6T5P0zZ/MLOaWejR9+Q77587V+7I0Ig1dsx34+GiNgBBmww49dV56mzcD/rD5M7BCzqH+UpaV8CjJZba3J2Y1rPYzH1J+m/e+czt8VnegrjRiDFSrTOmTbji8FmTBaO8sggQQIYHJYXNAY4pOHzBj7xmnzntf84UtZneiXMUrgwkhplW/9+X0x/1Lhuv3ywiEZ2vpSbD9Ixl8+Idcv2yoQZHT9g/LMZCmltPJr1tlz59XwMSzBiTjgtf+JCcF2PhoncO+mPf6PDHB07Qn/s/qgIJPVyNHuOAmgTwvj8cBTk871j+b74MblW8NAGEkZdnwpyESCmYWSQLQEMBHo9xbr1ZQwV4QtZuTlM3xDp4XVl7K23CtjFO01kJXSz53/SB546oB87uoB1ZYvuqJfrYa058iJRK5brDrw9VvW+DdoEInStvpAVmLbjp3HT76nYoBXPpongGXdIWThx33cT0y2jH9e8Rp33agPfmd5WXv4gO91Zsg03+55hjsE7B/srXqOvgICbhJ9VSN1RtWf/n7THjmR4uG/dnwpyLTawnkeCSRI4LmDr6kbGqymlMUJfBsVjOCbWX1p9NBrCRJvvmrGqHlmeTtj/7G35Fu/WO+LH9+989FUZLPhuvrFgzvkoiv1EtkX/1hPIps10TPr7cW+Icu6P67Yj7iZpys+h+lnO4JMsTgmA+PTUhyflIFi+Vkcn9YC93hJiuMlGRjUx00eK0l375gUjwX3T0r34KQ6rnisJAO95ljvGJyD/dgXqEO9N/WY8hp85ZClMFuQG2W58v1g+lJX/DWt1/aXgowhw1cSyBCBG1foCSKxXHSj4kZWj4OP6LgwKWaWHoxRlqIVrq3vvH9Gbh18Tj42T/9wu+QnD0hf8YBg9aM0XYdb9r0u37n9Ef/HJTLRMN6cj3gI2Ddk8dTKWtohcOe67YIsN8Tuoiv6ZPFDO9opzslzWxdkJqXQOaIEmYHepTKna0QKvSPS0bVUCkWvby3i84gUuoalQz098QzveyelqPZjnz6muzgmHZ3D0q2EF29Z+vFJKXSNSXF8TB2n901Kd++wdAzWX7q+Vv9OQcbJpt6W0y58P7jcn9rxpSDT1uXCk0kgfgIYAnHJdferG8KtDixf9/TEH5Wv+FGblRWXGKP4r4s01IgMk4e3vyxoq/iyvXD+fWrell0pnnAbItG9mybk4mtWeD8y+1V684dnOadJ1G3KviGLuj6W3x4BXN9GZEXs8MRnPpoj0KogAxGmY3BSuj2hBe9VNkxvWZBBBg3EmDkQWVS2jBFxSipLpjgIIQaxG1ZijjpWiTNLZQ4EG5VRo2PbAbGnc6kn7Azr9xRkmgs2j26ZQN6/H1zvT+34UpBp+VLhiSSQDIGDpbfVjeDcm1ZH8m970U/1nZbJcS+1t0ZaLm5+uout/WNU65+katu/8tPVyudDr76dDPQma20rRriJrMG7Gpvwt7UWz6zFqMmQznr4keOn5PtL9LxO+KL91+718tjOVyK5RsOP+bQ8f+hNmXfPE+o6g/3fuHWN7Dnyp1n95gGtE7BvyFoviWfGQQB/CAw9c1CWPLRDPjbvPvW6+tmDmZvfLA5W9epoWZAZ1NkwEE5qZcgMDI6obJfurhHphvjSW352Fw/KALJcIOh0mldPiBkMZr8EM2QwnEmLQLjX8YdGNfkdbTJkcM3zSQaNtAHME5nnh+v9qf39T0Emz62dvuWSwOZ9x9QX+mWLN4b/Yw8pukgJVv8S4UZG/9Okbmq8MdXd6t+lGl+oSPNt8kalkR+X37tro/J5y75jmYhpSzFS7A1X/LtnhrcEx8ObbfVemz3elIWx9PpfQD/9u4lYZi1GYTWk02fOypINO+Xjl/epNvpX1yyX3of3ysTUqfrXZ9zC23hjQtvQMy/78zbh338MvcIQLD7CJ2DfkIVfA0uMigBj1zrZVgWZSXN/gjlivGyZygwZzBdjhirp7zLESQ9dwpClMVk8iAyapeq9nh+mPMRJf+eiDP09rDJkunQmjcqUgbij7oPMd2bjr0aQge98kAAJVBJwsT+1faYgU9km+IkEUk8A/9DhQr7y91vq/+Br4se0EUXMTQ7SeNW/QRhf3YV/iIL/DJUnulM3P5gQz5v4LgoxBrZd+fvNyufVzxxKfXxgYCsx0v/4zRS01Jh3pFd7N4JFw9oINmpyQ8QH6dvTeox84HgT21lfEetefbPaiiCTtRiF0ZCe3l+Sr/x0SLVNXJPz73lSRg/+qf51Gbvwhn97jdAHsXX2HxG7D5+Qn97/nFwwX4tMX7xhpTy5NxtiaBhxjasM+4YsrnpZT/sEGLvWGbYqyBSRxaLmghnzRBP9GbGo+M5CRguEGTW/zIgMqGFMI+pPDpSBuWeQPaP/fJr2sm3K372YO0bNIVMckTkQZNQQKMxZM1xZTwN9qfnepSDTenvhmfkn4GJ/avtMQSb/7Zwe5owAlnLDhbxw+bP1f/g1cbNgbhqQ7osJ8ub0jsmMTJjeSV2f+kFpxl8HJtZTY7Zn/7Fn6mrmFb7CZ/iehUdLMcLNn/o3T09aqPnorBW1HcLX2jEpYEgZbipVJtO0qBtM719AiGjIcvGPV5MTBv4xxI2oEXKqto+SinvFzW3V42bGOWsxaqcdvX/mrPygd5PiDNZf7RqWNdsON3Q9xi286R8g+LGhY9vMpJSP7SzJN3++zvcTPv/lgw/bQcdzAwTQdvjIJgHGrvW4tSzI4M8INQxpTAo1MmR0/+pl9mK+GS/rE382YHUmDMM2ArWe5BdZwRCsIbaYLEI9ZAmZMkrUwdwyauUmCjKtR51nkkBtAi72p7bPFGRqtw/uIYFUEmgl+6Jh8UP9IwRBoCQmE8Nkv6ibGfw4T0CQyVr2Rcsx8v7ZQ0ftiyIebyWkqP2eaOYJYOUf3J5IEjy+nphiVpsILgnq/Wj36653vrUvazFq5+Ie3Kqz1BCnz/xoQHY2M2lvzMKb+oHiianB9432CciWMZMUw1/4zkc4BOwbsnBKZSlxEGDsWqfcqiCjxBj1hwS+A4N/NOjhSOUMXUzki6FKI1pk8b5XC4PeUKcu3ONgfjy90hKEGGSiYj/6RSOad/fiOGQJl/+AauW7EWUyQ6b19sIz80/Axf7U9pmCTP7bOT3MGYGW5iexfjzX+jFmJrxDFoYaZ40bGoybxphrf3UBPWQJ/zyhQ8FT/ftUxAoFMzMnatXVzPaszU/SUoz8OT70P3g+74DAghtFtT2wrb4gg7KCN66VGTL4169yksLWM2SyFqN2uoWT756Wy+8t+u3/C9evlPsen2x8WesYhbegCBN838j1t/LpF+XLN5aHZM27+3E58e7pdtDx3AAB+4YssItvU06AsWs9QK0KMo30WWk9hoJM6+2FZ+afgIv9qe0zBZn8t3N6mDMCba3gM4tgopaEVOOu8SNeLzGJDBmV9msEGfNjUo3DxsoEWIHAE2XqDodpXazJ2go+rcTIDD1CJ40x7uW5PvS/fUipvr7PDEfSq0Qga2aGIHOsfHz94UnV4tG6IJO1GIXRLYwfPi7/dlt5SM+3fvGQbJxtZaWYhbdy+2h8yBKWmv/vX5WHZH3t5mF57uBrYSBjGQEC9g1ZYBffppwAY9d6gCjItM6OZ5JAHgm42J/aPlOQyWPLpk+5JnDu/EdyyXX3q3/nt+4/3tC8FY3+a2SWjNTLPHopv1aGDEQbiDDIhsGPPZ3Joecu8bM6ZhF+GrUHx+HHITouDJvAMnlZeEQZo2bYxXVsFmMUVjtCrB/c9oJ/TV4w7z414XatyX3jF97KcybMmWUVtD1HTsitQ8/LRVf2q2vuU1ctkz+M7JUzZ8+FhYvlBAjYN2SBXXybcgKMXesBoiDTOjueSQJ5JOBif2r7TEEmjy2bPuWewI0rtqofTIvXj4cqyMT1A76ZeuAjOq6F92/NVFwZo0yFq21jsTT0L9c8Lxd6KxNhbpk71u6UiaMnM3GN2sOTrvrDk3L85Httc2EBtQnYN2S1j+SetBFg7FqPCAWZ1tnxTBLIIwEX+1PbZwoyeWzZ9Cn3BDB8ABcz5nfIyg++ZkQYcyx8+9JCPYfF6KFsDZlgjHJ/GVZ18MjxUxUrMP3DTatl1dMvplaU4fCkqmGMZaN9QxZLpawkFAKMXesYKci0zo5nkkAeCbjYn9o+U5DJY8umT7kngJE7ly15VIkyvY/sTe2PPSOstPoK39BpfX/Jo5KR0Up+22OMfBTOvUHsn5p4Rb7atVq1X7ThyxZvlM17X0/NtcrhSck3S/uGLHmLaEGjBBi7RknNPI6CzEwm3EICLhNwsT+1faYg4/IVQN8zTWBi6k31Y+9z1yxP1Q+9VsUX+7zNe14T+IZOC75m8cEYZTFq4dmMuVf6ivvks1cPqHb88cv7ZOHyZ2VXM8tkhzgfk7nGODwpvBi3U5J9Q9ZOWTw3XgKMXeu8Kci0zo5nkkAeCbjYn9o+U5DJY8umT84Q+PXDu9QPPQyL2JHwjzzzYy+MV/gCn9Bh/eaRXZmOJ2OU6fCFYvxbf35fzJxCaNN/c90Dcvej+2Ri6lSsGTMcnhRKOEMrxL4hC61gFhQ5AcaudcQUZFpnxzNJII8EXOxPbZ8pyOSxZdMnZwhg1aH59xR9USZNQyJaFWaQGWPEmMvvLWZmZaVajY4xqkXGve37j70p/3H7BnW94sv4mz9fJxvGjkYuynB4Ujrbmn1Dlk4raVU1AoxdNSqNbaMg0xgnHkUCeSfwvcV66gW8uvawv0MoyLjWAuhv7gj85YMPfVEGQ3ww70oWJ/qFzbDdDFOC0ATf8vBgjPIQxXB8gED38PaX5Ys3rPSFmXm/e0K2HXgjEmGGw5PCiVsUpdg3ZFHUwTKjIcDYtc6Vgkzr7HgmCeSJgMv9qO07BZk8tWz64iwB/MjD0B5c4HhiZSIsF40hCq1mqsR13lMTf5S71u/yV1OC/fAFPuXpwRjlKZrt+wKRbsmGnfKJK/rUNfvpq5bJbau3C7JZwrj2ODyp/RhFXYJ9QxZ1fSw/PAKMXessKci0zo5nkkCeCLjcj9q+U5DJU8umL84TwCSyZvUlXOx4fuWnq+V7d22UK3+/WX56/3Ny88rRRJ+wAbbAJthm7MQrbM/qBL6NNj7GqFFSbhxXeusdwdA8cx38/Y2DsvzJg7J/arolYYbDk7LTbhBzPrJJgLFrPW4UZFpnxzNJIE8EXO5Hbd8pyOSpZdMXEhBRy0OPHnpNFt6/VS657n7/hx4u/jQ+L/nJA8pW2JyzpJia7RF+MkY18Ti5A+3hG7eu8a/R79z+iDw+XmpKlOHwpGw1HfuGLFvWu20tY9d6/CnItM6OZ5JAngi43I/avlOQyVPLpi8kYBE4d/4jOVh6W7bsOyarnzkkd2/cLbgZSvIJG2ALbDr06tu5G5pkhWDWj1HECB19OzFmjGYNWyQHnDt/Xh546oBc/OMVSpi5YH6fXNf3tOx48a26wgyHJ0USjsgLtW/IIq+QFYRGgLFrHaURZMAw6YzduOqHr3jCdz5IgAQ0AZf7Udt3CjK8KkiABEggZwTsjj5n7uXenZPvnpafDW6TC+bdp27iL75mhfxqw26ZOFq5TDaHJ2W7KfA6zW78GLvWY3fvpj1+JiA4uvSE73yQAAloAi73o7bvFGR4VZAACZBAzgjYHX3O3HPGnRdePSFmWUjEtOOWB2XNtsMqW4bDk7LfDHidZjeGjF3rsZt+7wPpf2KirSzOdjJAkzoXPsN3PkiABDQBl/tR23cKMrwqSIAESCBnBOyOPmfuOeUO5ht6fPdR+fLCwar/JH/t5mF57uBrTjHJi7O8TrMbScYuu7Gj5SRAAukg4HI/avtOQSYdbZJWkAAJkEBoBOyOPrSCWVBiBE5/eFbNAfWpK5cpYeZTVy2TP4zslTNnzyVmEytuj8D44TfaK4BnJ0aAfWxi6FkxCZBATgi43I/avlOQyUmjphskQAIkYAjYHb3ZztfsEzh+8j0lyOCVDxIggWQIsI9NhjtrJQESyA8Bl/tR23cKMvlp1/SEBEiABBQBu6MnlnwRYHzzFU96kz0CvAazFzNaTAIkkC4CLvejtu8UZNLVNmkNCZAACbRNwO7o2y6QBaSKAOObqnDQGAcJ8Bp0MOh0mQRIIFQCLvejtu8UZEJtWiyMBEiABJInYHf0yVtEC8IkwPiGSTPGso7vlks710rfcVPnlCzonzIf+JohArwGMxQsmkoCJJBKAi73o7bvFGRS2URpFAmQAAm0TsDu6FsviWemkQDjm8aoNGDT8d2yoH+zXLpot2gZhoJMA9RSeQivwVSGhUaRAAlkiIDL/ajtOwWZDDVcmkoCJEACjRCwO/pGzuEx2SHA+GYnVhWWQpDZdEqmNq2VBXuxh4JMBZ8MfeA1mKFg0VQSIIFUEnC5H7V9pyCTyiZKo0iABEigdQJ2R996STwzjQQY3zRGpQGbPEFG5JT0LdosWyjINAAtnYfwGkxnXGgVCZBAdgi43I/avlOQyU67paUkQAIk0BABu6Nv6CQelBkCjG9mQlVpqC/IiIg3fIlzyFQiysonXoNZiRTtJAESSCsBl/tR23cKMmltpbSLBEiABFokYHf0LRbD01JKgPFNaWBmMysoyGDA0qa1MoeT+s5GLZX7eQ2mMiw0igRIIEMEXO5Hbd8pyGSo4dJUEiABEmiEgN3RN3IOj8kOAcY3O7GipfkkwGswn3GlVyRAAvERcLkftX2nIBNfu2NNJEACJBALAbujj6VSVhIbAcY3NtSsiASqEuA1WBULN5IACZBAwwRc7kdt3ynINNxseCAJkAAJZIOA3dFnw2pa2SgBxrdRUuk+bv3YS+k2kNbVJMBrsCYa7iABEiCBhgi43I/avlOQaajJ8CASIAESyA4Bu6PPjuW0tBECjG8jlNJ/DOOY/hjVspCxq0WG20mABEigMQIu96O27xRkGmszPIoESIAEMkPA7ugzYzgNbYgA49sQptQfxDimPkQ1DWTsaqLhDhIgARJoiIDL/ajtOwWZhpoMDyIBEiCB7BCwO/rsWE5LGyHA+DZCKf3HMI7pj1EtC7+3+FFB/PjMPwPEmg8SIIHwCbj8HWj7TkEm/PbFEkmABEggUQJ2R5+oMaw8dAKMb+hIEymQcUwEOyslgaYI8DptChcPJoGGCbh8bdm+U5BpuNnwQBIgARLIBgG7o8+G1bSyUQKMb6Ok0n0c45ju+NA6EgABXqdsByQQDQGXry3bdwoy0bQxlkoCJEACiRGwO/rEDGHFkRBgfCPBGnuhjGPsyFkhCTRNgNdp08h4Agk0RMDla8v2nYJMQ02GB5EACZBAdgjYHX12LKeljRBgfBuhlP5jGMf0x4gWkgCvU7YBEoiGgMvXlu07BZlo2hhLJQESIIHECNgdfWKGsOJICDC+kWCNvVDGMXbkrJAEmibA67RpZDyBBBoi4PK1ZftOQaahJsODSIAESCA7BOyOPjuW09JGCDC+jVBK/zGMY/pjRAtJgNcp2wAJREPA5WvL9p2CTDRtjKWSAAmQQGIE7I4+MUNYcSQEGN9IsMZeKOMYO3JWSAJNE+B12jQynkACDRFw+dqyfacg01CT4UEkQAIkkB0CdkefHctpaSMEGN9GKKX/GMYx/TGihSTA65RtgASiIeDytWX7TkEmmjbGUkmABEggMQJ2R5+YIaw4EgKMbyRYYy+UcYwdOSskgaYJ8DptGhlPIIGGCLh8bdm+U5BpqMnwIBIgARLIDgG7o8+O5bS0EQKMbyOU0n8M45j+GNFCEuB1yjZAAtEQcPnasn2nIBNNG2OpJEACJJAYAbujT8wQVhwJAcY3EqyxF8o4xo6cFZJA0wR4nTaNjCeQQEMEXL62bN8pyDTUZHgQCZAACWSHgN3Rp87y0qiMlrRVpdFRGTXPkrcxaHBpSHp6RmXGHpQx6pVRKkmpVNLlDA3JkLdd1DGB8k09eDX1Dw3573H80JBdV0kqbPTLKPk2lUZRpymwehm+j/75xq6SNGJnEEnq4xs0lu9rEmAca6LhDhJIDQFep6kJBQ3JGQGXry3bdwoyOWvcdIcESIAE7I4+bUQgYBTmFmSoVJKhwlwp9PRIT6Egc3t8JUWGegpSKBSkMHeuzJ07V7/HZzx7hqRU8spQZen9PSinZ0iVC59LQwWZWyiI3o59+llAnUMQQlBGj0CCGVL7CjJ3rne8L8yMSg9sHR3VNvUMyaiqE+ehklHPBwg7Ja/OHnU8PquHZ6vyE37NhQ+ePUOjsgN2Gh+Vv9pPtQ12Wo+0x9cylx9rEGAca4DhZhJIEQFepykKBk3JFQGXry3bdwoyuWradIYESIAEROyOPnVMvAwZJZgoQURERnu0KGGyYSBujPZo4WZUZ8AgC0Y/tUd4r0WVIshFxgAAIABJREFUStHFZKuo8iGgDJXFmJ4hCCtakBlVr6NKDMI5SigqeMKKr4NAkJmrhB0tDkEsgUikBRkt+hhBqUcdqwWmuWWByRN+hoZ6vHPLAhM0KG3nqM7yGSpIAWIQMn48O/34edxSH1/fYL6pR4BxrEeH+0ggHQR4naYjDrQifwRcvrZs3ynI5K990yMSIAHHCdgdfdpwGBEDmSYQSMxwnqHg8CEpCyEms6VHZZd4GS1GFIHYARFlVIsYKuPGyyoxgozeNiqjKmNmqCzIGIEEWTWqPJ2Ng8yUcraOzpDxRZYCxB1kuZQFGZVtA0EJ5SB7x2TnmIwfX5BBxk5ZHIKw4wsyyORBlpCfIaPFG1W2F0DYD7Em7fFNW3tLqz2MY1ojQ7tIoEyA12mZBd+RQJgEXL62bN8pyITZslgWCZAACaSAgN3Rp8CkGSaUVEaKzoDRgosenqQ1DD2USYsT5WySYGaKGW40BJHFCCoQNApaEEGFQUFGlQvRpFAWZFRWTqFHDzWy53bxM2RMVg4yVjDUSAs/KlPH1KFEFIg4nrCDY5R44hUSEGQw3ArCE549QUFGG+hl42gfZmTIeBSzEN8ZAeeGGQQYxxlIuIEEUkeA12nqQkKDckLA5WvL9p2CTE4aNd0gARIgAUPA7ujN9vS8IuuknOmCrA+VoaLVGGWmEjy8jBaTQVM5d4ueQ0ZlmShxw8suUQKL9tQXZCCkBOafKQ9Z0tt7PHGkYLJXzBwzaiSVd64RXfwMFk+cMcKLypBR44/UPDY6myUgyEAoKkGIKc85g/luMBewshN1I0unZ1QJPxgShc/BDBkTv/TH11jK13oEGMd6dLiPBNJBgNdpOuJAK/JHwOVry/adgkz+2jc9IgEScJyA3dGnDocRLwST4Oq5Y9RkusiaCRirhQo9HEmLMsioKQ8VQgaNGvKEoUdK3Cjp+WIqhiwFMlrMakze3CyoG9k5WqyB+KGHT6kJhc1kupjLBeWryX69yXi9iYWDk/iWJyX2VnyCCFRhRzl7Rme+DKlsGGhQRpDBcCcjPpkMGlMGsOA8CDapj28ghnxbmwDjWJsN95BAWgjwOk1LJGhH3gi4fG3ZvlOQyVvrpj8kQALOE7A7+rQBwdCfHqxahIyQAlYk8ibwtTJCdIaLXnlJvUd2CuaLgTgxhPMw7CeQ/WLee5k2WuionPBXCzDepL6qDCyB7WWtVMmQgWijhil5w5O0QOKJNJh8FxkyauJgb5UoiE1eFo3RdHx/vQmFlZAEJ5AxA99VJlBtO+34pT2+tr38XJ0A41idC7eSQJoIPHvg1TSZQ1tIIDcEXP4OtH2nIJObZk1HSIAESEATsDt6cskXAcY3H/FkHPMRR3pBAiRAAiTQPAGXvwNt3ynINN9+eAYJkAAJpJqA3dGn2lga1zQBxrdpZKk8gXFMZVhoFAmQAAmQQAwEXP4OtH2nIBNDg2MVJEACJBAnAbujj7Nu1hU9AcY3esZx1MA4xkGZdZAACZAACaSRgMvfgbbvFGTS2EJpEwmQAAm0QcDu6NsoiqemkADj23xQvrf4UTUZMtil5Qmb+CABEkgngS39a6XvuGfb3s1y6aZT6TSUVpFARgm4fC9j+05BJqONmGaTAAmQQC0Cdkdf67jktwfXVGrQGm+lJLUsdkmvijQ6pJePViVggl41m65e7UgfZ63eNKon0xWsoDTqlYFXZU7gPN8kTOIbqMPfnsyb7MQ3GT7VaiWzalS4jQRIoCaB47vl0v4pETklfYs2y5aaB3IHCZBAKwRc/l62facg00oL4jkkQAIkkGICdkefPlNLgpWHCli2Wi+i1KCJo2qp6LlmNaWCWZlIiyUlrLqEpayxRDVWR/KOw6pGZvlotdS1Wd1JrXqkV0kyS137qzl55xjhZ6hQELNqUoPGRnZY+uMbmestF0xmLaPjiSTgLAFkySzYtFkWMDvG2TZAx6Mj4PL3su07BZno2hlLJgESIIFECNgdfSJG1Kt0dEgtFd1TaEWQKeiloisyZXQGjBJTekbFz4rBMVgiu6csyIgg26UgBSxZXdICT8/QqBhb1DLWQ3op6kJPj7+stlrKujCkyqvnWhz7Uh/fOCA0WQeZNQmMh5MACYggS6aT2TFsCiQQBQGXv5dt3ynIRNHCWCYJkAAJJEjA7ugTNKVO1SUZakmQmSvIkJk7t+BlwMwVkwFjBBkIMGr/3Lkyt2c0IMjoOpW4ojJghmQIwswohjmNKrFFlVGAEDNXi0Y9EGFwHjNk6gQz9buycU2kHiMNJAHHCEzJgkW7BQOX+CABEgiXgMvfy7bvFGTCbVssjQRIgAQSJ2B39IkbVNWAVgUZZMgMSWFuj6jRTqM9Mtd7HxRk1FAo7KsQZETUkKWhISkUhmRUkCGDIUsY3qSzdVSGTM+Q6CFMo0o0QjYNBZmqQczMxmxcE5nBSUNJwBECFGQcCTTdTICAy9/Ltu8UZBJogKySBEiABKIkYHf0UdbVetktCDKlshCjM1kwD03Bn4cmKMiYLJiZggzml0E5yIDR880MIUMmKMiYIUuYNMabOJiCTOuRTsOZ2bgm0kCKNpAACZAACZBA9ARc/l62facgE317Yw0kQAIkECsBu6OPtfKGK6sUZLTAUn+OFv8YrKTUg2FLemgS5oDBXDFGkEEWzNBoebWk4BwyejgThj1hImC9etLQEIYueRMDD5lyzbwzKEdn0nBS34aDm7oDs3FNpA4bDSIBEiABEiCBSAi4/L1s+05BJpImxkJJgARIIDkCdkefnCXN1KxXXurRa09XPVGtzDQ0pFZaKmDyXogwWFkJ8714WS3IiDEPJdB4os2Qt3m0B2INzjFz0AReUaa3JLb/agSagjdEyhSe4Gs245sgMBEhs2T5s3YSyCqBx3cfzarptJsEUk3A5e9l23cKMqluqjSOBEiABJonYHf0zZfAM9JMgPFtPjpk1jwznkECJEAxl22ABKIi4PL3su07BZmoWhnLJQESIIGECNgdfUJmsNqICDC+zYMls+aZ8QwSIAEKMmwDJBAVAZe/l23fKchE1cpYLgmQAAkkRMDu6BMyg9VGRIDxbR4smTXPjGeQAAlQkGEbIIGoCLj8vWz7TkEmqlbGckmABEggIQJ2R5+QGaw2IgKMb/Ngyax5ZjyDBEiAggzbAAlERcDl72XbdwoyUbUylksCJEACCRGwO/qEzGC1ERFgfJsHS2bNM+MZJEACFGTYBkggKgIufy/bvlOQiaqVsVwSIAESSIiA3dEnZMas1ZawTFKzj1J5OWssRz06Oiqj3pLVqigsia3Wpw4eV1IrMtlVlUZ7pGfGWtbmPFHLXavyUcfoqJTtNceU1HaUWwraIGa/2iNDPVhWu0cqqyqp7T4CZbdeOcq20/6clfjadif5mcySpM+6SSC7BNh3ZDd2tDzdBFy+tmzfKciku63SOhIgARJomoDd0TddQNQnjA5JQS1HPVfmzu2ROitdW5aMqiWv5waWrO7p6ZGeniFVhloCe6hHeuYWpGeoRwrecXPn6mWxg4XpJbELyo7gUttmO+zq6ZkrhQJee9TS2mZFbRyjy8Z2fZyqA/X1DMkOsx92YIltryzUM6pUnZKMquW0C6rsISzlXSjIXByPuiqVm6DZ6n3q4zvD4uQ3kFnyMaAFJJBFAuw7shg12pwFAi5fW7bvFGSy0GJpIwmQAAk0QcDu6Js4NZ5DkeWiatICS2EWAaJsFI4vyNCoyUAJvKoslYLM7UEmS+X2UQgrpg5kovQUZG7BE4JKng04zyujoAQSI7R44svcuRIUZCCcmDKViFPwxBXYBkFmSItOhYIWnSDuBIUhdQwyZzw1Stvo2V52uOq71Me3qtXJbiSzZPmzdhLIKgH2HVmNHO1OOwGXry3bdwoyaW+ttI8ESIAEmiRgd/RNnh7f4aM9UoDA4o/bma3qcoYMskl0lkpZ6FDCSM+oQNxQ+5GF43024sloD7JYdGYMBBLzVGVBcfEEGxw/1DNXZatA4MF5QUEmmH2jhBaIKyh3qCQqUwdCTAGZOxBmvGwbT/SBl7ARoo6xT9lhMn96hqoOsTJ0MhNfY3AKXsksBUGgCSSQQQLsOzIYNJqcCQIuX1u27xRkMtFkaSQJkAAJNE7A7ugbPzO+I0sYUqSG9DSsxkDG8DJktMgxCnNHe/Swp0CGjBI7sBP7LEEGgktwXpiK90Z4gbBSgMASFGysDJnRUT1cCZk2EJYgtsAnCDIYNuVl4ejMmHK2jR6OVJIhlTnjiUnItoHApIZfcchSFK0wrGti+r0PpP+JCfnto+NOPeEzfOejTOD4yffkjnXb5YXXTpQ38l3uCITVd+QODB0igTYJuHxt2b5TkGmzMfF0EiABEkgbAbujT5t9WkRpJjPG88DLNoHWYoYJaVFH76/MkPHEFEuQUdkrEEBUBguEEk8Y8uZuUZkwXqaLypBRwktBzfFismzUcCMzrMkXZAIZMp4gYwQWI+70DJkJh+GAHtqkhk6piYkhFGEumcDwqhqBS318a9id5OawmN27aY+gLBef//u7kSRDmJq6T394Vn63cXdFG8BnbOcjfwTC6jvyR4YekUB7BFy+tmzfKci015Z4NgmQAAmkjoDd0afNQCWcBIcLqawSzOtSf6iOFmGG1OpHah4YVQYm8C3P/6LmkMGKRoF5ZvT8LOVMHF0/5pDBXDN6rhczHEkNaVJDh3SGjBJRkClj5pwx88yolZNwbkGtoKTnncH8NhCL9ITCOEfZ6YlCPZhXRvmI4VBa5FHDmrxJjjEMajYGiGXa45u29hYmM2TGgD+eN68cdeJp/F20WuWkpTG8sdj00UciI+NH5UsLB/02YNjg9csLB+Xx3UcFx/GRHwKILR8kQALhE3D52rJ9pyATfvtiiSRAAiSQKAG7o0/UmIYrN/O0lIUT+1QlliAzBasmmUl4A1klSmgxyorJovFEGwgl+qGHC5k5YPCqs2R6BLKOmgcGQsqQtkeJKmqi3spJfFEN7BnyMmj05L163pgNEFt6IAoh4wXlehk99mpP3pAqY9eoEnL08cbaaq/ZjG81T+LbFhYzI8hAjJk8Nu3EE76CH3x39fHCqyfke4sf9YWYr9+yRtZsO6zij9eOWx7091225FEOY8pRQwmr78gRErpCAqEQcPnasn2nIBNKk2IhJEACJJAeAnZHnx7LaEkYBBjf5imGxYyCTPPss3zGyXdPyy2rtskF8+5TgsvF16yQX2/YIxNHT1WIcfiM7diPtobjcR7O5yPbBMLqO7JNgdaTQPgEXL62bN8pyITfvlgiCZAACSRKwO7oEzWGlYdOgPFtHmlYzCjINM8+i2ecPXdeHnhqUv7qmuVaYJnfJz/p3yo7XnyrQoixs6SwH8ddML9PnYfzUc658+eziIE2c4go2wAJREYgrO/lyAyMsGDbdwoyEcJm0SRAAiSQBAG7o0/CBtYZHQHGt3m2YTGjINM8+6ydMXroNfmnW8tDkL5z+yPy+HiprhBjCzM4Hueh3eH5jVvXCMrlI3sEwuo7suc5LSaBaAm4fG3ZvlOQibatsXQSIAESiJ2A3dHHbgArjJQA49s83rCYUZBpnn1Wzii9+WeZf0/RF1G+tHBIVmw+JPunWpsrCOctf/Kg/P2N5UmAL7+3KKW33skKEtrJDBm2ARKIjEBY38uRGRhhwbbvFGQihM2iSYAESCAJAnZHn4QNrDM6Aoxv82zDYkZBpnn2aT/jLx98KEse2iGfuEIPM/r0VcvkF8M7ZO+Rk01lxdhZMubzniMn5LbV2wXloh2iHtSHevlIP4Gw+o70e0oLSSBeAi5fW7bvFGTibXusjQRIgAQiJ2B39JFXyApiJcD4No87LGYUZJpnn9Yzzn/0kWx4/mX5wg0r/ayYeXc/IdsOvBGKEGMEGfOKclE+2iKeqBf1ww4+0ksgrL4jvR7SMhJIhoDL15btOwWZZNogayUBEiCByAjYHX1kFbHgRAgwvs1jD4sZBZnm2afxjImpN+U/bt/giyPfXLRONowdjUSIMYKMeUU93/z5Or9u2LH/2JtpxESbOGSJbYAEIiMQ1vdyZAZGWLDtOwWZCGGzaBIgARJIgoDd0SdhA+uMjgDj2zzbsJhRkGmefZrOeHP6L3Lj8q2+GHLJdffLPRv3tTxPjBFZmn2dmDql6kX9aJt4wq63/vx+mnA5b8uJd0+r2Lz2Nuf9cb4xEEDoBML6Xg7dsBgKtH2nIBMDdFZBAiRAAnESsDv6OOtmXdETYHybZxwWMwoyzbNPwxlnzp6T+4r75DM/GlA/sD9xeb/cuGKb7Hrp7ViyYmoJNqgfdnz8cj1/zWevHpC+4j6BvXwkS+BP03+Rr/+svNrW6yfeTdYg1k4COSMQ1vdyFrHYvlOQyWIUaTMJkAAJ1CFgd/R1DuWuDBJgfJsPWljMKMg0zz7JMzA9y5aJV+SrXav9TJTLljwmm/e+nqgQYws0sOeyxRt9G2HvUxOvCKeXSab1/PHEuxVtBv3H3y1YJUeOn0rGINZKAjkkENb3chbR2L5TkMliFGkzCZAACdQhYHf0dQ7lrgwSYHybD1pYzCjINM8+qTPw4/kHvZt8keMfblotg1tfSpUQYwszq55+UWAn2iuesJ8iQLwtCMuSf3mhXqr8n25do8Q7zDGEePzNdffLgdJb8RrE2kggpwTC+l7OIh7bdwoyWYwibSYBEiCBOgTsjr7OodyVQQKMb/NBC4sZBZnm2cd9xjvvn5GeB8fkwvlmGNByuWPtLpk4Gs4y1raIEvZn2Al7P3v1ciUCwA/4A7/4iJbA0TemVSYM+ot/WbRedrz4lhLwxl8+Id++/WEVj89dPSC7Xj4erSEsnQQcIBDW93IWUdm+U5DJYhRpMwmQAAnUIWB39HUO5a4MEmB8mw9aq8zOna9ckjgUQWa8JMVj07FlahTH26vr5pWj6ocofE/6YccjaA/2DW8bl89freeJ+di8++Q7tz8sdz+yVwaKZebF8UkZKNZ4jpd0XIpjUhicbChOxcGRho9tRrwZPfgnueoPW+SCefcp/pgAeHjbIanHIMiD75sj8NLrJ+X/XP+AYv2tXzw0Y36hPUdOyPeXPKb2f/LKftm6v9RcBTyaBEiggkCr38sVhWT0g+07BZmMBpJmkwAJkEAtAnZHX+s4bs8mAca3+bi1ymzl0wfUD7C71m9XlbYlyIyPSYc3FGVO57B0K6GkJAODYzLQlGjS4DnFYH0jTdZRFnHSJMjY8TAtARkL/3ZbeSnpz9+wSq697ynpHhyT7sER6egckQFPBFMCSu+IFHpHpKMLQ4OG1Xt8LgxCkClJt9quhw2h7einiZlhU5KB3mGZ0zUiha6l0tHbmIDTjCiDYzfueEUuve0hz4alys/xw9FkaGzpXyt9pui9m+XSTW7MmXKw9Lb89bUrFOP/+OXDsvvlE1UFU2Qvzbv7CXUcMpce23XENEG+kgAJNEmg1e/lJqtJ5eG27xRkUhkmGkUCJEACrROwO/rWS+KZaSTA+DYflVaZQYjBuRdd0a9ev3unHrYAkaLZH9YDvUtlTtdYRdZFsQixYLgiw6LoZW/4mS0qo6MkyOzAtmrnVLXFz8SZlELnUulQYoMRExp/TZMgY8eje/VzMu+eoooN4vSF61fIpfD1N1pwUSILRJOAIKNYjU9KoQvbl0phcEwKXRCsdHZMcRDbh6Xbz6JBdg0YGkHGE2JQT++YdPfq+ClxRnHeKYihjl9JZeOojCjEcfxgnX1aDKp27v5dk3LDmp3yhetX+r7C75Pvnm7+Yqh3xvHdcmn/lIickr5Fm2VLvWNzsm9i6k35q2v08LD/uutRQSZM1evJE/SwZPm1fU+rOHxs3lJZ/eyhnJCgGyQQL4FWv5fjtTKa2mzfKchEw5mlkgAJkEBiBOyOPjFDWHEkBBjf5rF+b/Gj/g9Z8Gv0+fHL9XARc7xZnrgVQWayOKLq7VA//iGIVP6wV1kyaqjMmAwoUUBndWiBYKl0dEEksM/RwgL26eeIl3kTEFw80Udn5AS2NzhsyggyhkGSr7XiAZuQsfD8ob1KaCnzKHPRGTLg52XFYBjT4LASqorgjqyY3klZrPZDbIGoY8QcCDLlLJvJ8Unp9rJsIOwgphB/ugchukyrOpQA5sW8UCxvQ/219kEIqLf/+UNvygXe3DhRxOHeTXsEWTILNm2WBV52zNP7Sw1fL7ZNuO7S/ECmEZYah93//atNsvdIY/MM7Z+aluB1gSXV+SABEmiOAK47Vx+27xRkXG0J9JsESCC3BOyOPreOOuoY4xtf4MsZGX2Cf8O/e+cj6sdbS4IMBBD1Q97LzCjiM4YVmcwLs788lAYiihJkgpk19jl1hBUMz1EZOEVvbpQ6x9bKCjA/PNMwh4wdj+7VozI/kCHz2Sv75IvXr/TEKSPGeK+9XnZScA4ZNaSpPJ+MnttHZ8NgDpkBf7iTJcgojsha8p6DENsCcYQQ06WFNSUODU5KNwQ1DE2rtw/lVtm/qGtYfvjgpPxtIEMGfoeeIYNLC1kyneFkx6S5r3r+hdflU1ctU9fzD39bbGnS5zvW7PTFqsUP7eAy5fF1zawpBwTS3D9Ejdf2nYJM1MRZPgmQAAnETMDu6GOuntVFTIDxjRhwoPhVzxxQQsySh3aore3NIWNEEWS1eFkSlrjiZ0cEttcXZOpkyKjsjIBI0IIYA5EmTYKMHQ8TKmQ6VMwhc9Mauf2+QTW/i55HJjhPjxZcdAaMGdo0HJhnBvtNhoyeHwbXHOaK6TaT/qohTNgWFH2QeeNl0Xjx09lQY1ogamQfYmSd+5UbB+VTnXp+E9hx6W3rJao5ZDTPKVmwaLdg4FK7j7T2Vc8eeFUwMS/sm3/PkzJx9FTdYUq1xEps/92j+/yJl29ZtU3Of1Q5EXi7DHk+CeSVQFr7hzh4275TkImDOusgARIggRgJ2B19jFWzqhgIML4xQPaqsFe0aUeQMUOPED/8uNdDaPSPf5NdYY7p6IVAoMWUGYKMEQOCGRlVxBZTlqpPzW1iBKHmhi2lSZCx4xFsCdj34MaiXOgNSfsYXq9e662yZOZ0ge9etovJblGv3jbFEe+HpYAhTcFjIHD1Tno/3PUxGELmH6MmUTZx9SYGVsfjWD0cSv+wr7cP9nn7l+yVK3//sCg/OpcKVll6cNsLMayylG9BZvO+Y2KGHv7oD08J5oSpJ7g0sq+/eMAv87r+LXL23Plg0+R7EiCBKgRcvpexfacgU6WBcBMJkAAJZJmA3dFn2RfaPpMA4zuTSVxb2hFkGvlhl8Zj0iTIzBZnzH/yr4+8LPPv0MPCcK1g2WiIGR2/2V8hptTOkNHDxGbOQ4M5fIyY5YkstTJkqghkjcZ239GTcsfanfKZH+m5TTA3zi/XPC/vvH9mNvdTtz9tfdWmXUfUXEOw6/plWwVzwTQal9mOW/X0i37WTefdj8vpD8+mLh40iATSRCBt/UOcbGzfKcjESZ91kQAJkEAMBOyOPoYqWUWMBBjfGGFbVVGQsYCk+OOR46fkB72b/Dk+/uGm1YIfzbP9sE5yP+ybe9Nq32bYDz+y+khTX7Xh+Zf9oUULV2wLVYwxbWbd6BFfSMOExu+e/jCroaPdJBA5gTT1D5E7a1Vg+05BxgLEjyRAAiSQdQJ2R591f2h/JQHGt5JHnJ8oyMRJu/26MJ3HUxOvyFe7yiLHZYs3yua9r6dKmNm85zX53l0bfSHmH28eFqxulPXpSNLSVw1vO6TmgoI9P1vV/JL1RnBp5PWxna/IX197v4rlv/esj2bi5fYvDZZAAokTSEv/kAQI23cKMklEgXWSAAmQQIQE7I4+wqpYdAIEGN8EoHtVUpBJjn07NZ85e076ivv8JY4xh8jC5c/KrpfeTlSYQf2ww8xpgiWY+5+YkA/P5mMOkkT7quO71dLdDzx1wBe6OpftCMS7JN2Blbf89/5ws5IMFCeliOXpB6ssJ+8fFxz2pOcUWrVul3z+ugdUvV//2YPyxqn32mm+PJcEckkg0f4hYaK27xRkEg4IqycBEiCBsAnYHX3Y5bO8ZAkwvsnxpyCTHPswan7rz+/LjSu2+j/Q/+a6B+TuR/eFMrFrI9kT5hhMJIt6UT+uZzxhF+zL0yOpvgpzCV3qcTV81Svm/DETM49jHiBMwlwSrG6GibU7ugIrZXmTKxeKY2qSZ7VkeRURBpNnF7y5hQbUZNx60u7/Htgonw7Y8I01r+YptPSFBNomkFT/0LbhIRRg+05BJgSoLIIESIAE0kTA7ujTZBttaZ8A49s+w1ZLoCDTKrl0nbf/2JvyH7dv8MWQb/58nWwYOxrInghmPYT7/qGxo4L6cB3j+Z07NgjsyeMjmb7qlPT1r5UvBMSQb97qCV9KkBlTWS/dSoRZqpYkV6ucFSdFbevSS6RrkUbHyMTKvHYM6hXLikVvWXQsiY4Vt1QZEH3GZKA4Jv/TuVouuWmNivOFP1ohL75+Io9hpk8k0BKBZPqHlkwN/STbdwoyoSNmgSRAAiSQLAG7o0/WGtYeNgHGN2yijZdHQaZxVmk/8vxHH8nD21+WL96w0hdH5v3uCdl24I1IhJlnJ48Lysf1iyfqRf1ZnyemXpyT6KvAc8nKMucv/OopUZkrakUsLZzoTCVkyGDlrDG1xHyha1jmdA1LoWupaMHFW9LcW86821sCHUKNEWQmx8eU+NLdOyID43pok8qy6RqRwuCIKvfm59+Wf7phmYr5xT9eIXuP/qkeMu4jAWcIJNE/pAWu7TsFmbREhnaQAAmQQEgE7I4+pGJZTEoIML7JBYKCTHLso6r5Lx98KEs27JRPXNGnfjR/+qplctvq7bLnyIlQhBmU0716u3zqKv2j/KIr+lV9qDfvj7j7KogxPQ+OlUWv6yF+eUugQ3DpxPAiZLeUpFsNT1qqhZOuMUG2y5zeScEQJF9wwRAlbIcDT2U3AAAgAElEQVSY07lUnQtBxgxRMkPQyq9mOXTMOeMJPuPTsnHlavn0Qp2RhfY19sLreQ89/SOBWQnE3T/MalCMB9i+U5CJET6rIgESIIE4CNgdfRx1so74CDC+8bG2a6IgYxPJz+fSW+/I5fcW/R/zf3/joCx/8mDLyyPvn5qWgScPCcrBNYvnFb9/QlCPK484+ypkPP1scJvi/PHL75Nvda6UwuCkmpgXk/NiYt4ONWeMHoJWHNdzw3Rg3hcl1ugY4T2GHBXVfDFaYFECzfiYGpYEIae6IKNFHn3+iBR6R/y5Z5TIs+qY/LD3cWUfxL8n9ky50gzoJwlUJRBn/1DVgAQ32r5TkEkwGKyaBEiABKIgYHf0UdTBMpMjwPgmx56CTHLs46p59NBr8o1b9bwfuNa+c/sj8vi4njOknAlRf14ZHI/zcD6eKM/FrIi4+qpz5z/yJ2tGBtIDT21TYkhhcEy6/WelIDN5DGILJvWdlqI3bEmJKYNYWQnx9bJokD2DY9SQpUnB0KaaE/wq4cdk2HjZMl4bgKiDyZyv/P0W1SYunH+fPPT8S3E1a9ZDAqkjEFf/kDrHRVQfELSLgkyQBt+TAAmQQA4IuPwll4PwzeoC4zsrosgOoCATGdpUFXzu/HnBcsmY8wPX2wXz++S6vqdlx4tv1R3GhP04DsfjPJyPclCei484+iqwva5fixyfvLJfhp55WbTYgtWOdPaLEloqVlCa1isrYQLfQcwdY5a1xlLYWlDR2yszZeDPHE+gqSXOlYc86WW1B8a14INJf3EOMqew1Lkqq3OpPPDUpItNgz6TwAxRwiUkdt9IQcal6NNXEiABJwjYHb0TTjvkJOObXLApyCTHPomaT757Wg2DuWDefVpguWaF/GrDbpk4eqpCmMFnbL/4Gk/AmXefOg/nu/yIuq/68Ox5ueoPT6rYYG6WNdsOV8SllmiShu2YVwh88Pzdxt25ntzZ5WuAvtcmEHX/ULvm5PfYvlOQST4mtIAESIAEQiVgd/ShFs7CEifA+CYXAgoyybFPsuYXXj0h31v8qP8DuuOWB/0f/w8+e1jwGdclnpcteVReeI3LGyNeUfZVH3x4Tjrv1nOyfPbq5bEtWx6mmLPkod3ysXm63WAy4jyvuJXk9cu600kgyv4hnR6XrbJ9pyBTZsN3JEACJJALAnZHnwun6IRPgPH1UcT+xggyiMHNK0edeMJXPOG7yw/8WH5891H58sLyJL2GDV6xHfv5o7rcSsAlisfpM2flf37zmGqXGBb26I5jmcmMsQWd32+a8Ie43bhiq7PD26JoJywz3QSi6h/S7bW2zvadgkwWokYbSYAESKAJAnZH38SpPDQDBBjf5IJ076Y96kcgYuDaE77zIXL6w7Ny98bd8qkr9TLWeMVnbOejkkAUfdV7pz/0s5X++tr7ZdOu5iZctgWRNHxesfmQYDJi8Lry90/ImbPnKkHyEwnkkEAU/UNWMNm+U5DJSuRoJwmQAAk0SMDu6Bs8jYdlhADjm1ygpt/7QPqfmFDZIsgYceUJn+E7H2UCx0++p35A45WP6gRa6auwYlKtxzvvn5Hv3LFBcb/kJw9Icc+rmc2MsYWg4W2HBfPggBmyf94/Q4GvVjvg9mwSsK/tVvqHbHo+02rbdwoyMxlxCwmQAAlkmoDd0WfaGRo/gwDjOwMJN5BAIgR4LdbH3gqflU8fUKLEXeu3VxR+6r0P5Fu/WK/2ffGGVbJl3+u+GIMlqW2BI4ufH35+yl/Z6z/veFj+/BeKoBWNgB8yTcC+tlvpHzINIGC87TsFmQAcviUBEiCBPBCwO/o8+EQfygQY3zILviOBJAnwWqxPvxU+EGJwnhnCg8/IzvqXRWvV9i8tHJKt+48rAaY4OCId/vDBERk4Np0eYaY4ouztGPTEovEx6eic3cbHx0uC7B8wgM8QoviIkcDx3XJp51rpO27qnJIF/VPmA1/bIGBf2630D21Un6pTbd8pyKQqPDSGBEiABNonYHf07ZfIEtJEgPFNUzRoi8sEeC3Wj35wZSqwauT58cv1EuPm2E9e2S9fCUykvHHnK1p0UYLHsHQXq2THjJdkoDgpA8HMmfFJGSiWpGhej01LEccEzzf7zGvVYxore9ITZOZ0Dkv3+LRMWoKMrntSithnCUlrnzvcECvDiK+Nta1GOI2NbpUF/Zvl0kW7RcswZUHm9rXPMy4NXsfVWNvXNo759i8fqt+J5HQvfA8+KMgEafA9CZAACeSAgN3R58AluhAgwPgGYPAtCSRIgNdi+PDL/6L3qSWh71q/Q068e1r++edr1I/hr3atltGDb8hA71KZ0zs5Q8zQQsiwFHpHpKOrfExxcFggjnRgu/pRiWOwbakUiloUmfUYTwSarWyVFaOOHZFu1Ns1JsWgIFMck8LgmAwomyqzZp6a+KP83YJVyi74zAyZ8NtY3RKP75YFm07J1Ka1smAvjiwLMnXP485ZCdjXtsv9p+07BZlZmw8PIAESIIFsEbA7+mxZT2tnI8D4zkaI+0kgHgK8FsPnvOqZA0qIWfLQjorCT7zzfoUoc/eSstgSzDCpEGo8UQRDmZTYAmHk2HRAzClJd5clyNQ5ppGyVT0Qivy6vToGA0OWxiel2whGJoPm2LQ8uec1+dvrVyox5t9uWycn3z1dwYAfYiDgCTIip6Rv0WbZQkEmNOj2te1y/2n7TkEmtGbGgkiABEggHQTsjj4dVtGKsAgwvmGRZDkk0B4BXovt8at2tr0SS/CYClHm+gGZ0zlUHrLkDU8KiiZBESb4vnxM64JMsLwZ7ysEGTNcCcNqdDYM6ldZNCprRg9pUnPHXHe/EmO+/csNghWl+EiAgC/IiAje92/mHDIhhcG+tl3uP23fKciE1MhYDAmQAAmkhYDd0afFLtoRDgHGNxyOLIUE2iXAa7Fdgs2fHxRl/vZHfUrAQByM2DF5bFIKGKpkhiUFhyPVyX5Blk1QWKku2sxetirDFmRM2Z4go47pXCodvcPS0Tks1z7xilz8Yy3GfPfOR+Td0x82D4ZnhEMgKMhgwNKmtTKHk/qGw9YqxeX+0/adgozVOPiRBEiABLJOwO7os+4P7a8kwPhW8uAnEkiKAK/FZMgHRRkzp0xw2FKW3j+8fUo+d81yJSB9/1cb5f0zZ5OBylpJIGYCLveftu8UZGJufKyOBEiABKImYHf0UdfH8uMlwPjGy5u1kUAtArwWa5GJfnseRJn1Y0fksz/C0Kul8sPfjsjpDynGRN9yWENaCLjcf9q+U5BJS6ukHSRAAiQQEgG7ow+pWBaTEgKMb0oCQTOcJ8BrMdkmkGVR5sFnD8unrlqmxJj59xTlzNlzycJk7SQQMwGX+0/bdwoyMTc+VkcCJEACUROwO/qo62P58RJgfOPlzdpIoBYBXou1yMS3PYuizODWl+SiK/uVGHP1fZvl7Lnz8QFjTSSQEgIu95+27xRkUtIoaQYJkAAJhEXA7ujDKpflpIMA45uOONAKEuC1mI42kCVR5v4th+QTl2sx5vqBp+TceYox6WhFtCJuAi73n7bvFGTibn2sjwRIgAQiJmB39BFXx+JjJsD4xgyc1ZFADQK8FmuASWBzJKLM+JgUBieleGxaJo+VpLt3TAbG8b7es/Zxy548KBfO1ytD3fTAM3L+o48SIMUqSSAdBFzuP23fKciko03SChIgARIIjYDd0YdWMAtKBQHGNxVhoBEkoIacEEN6CIQuyhRHZI63VLZaTrtzWLohyIxPysB4Sbr95bWXypzeSSmOl6Q4PikFc1xAuPnDpv1ygSfGLFr9HMWY9DQbWpIQAZfvZWzfKcgk1AhZLQmQAAlERcDu6KOqh+UmQ4DxTYY7ayUBmwCvRZtI8p+rijIQUIpaLFGvx6alWNTbKrJd1HEQVrwMGCXIjEg3jjVCS3FMOjqXSsfgpEwWx5RAUxwclo7eESl0DUuHEWl8IWda7n50n1ww7z4l4N2+9nlhYkzy7YQWJE/A5f7T9p2CTPLtkRaQAAmQQKgE7I4+1MJZWOIEGN/EQ0ADSEAR4LWYzoZgizLrVgzJnE4tmkBMwftC77ASSArFgPiCzJbBEekwGS4QZCC+dA1LYXBMCupciDElPWzJE2wKXUv1frW9MkPmVxt2y8fmoc6l8ptHdlGMSWeToVUJEHC5/7R9pyCTQANklSRAAiQQJQG7o4+yLpYdPwHGN37mrJEEqhH41+511TZzWwoIBEWZL13bJ3NuekbNBTPQq4cXqTlhIKR4goza3jUihV4IMt72GUOWsN0TY7zhSOq8zhEZOAYhBvvLgswda3cpIQZ99r2b9qSACk0ggfQQcPlexvadgkx62iUtIQESIIFQCNgdfSiFspDUEGB8UxMKGkICJJBiAkFRZs4VK2TdwTekriDjzwMTzIAZ8yb1LQstk8UR6cCxx6Z1eX5GDYYw6eO+u2yHL8Yse3IixZRoGgkkQ8DlexnbdwoyybRB1koCJEACkRGwO/rIKmLBiRBgfBPBzkpJgAQySACizD/+RC8z/aWu1XL3kuoZMpNYUQnzv2AeGJXxMi0QXtTwpq5hmYM5YjDUCXPRDOLzpH7tHJFufFZzxuh5ar7WucIXY1Y+fSCD1GgyCURPwOV7Gdt3CjLRtzfWQAIkQAKxErA7+lgrZ2WRE2B8I0fMCkiABHJEIJgp89Wu1TJ68I1Zlq7W88oo4UXNH4NsGCxnjUl79bO7OC3FwcplsB9fpeelQR+NeWPWPPdCjijSFRIIl4DL9zK27xRkwm1bLI0ESIAEEidgd/SJG0QDQiXA+IaKk4WRAAk4QKBVUaZiFabAMtb29v1T03L9sq0qMwYrKj28/WUHqNJFEmidgMv3MrbvFGRab0c8kwRIgARSScDu6FNpJI1qmQDj2zI6nkgC7RE4vlsu7VwrfcdNMVOyoH/KfOBryglEJcpMTJ2Sq5c+pcSYC+f3ycj40ZSToHkkkDwBl+9lbN8pyCTfHmkBCZAACYRKwO7oQy2chSVOgPFNPAQ0wFUCx3fLgv7Ncumi3aJlGAoyWWsKYYsyE0dPyfx7nlRizCeu6JMt+45lDQntJYFECLh8L2P7TkEmkSbISkmABEggOgJ2Rx9dTSw5CQKMbxLUWScJiAgEmU2nZGrTWlmwF0QoyGSxXYQlykwcPSk//G1RiTGfvLJfnj3wahZx0GYSSISAy/cytu8UZBJpgqyUBEiABKIjYHf00dXEkpMgwPgmQZ11kkBZkBE5JX2LNssWCjKZbRbtijL7jp6U//frTUqM+dRVy+T5F17PLAsaTgJJEHD5Xsb2nYJMEi2QdZIACZBAhATsjj7Cqlh0AgQY3wSgs0oSAAEvQ0bB8IYvcQ6Z7DaNVkWZPUdOyH8t3qjEmM9ePSDjh/1JhbILg5aTQMwEXL6XsX2nIBNz42N1JEACJBA1Abujj7o+lh8vAcY3Xt6sjQR8AkFBBgOWNq2VOZzU18eTxTfNijK7D5+Q79z+iBJj/uqa5TIx9WYW3abNJJA4AZfvZWzfKcgk3hxpAAmQAAmES8Du6MMtnaUlTYDxTToCrJ8ESCBPBBoVZcZfPiH//ouHlBjz19eukIOlt/OEgb6QQKwEXL6XsX2nIBNr02NlJEACJBA9Abujj75G1hAnAcY3TtqsiwRIwAUCs4kyO156W/61e70SYy75yQPy0usnXcBCH0kgMgIu38vYvlOQiayZsWASIAESSIaA3dEnYwVrjYoA4xsVWZZLAs0R+Pee9c2dwKNTTaCWKLP9hTflG7euVWLMF29YKUeOn0q1HzSOBLJAwOV7Gdt3CjJZaLG0kQRIgASaIGB39E2cykMzQIDxzUCQaKITBHgt5i/Mtijz+HhJvnbzg0qM+dLCQSm9+ef8OU2PSCABAi73n7bvFGQSaICskgRIgASiJGB39FHWxbLjJ8D4xs+cNZJANQK8FqtRyf62oCiDGOP5D12r5fUT72bfOXpAAikh4HL/aftOQSYljZJmkAAJkEBYBOyOPqxyWU46CDC+6YgDrSABXov5bQNBUebrP3tQ3jj1Xn6dpWckkAABl/tP23cKMgk0QFZJAiRAAlESsDv6KOti2fETYHzjZ84aSaAaAV6L1ajkZ9v0ex/IA09NCsQZPkiABMIl4HL/aftOQSbctsXSSIAESCBxAnZHn7hBNCBUAoxvqDhZGAm0TIDXYsvoeCIJkIDjBFzuP23fKcg4fjHQfRIggfwRsDv6/HnotkeMr9vxp/fpIcBrMT2xoCUkQALZIuBy/2n7TkEmW22X1pIACZDArATsjn7WE3hApggwvpkKF43NMQFeizkOLl0jARKIlIDL/aftOwWZSJsaCycBEiCB+AnYHX38FrDGKAkwvlHSZdkk0DgBXouNs+KRJEACJBAk4HL/aftOQSbYMvieBEiABHJAwO7oc+ASXQgQYHwDMPiWBBIkwGsxQfismgRIINMEXO4/bd8pyGS6KdN4EiABEphJwO7oZx7BLVkmwPhmOXq0PesEzp3/SFY+fUDuWr9dPn75fep11TMHBNv5IAESIAESaIyAy/cytu8UZBprMzyKBEiABDJDwO7oM2M4DW2IAOPbECYeRAKREcA1GHx+bN7SyOpiwSRAAiSQRwIu38vYvlOQyWMLp08kQAJOE7A7eqdh5NB5xjeHQaVLmSJw57rtctEV/UqUueiKPlny0I5M2U9jSYAESCBpAi7fy9i+U5BJujWyfhIgARIImYDd0YdcPItLmADjm3AAWD0JiPgZMsyOYXMgARIggeYJuHwvY/tOQab59sMzSIAESCDVBOyOPtXG0rimCTC+TSPjCRklcPLd03Lvpj3y20fHU/f87p0Py8cv75Pv3vlI6mwDL3ADPz5IgARIII0EXL6XsX2nIJPGFkqbSIAESKANAnZH30ZRPDWFBBjfFAaFJkVCAKIC2jufrTH439+NRBIXFkoCJEAC7RJw+V7G9p2CTLutieeTAAmQQMoI2B19ysyjOW0SYHzbBMjTM0MAmR5o73jevHKUzwYZGGY/H3ouM7GmoSRAAm4RcPlexvadgoxbbZ/ekgAJOEDA7ugdcNkpFxlfp8LttLNGkIEYM3lsms8GGYAX+gnw44MESIAE0kjA5XsZ23cKMmlsobSJBEiABNogYHf0bRTFU1NIgPFNYVBoUiQEKMi0JkJRkImkObJQEiCBEAm4fC9j+05BJsSGxaJIgARIIA0E7I4+DTbRhvAIML7hsWRJ6SZAQYaCTLpbKK0jARJolYDL9zK27xRkWm1FPI8ESIAEUkrA7uhTaibNapEA49siOJ6WOQIUZCjIZK7R0mASIIGGCLh8L2P7TkGmoSbDg0iABEggOwTsjj47ltPSRggwvo1Q4jF5IEBBhoJMHtoxfSABEphJwOV7Gdt3CjIz2we3kAAJkECmCdgdfaadofEzCDC+M5BwQ04JUJChIJPTpk23SMB5Ai7fy9i+U5Bx/nIgABIggbwRsDv6vPnnuj+Mr+stwB3/KchQkHGntdNTEnCLgMv3MrbvFGTcavv0lgRIwAECdkfvgMtOucj4OhVup52lIENBxukLgM6TQI4JuHwvY/tOQSbHDZ2ukQAJuEnA7ujdpJBfrxnf/MaWnlUSoCBDQaayRfATCZBAXgi4fC9j+05BJi+tmn6QAAmQgEfA7ugJJl8EGN98xZPe1CZAQYaCTO3WwT0kQAJZJuDyvYztOwWZLLdk2k4CJEACVQjYHX2VQ7gpwwQY3wwHj6Y3RYCCDAWZphoMDyYBEsgMAZfvZWzfKchkptnSUBIgARJojIDd0Td2Fo/KCgHGNyuRop3tEqAgQ0Gm3TbE80mABNJJwOV7Gdt3CjLpbKO0igRIgARaJmB39C0XxBNTSYDxTWVYaFQEBKoJMsXimHQXSzJ5bFoGBkeku1hdtCiqffo4HFt+lqQ4XuNZcVzwnHDeB22fHJ+U7sFJKdatsyTdvWMyMO7VPz4mBf8ca1+gnJtXjgr6CfDjgwRIgATSSMDlexnbdwoyaWyhtIkESIAE2iBgd/RtFMVTU0iA8U1hUGhSJARsQaZYnJSBwWHpGCxJcXBYiQ64HtSzd1Imx0sygGOKk9LdtVQ6IGZ4n4ueqDHQOywdXdbTKwPlloWbcEQYvzwIMMYmCEKwvwuC0qQMjB9U+4K+aNFoUgqdw9JtBJniiMzpGvNEnMC+cZRRtpeCTCTNkYWSAAmESMDlexnbdwoyITYsFkUCJEACaSBgd/RpsIk2hEeA8Q2PJUtKNwFbkBnoXarFlMEx6e4dkUKvFjQKXcNSQKYMMki87R1dS5XgYT77okYgk0SJJeNj0tEJ8QbZKiWB6KPFGy3uqAwWJXgcrLMPQk69c8sCDGydAxtVnSNSgJ0Qk5D5Mz6thJoO7FeikSc2GRFGCTJGxPEEmaJn/+CkLyZRkEl3u6Z1JEACooR0VznY93EUZFxtCfSbBEggtwTsjj63jjrqGOPraOAddNsWZCBaQMDowLAd7/2crmF/CJPKoKmRITPgDXPyM1aOTUsRAkcnxJxyZowSfZApo/YtVUKP2WZeq+1DufX2IyNGZeCg3F4ISjrTRWXKKEEG2S9aoCkMYmgSbApkwUBI8mxCho86pkZmDwUZBy8WukwCGSPg8r2M7TsFmYw1XppLAiRAArMRsDv62Y7n/mwRYHyzFS9a2zqBGYLMsZInekxKd68WJQaUMIP3B2XxoM6aUVknEFq8bBn16s+9Uh7ao4cNmSFA3naIHl1jemgUslQGMdTIGzZUb58RTGqcq+ryh1eN6SFKyMoxQo0n6MzpHJEBJcRADKoiyJhsGf+YsphkxCYKMq23OZ5JAiQQDwGX72Vs3ynIxNPmWAsJkAAJxEbA7uhjq5gVxUKA8Y0FMytJAYFKQabkz7OCuWEwH4vKKOkd8YYcecKKNwRJDWEqjkhHFwSOsghjRAu8VhVk1PmYY2ZEBvAeoowSSfSQqI7OGvtQR51zfeFFZchgvhsMr/KEH2/uGmTYIGNHDa9SQ5hmE2TMsSPekCvtJwWZFDRemkACJFCXgMv3MrbvFGTqNhXuJAESIIHsEbA7+ux5QIvrEWB869HhvjwRqBRkMMSoPKmvEj9UtgiEGk+YGIeAAaHGTOarhziVJ8ItCzOYNBcT/M7c5wk/GEbkZaGoOV6UqFNvH8quvV+LP3puGF2eXulJTTLsT1I8It1qsl+IS9hfRZBB5o8/D40ebqXKVvZSkMlT+6cvJJBnAi7fy9i+U5DJc0unbyRAAk4SsDt6JyHk2GnGN8fBpWsVBGxBxmS1+KsheXOqIFNGZcEg6wQZLcGhSt4EucF5YrSYo1da0nO1lIWaYAZNmO9VhoyXEaMn8cX8NeWMmOJgYHlrk72jxKVyho8WdTA8S09AjGFbZsWo4PLfzJCpaEb8QAIkkEICLt/L2L5TkElhA6VJJEACJNAOAbujb6csnps+Aoxv+mJCi6IhUE2QCVMkyWtZFGSiaY8slQRIIDwCLt/L2L5TkAmvXbEkEiABEkgFAbujT4VRNCI0AoxvaChZUMoJUJBpLXOHgkzKGzbNIwES4LLXgTZAQSYAg29JgARIIA8E+IM9D1Gs7QPjW5sN9+SLAAUZCjL5atH0hgRIwBBw+V7G9p2CjGkVfCUBEiCBnBCwO/qcuEU3PAKML5uCKwQoyFCQcaWt008ScI2Ay/cytu8UZFxr/fSXBEgg9wTsjj73DjvmIOPrWMAddjdSQWa8JMUay2EnMbdMcXBEKiYe9mxTq0FhdSnYi1f1rG87hyw5fNHQdRLICAGX72Vs3ynIZKTR0kwSIAESaJSA3dE3eh6PywYBxjcbcaKV7ROoK8iYFZbUSkVY6rq8GtGkt89fjWl8TDo6yysxdZhzOr3lsusdH6Foo5a8xqpQWMbas8msmtSBZaxhV9ewFHpHpLs4JoVOrCA1XPalhm0UZNpveyyBBEggWgIu38vYvlOQibatsXQSIAESiJ2A3dHHbgArjJQA4xspXhaeIgKzCzJGZJmU7i6IMmM668UXazzBJSDIDPQGjjOCRp3jkS1jMlOK494QonFkqpSkaF79Y0pSkV2j9k+Kfx6O87YNjE8LbOnAEtbIfgk8BwaHxV8a2wgygxBn4N+kFNRy2J6vxofAKwWZFDVimkICJFCVgMv3MrbvFGSqNhFuJAESIIHsErA7+ux6QsurEWB8q1HhtjwSaFiQgRihRBVPoPHed0PYgIgREGT87Blk1BiBpe7xY1IYHBMlknhZNkWUq7JVRkRn2yCLRWe5FIqeaKPKHJbuQRyjhSF1XpfOdukuQryBEDMmBS9LxpTVbYZToYyuMW+YEuzwhizBHnV+9TlmKMjk8WqgTySQLwIu38vYvlOQyVfbpjckQAIk4PRSgi6E3/4id8Fn+ugmgXYFmYFjJZU5A0HFH7IE8WZ8UrqDAoonyFQ9Xh07Ih3IwKkQVnSGisq4wfAiU5cnyOhMnBE13AhCixJqPJEGw5FU1kwgK6ZY1MIN5pHR2TJGZEK9S6Wjd0w6urzyupBZY2XjMEPGzYuEXpNARgm4fC9j+05BJqONmGaTAAmQQC0Cdkdf6zhuzyYBxjebcaPVzRNoWJAZ94bxKGHECBlmOBPEGIga5rMRMialYIQNX5CBWFN5vB5WVPK2BzNdGhBklPCiBRZ/KNN4SboxbKp3pxKF/DljZswhMyYQaTB0yQyZQiYN5pPxfQmIMH75x6aFGTLNtzWeQQIkEC8Bl+9lbN8pyMTb9lgbCZAACUROwO7oI6+QFcRKgPGNFTcrS5DA7IKMzh7BNaGyToxAERRYMG+LGmKkBRn93jvPTATcwPF6Mt3GBRkIOxB8MCmvyc7RQ5b0cKeCneECG8wcOMoPnd2jfcMwp0nBJMD4PKcXw7CqD1eCMENBJsFGy6pJgAQaIuDyvYztOwWZhpoMDyIBEiCB7BwcV/UAACAASURBVBCwO/rsWE5LGyHA+DZCicfkgUBdQcaIL5l/DQovGPoUEFq8DBkzHArDlrD8tVqdyWQDBY/33lOQyUPrpw8kkG8CLt/L2L5TkMl3W6d3JEACDhKwO3oHEeTaZcY31+GlcwECbggyAQGmirhSIdA0uJ+CTKAR8S0JkEAqCbh8L2P7TkEmlU2URpEACZBA6wTsjr71knhmGgkwvmmMCm2KggAFmdbEGgoyUbRGlkkCJBAmAZfvZWzfKciE2bJYFgmQAAmkgIDd0afAJJoQIgHGN0SYLCrVBCjIUJBJdQOlcSRAAi0TcPlexvadgkzLzYgnkgAJkEA6CdgdfTqtpFWtEmB8WyXH87JGgIIMBZmstVnaSwIk0BgBl+9lbN8pyDTWZngUCZAACWSGgN3RZ8ZwGtoQAca3IUw8KAcEKMhQkMlBM6YLJEACVQi4fC9j+05BpkoD4SYSIAESyDIBu6PPsi+0fSYBxncmE27JJwEKMhRk8tmy6RUJkIDL9zK27xRkeD2QAAmQQM4I2B19ztxz3h3G1/km4AwACjIUZJxp7HSUBBwj4PK9jO07BRnHGj/dJQESyD8Bu6PPv8duecj4uhVvl72lIENBxuX2T99JIM8EXL6XsX2nIJPnlk7fSIAEnCRgd/ROQsix04xvjoNL1yoIUJChIFPRIPiBBEggNwRcvpexfacgk5tmTUdIgARIQBOwO3pyyRcBxjdf8aQ3tQlQkKEgU7t1cA8JkECWCbh8L2P7TkEmyy2ZtpMACZBAFQJ2R1/lEG7KMAHGN8PBo+lNEaAgQ0GmqQbDg0mABDJDwOV7Gdt3CjKZabY0lARIgAQaI2B39I2dxaOyQoDxzUqkaGe7BIwggzZ/88pRPhtkAF54gh8fJEACJJBGAi7fy9i+U5BJYwulTSRAAiTQBgG7o2+jKJ6aQgKMbwqDQpMiIXDvpj1KWECb57N5BuDHBwmQAAmkkYDL9zK27xRk0thCaRMJkAAJtEHA7ujbKIqnppAA45vCoNCkSAicfPe0QFRApkcan7gW02gXbAI38OODBEiABNJIwOV7Gdt3CjJpbKG0iQRIgATaIGB39G0UxVNTSIDxTWFQaJKTBHgtOhl2Ok0CJBACAZf7T9t3CjIhNCgWQQIkQAJpImB39Gmyjba0T4DxbZ8hSyCBMAjwWgyDIssgARJwkYDL/aftOwUZF68A+kwCJJBrAnZHn2tnHXSO8f3/27v7J6nKK4Hjf49GQ1JJNtnoZrOVjbshL1WWZapSbtz8khQMYLImGjFKVtdJYsJLErJSuzBIAHmTN0ECjgERxQkgCDIQEcNQ46pE5SXE4AsvZ+vc7r635zB3nKbv7b7Pc75d1TWXvt33Pudznufpx+PtbodJJ+RKCjAWK5kWGoUAAgEIeJ4/bewUZALosDQRAQQQaEXATvStvJbnVl+A/FY/R7TQhwBj0UeeiRIBBIoX8Dx/2tgpyBTfvzgiAggg0FUBO9F3tTGcvHAB8ls4KQdE4IoEGItXxMaLEEAAgeSX87wy2PcOCjJeewJxI4BAtAJ2oo82UKeBkV+niSfsygkwFiuXEhqEAAKBCHieP23sFGQC6bQ0EwEEEBivgJ3ox/s6nheGAPkNI0+0Mn4BxmL8OSZCBBAoR8Dz/GljpyBTTh/jqAgggEDXBOxE37WGcOJSBMhvKawcFIGWBRiLLZPxAgQQQCAR8Dx/2tgpyDAoEEAAgcgE7EQfWXjuwyG/7rsAABURYCxWJBE0AwEEghPwPH/a2CnIBNd9aTACCCAwtoCd6Md+NntDEyC/oWWM9sYqwFiMNbPEhQACZQt4nj9t7BRkyu5tHB8BBBDosICd6Dt8ek5XsgD5LRmYwyMwTgHG4jiheBoCCCBgBDzPnzZ2CjKmc/BPBBBAIHQBO9GHHg/tHylAfkd68C8EuiXAWOyWPOdFAIHQBTzPnzZ2CjKh92bajwACCBgBO9Gb3fwzcAHyG3gCaX40AozFaFJJIAgg0GEBz/OnjZ2CTIc7H6dDAAEEyhawE33Z5+P4nRUgv5315mwI5AkwFvNkeBwBBBAYW8Dz/GljpyAzdl9hLwIIIBCcgJ3ogwuABo8pQH7H5GEnAh0TYCx2jJoTIYBAZAKe508bOwWZyDo34SCAAAJ2okckLgHyG1c+iSZcAcZiuLmj5Qgg0F0Bz/OnjZ2CTHf7ImdHAAEEChewE33hJ+CAXRUgv13l5+QIpAKMxZSCDQQQQKAlAc/zp42dgkxLXYcnI4AAAtUXsBN99VtMC1sRIL+taPFcBMoTYCyWZ8uREUAgbgHP86eNnYJM3H2d6BBAwKGAnegdEkQdMvmNOr0EF5AAYzGgZNFUBBColIDn+dPGTkGmUl2TxiCAAALtC9iJvv0jcoQqCZDfKmWDtngWYCx6zj6xI4BAOwKe508bOwWZdnoSr0UAAQQqKGAn+go2kSa1IUB+28DjpQgUKMBYLBCTQyGAgCsBz/OnjZ2CjKuuT7AIIOBBwE70HmL2FCP59ZRtYq2yAGOxytmhbQggUGUBz/OnjZ2CTJV7Km1DAAEErkDATvRXcAheUmEB8lvh5NA0VwKMRVfpJlgEEChQwPP8aWOnIFNgx+JQCCCAQBUE7ERfhTbRhuIEyG9xlhwJgXYEGIvt6PFaBBDwLOB5/rSxU5DxPBKIHQEEohSwE32UQToOivw6Tj6hV0qAsVipdNAYBBAISMDz/GljpyATUMelqQgggMB4BOxEP57X8JxwBMhvOLmipXELMBbjzi/RIYBAeQKe508bOwWZ8voZR0YAAQS6ImAn+q40gpOWJkB+S6PlwAi0JMBYbImLJyOAAAKpgOf508ZOQSbtFmwggAACcQjYiT6OqIiiIUB+GxL8RaC7AozF7vpzdgQQCFfA8/xpY6cgE24/puUIIIDAqAJ2oh/1STwYrAD5DTZ1NDwyAcZiZAklHAQQ6JiA5/nTxk5BpmPdjhMhgAACnRGwE31nzspZOiVAfjslzXkQGFuAsTi2D3sRQACBPAHP86eNnYJMXi/hcQQQQCBQATvRBxoGzc4RIL85MDyMQIcFGIsdBud0CCAQjYDn+dPGTkEmmm5NIAgggEBNwE70uMQlQH7jyifRhCvAWAw3d7QcAQS6K+B5/rSxU5Dpbl/k7AgggEDhAnaiL/wEHLCrAuS3q/ycHIFUgLGYUrCBAAIItCTgef60sVOQaanr8GQEEECg+gJ2oq9+i2lhKwLktxUtnotAeQKMxfJsOTICCMQt4Hn+tLFTkIm7rxMdAgg4FLATvUOCqEMmv1Gnl+ACEmAsBpQsmooAApUS8Dx/2tgpyFSqa9IYBBBAoH0BO9G3f0SOUCUB8lulbNAWzwKMRc/ZJ3YEEGhHwPP8aWOnINNOT+K1CCCAQAUF7ERfwSbSpDYEyG8beLwUgQIFGIsFYnIoBBBwJeB5/rSxU5Bx1fUJFgEEPAjYid5DzJ5iJL+esk2sVRZgLFY5O7QNAQSqLOB5/rSxU5Cpck+lbQgggMAVCNiJ/goOwUsqLEB+K5wcmuZKgLHoKt0EiwACBQp4nj9t7BRkCuxYHAoBBBCogoCd6KvQJtpQnAD5Lc6SIyHQqsCFi5fkke2HZNa6XXLt1AXJ32U7Dok+zg0BBBBAYHwCntcyNnYKMuPrMzwLAQQQCEbATvTBNJyGjkuA/I6LiSchUJqAjsHm+9U980s7FwdGAAEEYhTwvJaxsVOQibGHExMCCLgWsBO9a4wIgye/ESaVkIISmLl2l0yYtjApykyY1idz1u8Oqv00FgEEEOi2gOe1jI2dgky3eyPnRwABBAoWsBN9wYfncF0WIL9dTgCnR0AkvUKGq2PoDggggEDrAp7XMjZ2CjKt9x9egQACCFRawE70lW4sjWtZgPy2TMYLEChc4L5lz8g1U/pk+uLthR+bAyKAAAKxC3hey9jYKcjE3tuJDwEE3AnYid4dQOQBk9/IE0x4lRZ474ML8tCmfekVMjoe9d/6ODcEEEAAgfEJeF7L2NgpyIyvz/AsBBBAIBgBO9EH03AaOi4B8jsuJp6EQKECly6JbD1wXL54z4oRxRgdj3rXx3W/Po8bAggggMDYAp7XMjZ2CjJj9xX2IoAAAsEJ2Ik+uABo8JgC5HdMHnYiULjAsRNn5NtzN6eFmH+ZsVJW7Dgqg8fPyIqnX5Yb7l2Z7tPn6fO5IYAAAgjkC3hey9jYKcjk9xP2IIAAAkEK2Ik+yCBodK4A+c2lYQcChQq88+4H8ou1u+TaqX1JweWT31skv1i9R148diopxmhBRu8Hjp2Sn6/eI7pfx6c+X1+nr+eGAAIIIHC5gOe1jI2dgszl/YNHEEAAgaAF7EQfdDA0/jIB8nsZCQ8gUKiAfuxow66j8rm7HkkKLPpLSlPm/V6eO3xiRCGmUZBp/NX9PfOeTK+W0dfrcfgYU6Hp4WAIIBCBgOe1jI2dgkwEHZoQEEAAgWYBO9E372M7fAHyG34OiaC6AoeH35ZbZm5IiypfvX+NPDZwbMxCTKMg0/i7fuCYfOX+Nekx9Hh6XG4IIIAAAjUBz2sZGzsFGUYFAgggEJmAnegjC899OOTXfRcAoASB0++8J/+57FnRq2F0jH36+0tk7sb98uLQ6ZaKMY2ijL5u7ob98unbFyfH+0jPguT4eh5uCCCAgHcBz2sZGzsFGe+jgfgRQCA6ATvRRxeg84DIr/MOQPiFCly4eEmWP31YPvODWuHkmikL5Ad922X3kbeuqBDTKMg0/upxvt+3XfS4Onb1PHo+PS83BBBAwKuA57WMjZ2CjNdRQNwIIBCtgJ3oow3UaWDk12niCbtwgb2vvCE39q5NP1p0888ek83PDxdSiGkUZBp/f7dnWG7+6fr0XHpePT83BBBAwKOA57WMjZ2CjMcRQMwIIBC1gJ3oow7WYXDk12HSCblQgT+f+Zvc8fBTaXHk+juXyoInBuXgUO1XkxpFlKL/6vHnbxkUPZ+OY71rO7Q93BBAAAFPAp7XMjZ2CjKeej6xIoCACwE70bsI2lGQ5NdRsgm1UIEPzl+UBf0H5BP1n6f+6NSFcu/SnbLv6MlSrorJK+jsPXpS7lmyU/T8Op61PdoubR83BBBAwIOA57WMjZ2CjIceT4wIIOBKwE70roJ3ECz5dZBkQixcYMfgsHzpx6vSK1NunbVJtu5/raOFGFug0fN/c/amtE3avmcOvVp47BwQAQQQqJqA57WMjZ2CTNV6J+1BAAEE2hSwE32bh+PlFRMgvxVLCM2ptMDwm3+RnoeeSIseX7h7hSx96qWuFmJsYUbbo+3Ssa33nnn9MvzW2Uq70jgEEECgHQHPaxkbOwWZdnoSr0UAAQQqKGAn+go2kSa1IUB+28DjpW4Ezr1/Xn752B6ZMK32saCPf/dh+cnKXbL/T6cqVYxpFGe0Xdo+baeOcW33rzY8L+++f95NzggUAQT8CHhey9jYKcj46fdEigACTgTsRO8kbDdhkl83qSbQcQuclqH9Q7JN7y8MyS9WD8jf13/GWsfLd37TL48+84Is6h8c/b63/stK/QMyafmg9B//8C/37V++Jf+5ewfH2Dc8ehv6B6V/7xnZ8cxR+bdZ2ceY/uGHS2Xx1oNy7PXTMsSPMo27R/BEBBCotoDntYyNnYJMtfsqrUMAAQRaFrATfcsH4AWVFiC/lU4PjeuKwJBMn7xGelY9Jzfck330Z8LkRfLAs68kV8QkBZS5W2TS3C0ycYZ+NGhVsq3/nrRcCzLD0ps8XvvYkI6z2n2V9O5tLtAMy6K5q+SqGVtk0oz5MnFuVsDRxyfOWCUT669NtvXfep87UCv09G/Jzq3n0+NomybPl0n9w7JICz1zt8g3HnxMJqRtmC/X37lEpqw6KENd8eWkCCCAQLECntcyNnYKMsX2LY6GAAIIdF3ATvRdbxANKFSA/BbKycEiEDh77mitCNJTK6JcO7VPvnaf/rT0FlnUfLWLXrkyo/bFvpOWD8ikGVtkUf3qmP7l+vgq6U2vohmW/uODMkkfSwoy9ULMZC3CDEjv3FXJVTBJcUYfWz6YFHX6+wdkYvKaYUm29YqbvcPJ1S/Jx5OSgsz8psJNrWCj43pS/xkZ3DtQLxTV2nn9fatF49H9V09ZID9ZNSBnz70fQdYIAQEEPAt4XsvY2CnIeB4JxI4AAlEK2Ik+yiAdB0V+HSef0EcIXLx0SVbvfEmuu2NR/WqW+fJ3t/9W/vXelbWChxZckoKMFlPqV8X0D4sWXyYurxVM9CqXq+YOyuxkvxZb9AoVLYboa7Ug0ziGFksGpbd+lY0WdibWr27pXT4oi+pFm+QqG71qRoswWnxpbDcKQ/rYjIGkELQoaYc+dzC5OicpyNRfo+3VK2aSY8zZL9+4e75c3bMgifO6O5bImp1HROPnhgACCIQo4HktY2OnIBNiD6bNCCCAwBgCdqIf46nsClCA/AaYNJpcuMCLQ2/KzT9bnxZiPnbbQvnnu5fXCzH1jwk1f1Rob9P3xywfkKSIUr8apvadMbWrYfQ7ZPRjQxNHK8jUizu1K160sFP7+FF2BU2t6NOr30Wj52766FLtY1FnZLBfPzJVb1+yP2urLcgkBR+9omfuYFJQumXVcbmxd10a89cfXC/qwA0BBBAITcDzWsbGTkEmtN5LexFAAIEPEbAT/Yc8nd2BCZDfwBJGcwsVePsv5+TuxU+nRYnP3rFU5q38gzzw68Z3sNS+36U3KbrolSiN73+pFVxqV8DUvqdFr4SpFV70Obq/cYVM7fthdKzpd7z0Nr70t/6cqxoFleSvFmFqV9Ho1SxaiEm/c6Z+tUvjl5T0r36MKfneGr3Spuk7ZPSx3v7hpGDTKMDYgowWbA4OnZF5mw6Ixp20b/J8+dGSp+Xk2XOFOnMwBBBAoEwBz2sZGzsFmTJ7GsdGAAEEuiBgJ/ouNIFTlihAfkvE5dCVFTh/4aL8dutB+dR/1D6edM2UPrlr0Q7Z8/Lbyfeu6NUo+gW7+jGg5CNBjatfRhRkat8Zk17hot8pk34kqX6FjH5MKPnOl/rfEUWV2nO0cJI+J/nOmMbHmvSLgZu+h2ZEW+q/5NR07ORLgBsfaWp8z0zzR5b0Y1V6FU79CpnkCpr6R580bo1fHXRO0I9qLd52UNSJGwIIIFAlgQsXL/94pee1jI2dgkyVeittQQABBAoQsBN9AYfkEBUSIL8VSgZN6YjAH156Tb56/+r0ipBv/Hyj9O97Nfn1JL3qJClsND5qNOLqFf11I/2y3cYVMPrvxtUxte+Kya6QOVP7bhn7+qTA0nyVjV41k33MqPaLTSMLMskXBo84T+MnsoeTLwNOP7I04jj1X2LSgsyMpl+Aqh9Hz9NckGlcdaMO6qHzgt7V6Q9HXu9IXjgJArkCb+yTmyavkb70p9qHZPpCfiMs1yvyHY9sP5TMT7PW7Uoj9byWsbFTkEm7BRsIIIBAHAJ2oo8jKqJoCJDfhgR/Yxc49dd3ZdJ/6/e01IoNn5++TBY9eTj52E6jIMHf2seY1OUf71qWWk1+6AlRP24IdEXgjX0yfeFWuemBffWfaqcg05U8VOSkWojReXzCtIVpYcbzWsbGTkGmIh2VZiCAAAJFCdiJvqjjcpxqCJDfauSBVpQv0Nd/IC0wfHTqQtl95K30qhgKMY2rdrK/6qNOOkdwx6CbfeCaKQtk+ubTMrR5jUzfr3PFyILMl+97lD7qaJxeO7X2C3GNPqlfwq7bXm82dgoyXnsCcSOAQLQCdqKPNlCngZFfp4l3GLZe4aFXemif17teAfLw77lCxhaj9It+1aX5CpkerpBxOGIqFLJeIbP5tIiclr4Htso2U5CpUEtpSgcEsitk+uTqnvkya91uCjJN7hRkmjDYRAABBGIQ4D/YY8hifgzkN9+GPXEKfNh3yNgChad/2++Q+dp/8R0ycY6CwKJKCzIiUv/4Et8hE1gOC2zush2HkkLMnPW706N6XsvY2CnIpN2CDQQQQCAOATvRxxEVUTQEyG9Dgr+eBPTXg/RXhPTXhHQM6K8L/bDxK0v1Xx7yVIjRX1nS+Jt/ZWnJtkG5cJFfWfI0Lioba3NBRj+wtHmNXMWX+lY2XWU3jF9ZGils13EUZEb68C8EEEAgeAE70QcfEAGMECC/Izj4hzOBk2fPyY+WPJ1+jOmzdyyVeZsOuPmiX/14ksarcetcoJf/37Nkh6gLNwQQQCAUAc9rGRs7BZlQei3tRAABBMYpYCf6cb6MpwUiQH4DSRTNLFXgxaE35eafrU8LMzf2rpONu45H/aW/Gp/GqXOA3r/+4Ho5ePzNUp05OAIIIFCGgOe1jI2dgkwZPYxjIoAAAl0UsBN9F5vCqUsQIL8loHLIIAUuXroka3YekevuWJIUKD7Ss0Bu+59tMvDHN6MqzGg8GpdeDaPj/7o7l8ra546Ixs8NAQQQCFHA81rGxk5BJsQeTJsRQACBMQTsRD/GU9kVoAD5DTBpNLlUgbPn3pefrBoQ/aldHR+fuv23MnvdXnnx2OmgCzPafo1D49G4NL6fPjogGi83BBBAIGQBz2sZGzsFmZB7Mm1HAAEERhGwE/0oT+GhgAXIb8DJo+mlCrz82in51pzHk+KFjpMv/fhRWf3sK0EWZbTd2n6NQ+/f+uUmOfr6qVL9ODgCCCDQKQHPaxkbOwWZTvU6zoMAAgh0SMBO9B06LafpkAD57RA0pwlSQD/Fs2XvMfmnu5elxYzv/KZfdgyeCKIwo+3U9uo417vG8cS+Y8Knk4LsjjQaAQRyBDyvZWzsFGRyOgkPI4AAAqEK2Ik+1Dho9+gC5Hd0Fx5FoFng3Pvn5VcbnpcJ0xYmhY2Pf/dh6V25S/b/6VQlCzPaLm2ftlPHuLb71xufl3ffP98cFtsIIIBAFAKe1zI2dgoyUXRpgkAAAQQyATvRZ3vYikGA/MaQRWLolMDwW2elZ152xckX7l4hS596qVJFmSXb/ijaLh3bep8yr1+03dwQQACBWAU8r2Vs7BRkYu3lxIUAAm4F7ETvFiLSwMlvpIklrFIFnjn0qnzpx6vSosc3Z2+Srftf62phZusL/yffnNX8nTerRNvJDQEEEIhdwPNaxsZOQSb23k58CCDgTsBO9O4AIg+Y/EaeYMIrTeCD8xelr/+AfOJ7i5LCzEenLpR7luyUfUdPdrQws/foSfnR4mdFz6/jWduj7dL2cUMAAQQ8CHhey9jYKch46PHEiAACrgTsRO8qeAfBkl8HSSbEUgX+fOZvcufDT6VXy1x/51KZv2VQDg6dKbUwo8f/380HRc+n41jv2g5tDzcEEEDAk4DntYyNnYKMp55PrAgg4ELATvQugnYUJPl1lGxCLVVg7ysn5MbetWlx5OafrpfNzw+XUpT53Z5h0ePr+NW7nlfPzw0BBBDwKOB5LWNjpyDjcQQQMwIIRC1gJ/qog3UYHPl1mHRCLk3gwsVLsmLHYfnMDxYnhZJrpiyQ7/dtl91H3iqkMKPHub1vu+hxdezqefR8el5uCCCAgFcBz2sZGzsFGa+jgLgRQCBaATvRRxuo08DIr9PEE3apAqffeU/uW/6sfKSnVjj59O2LZe6G/fLi0OkrKszo63694QXR4+iY1ePq8fU83BBAAAHvAp7XMjZ2CjLeRwPxI4BAdAJ2oo8uQOcBkV/nHYDwSxU4PPy23DJzQ1JE0bH21fvXyPqBYy0VZfT5X7l/TXqMW2ZulD+++nap7ebgCCCAQEgCntcyNnYKMiH1XNqKAAIIjEPATvTjeAlPCUiA/AaULJoapMClSyIbdx2Vz931SFpU6Zn3pDx3+MSYhZmdh05Iz0NPpq/R1+tx9HjcEEAAAQQyAc9rGRs7BZmsX7CFAAIIRCFgJ/oogiKIVID8phRsIFCqwDvvfiAz1+6Sa6f2JUWWT35vkfx89R45cOzUiMKM/vvB1XvkE999OHmePl9fp6/nhgACCCBwuYDntYyNnYLM5f2DRxBAAIGgBexEH3QwNP4yAfJ7GQkPIFCqwLETZ+TbczenV77ccO9KWbHjaFKUWfH0y6L/1nGpd32ePp8bAggggEC+gOe1jI2dgkx+P2EPAgggEKSAneiDDIJG5wqQ31wadiBQmoB+7GjbgePyxXtWpMUXHYuN+w33rkj28/Gk0lLAgRFAICIBz2sZGzsFmYg6NqEggAACKmAnelTiEiC/ceWTaMISeO+DCzLvd/vk47fVPp6kf/Xf+jg3BBBAAIHxCXhey9jYKciMr8/wLAQQQCAYATvRB9NwGjouAfI7LiaehECpAq+f/GtS/Na/3BBAAAEEWhPwvJaxsVOQaa3v8GwEEECg8gJ2oq98g2lgSwLktyUunoxAaQKMxdJoOTACCEQu4Hn+tLFTkIm8sxMeAgj4E7ATvT+BuCMmv3Hnl+jCEWAshpMrWooAAtUS8Dx/2tgpyFSrb9IaBBBAoG0BO9G3fUAOUCkB8lupdNAYxwKMRcfJJ3QEEGhLwPP8aWOnINNWV+LFCCCAQPUE7ERfvRbSonYEyG87erwWgeIEGIvFWXIkBBDwJeB5/rSxU5Dx1feJFgEEHAjYid5ByK5CJL+u0k2wFRZgLFY4OTQNAQQqLeB5/rSxU5CpdFelcQgggEDrAnaib/0IvKLKAuS3ytmhbZ4EGIuesk2sCCBQpIDn+dPGTkGmyJ7FsRBAAIEKCNiJvgJNogkFCpDfAjE5FAJtCDAW28DjpQgg4FrA8/xpY6cg43ooEDwCCMQoYCf6GGP0HBP59Zx9Yq+SAGOxStmgLQggEJKA5/nTxk5BJqSeS1sRQACBcQjYiX4cL+EpAQmQ34CSRVOjFmAsRp1egkMAgRIFPM+fNnYKMiV2NA6NAAIIdEPATvTdaAPnLE+A/JZny5ERaEWAsdiKFs9FAAEEMgHP86eNnYJM1i/YQgABBKIQsBN9FEERRCpAflMKNhDoqgBjsav8V0t3pQAACbdJREFUnBwBBAIW8Dx/2tgpyATckWk6AgggMJqAnehHew6PhStAfsPNHS2PS4CxGFc+iQYBBDon4Hn+tLFTkOlcv+NMCCCAQEcE7ETfkZNyko4JkN+OUXMiBMYUYCyOycNOBBBAIFfA8/xpY6cgk9tN2IEAAgiEKWAn+jCjoNV5AuQ3T4bHEeisAGOxs96cDQEEwhd45tCrcuucx0XnT/2r//Z2s+8dFGS89QDiRQCB6AXsRB99wM4CJL/OEk64lRVgLFY2NTQMAQQqKDDw0mvy73Melxf+9OekIKN/b539uOjjnm72vYOCjKfsEysCCLgQsBO9i6AdBUl+HSWbUCstwFisdHpo3BUIbFu4RvreqL9w/1a5afPpKzgKL0HgcoHkypjZj6c7mudPLdJ4ulKmOXYFoSCTdgs2EEAAgTgE7EQfR1RE0RAgvw0J/iLQXQHGYnf9OXsJAm/sk5sWDonIael7YKtsK+EUHNKngH48Sa+Iadya58/kSpk5WbGm8ZxY/zbHrjFSkIk108SFAAJuBexE7xYi0sDJb6SJJazgBPRSex2P3DGIpQ9cuHhJ9CqZ6Zu3yvT61TG3zNxIH2ect90HdL5svtm1jKf51FpQkGnuGWwjgAACEQjYN7kIQiKEJgHy24TBJgIIIIBAsQJ6lcxkro4pFpWjWQHWMpkIBZnMgi0EEEAgCgHe5KJIY24Q5DeXhh0IIIAAAm0LDMn0B/aJfnCJGwJlCbCWyWQpyGQWbCGAAAJRCPAmF0Uac4Mgv7k07EAAAQQQaFuAgkzbhBzgQwVYy2REFGQyC7YQQACBKAR4k4sijblBkN9cGnYggAACCCCAQAACrGWyJFGQySzYQgABBKIQ4E0uijTmBkF+c2nYgQACCCCAAAIBCLCWyZJEQSazYAsBBBCIQoA3uSjSmBsE+c2lYQcCCCCAAAIIBCDAWiZLEgWZzIItBBBAIAoB3uSiSGNuEOQ3l4YdCCCAAAIIIBCAAGuZLEkUZDILthBAAIEoBHiTiyKNuUGQ31wadiCAAAIIIIBAAAKsZbIkUZDJLNhCAAEEohDgTS6KNOYGQX5zadiBAAIIIIAAAgEIsJbJkkRBJrNgCwEEEIhCgDe5KNKYGwT5zaVhBwIIIIAAAggEIMBaJksSBZnMgi0EEEAgCgHe5KJIY24Q5DeXhh0IIIAAAgggEIAAa5ksSRRkMgu2EEAAgSgEeJOLIo25QZDfXBp2IIAAAggggEAAAqxlsiRRkMks2EIAAQSiEOBNLoo05gZBfnNp2IEAAggggAACAQiwlsmSREEms2ALAQQQiEKAN7ko0pgbBPnNpWEHAggggAACCAQgwFomSxIFmcyCLQQQQCAKAd7kokhjbhDkN5eGHQgggAACCCAQgABrmSxJFGQyC7YQQACBKAR4k4sijblBkN9cGnYggAACCCCAQAACrGWyJFGQySzYQgABBKIQ4E0uijTmBkF+c2nYgQACCCCAAAIBCLCWyZJEQSazYAsBBBCIQoA3uSjSmBsE+c2lYQcCCCCAAAIIBCDAWiZLEgWZzIItBBBAIAoB3uSiSGNuEOQ3l4YdCCCAAAIIIBCAAGuZLEkUZDILthBAAIEoBHiTiyKNuUGQ31wadiCAAAIIIIBAAAKsZbIkUZDJLNhCAAEEohDgTS6KNOYGQX5zadiBAAIIIIAAAgEIsJbJkkRBJrNgCwEEEIhCgDe5KNKYGwT5zaVhBwIIIIAAAggEIMBaJksSBZnMgi0EEEAgCgHe5KJIY24Q5DeXhh0IIIAAAgggEIAAa5ksSRRkMgu2EEAAgSgEeJOLIo25QZDfXBp2IIAAAggggEAAAqxlsiRRkMks2EIAAQSiEOBNLoo05gZBfnNp2IEAAggggAACAQiwlsmSREEms2ALAQQQiEKAN7ko0pgbBPnNpWEHAggggAACCAQgwFomSxIFmcyCLQQQQCAKAd7kokhjbhDkN5eGHQgggAACCCAQgABrmSxJFGQyC7YQQACBKAR4k4sijblBkN9cGnYggAACCCCAQAACrGWyJFGQySzYQgABBKIQ4E0uijTmBkF+c2nYgQACCCCAAAIBCLCWyZJEQSazYAsBBBCIQoA3uSjSmBsE+c2lYQcCCCCAAAIIBCDAWiZLEgWZzIItBBBAIAoB3uSiSGNuEOQ3l4YdCCCAAAIIIBCAAGuZLEkUZDILthBAAIEoBHiTiyKNuUGQ31wadiCAAAIIIIBAAAKsZbIkUZDJLNhCAAEEohDgTS6KNOYGQX5zadiBAAIIIIAAAgEIsJbJkkRBJrNgCwEEEIhCgDe5KNKYGwT5zaVhBwIIIIAAAggEIMBaJksSBZnMgi0EEEAgCgHe5KJIY24Q5DeXhh0IIIAAAgggEIAAa5ksSRRkMgu2EEAAgSgEeJOLIo25QZDfXBp2IIAAAggggEAAAqxlsiRRkMks2EIAAQSiEOBNLoo05gZBfnNp2IEAAggggAACAQiwlsmSREEms2ALAQQQiEKAN7ko0pgbBPnNpWEHAggggAACCAQgwFomSxIFmcyCLQQQQCAKAd7kokhjbhDkN5eGHQgggAACCCAQgABrmSxJFGQyC7YQQACBKAR4k4sijblBkN9cGnYggAACCCCAQAACrGWyJFGQySzYQgABBKIQ4E0uijTmBkF+c2nYgQACCCCAAAIBCLCWyZJEQSazYAsBBBCIQoA3uSjSOCKICxcvySPbD8msdbvk2qkLkr/LdhwSfZwbAggggAACCCAQkgBr1SxbFGQyC7YQQACBKAR4k4sijZcFoXltvl/dM/+y5/AAAggggAACCCBQdQHWqlmGKMhkFmwhgAACUQjwJhdFGi8LYubaXTJh2sKkKDNhWp/MWb/7sufwAAIIIIAAAgggUCWB0a7mZa2aZYiCTGbBFgIIIBCFAG9yUaRx1CA0t3rn6phReXgQAQQQQAABBComoB+51rWLfuy6cWOt2pAQoSCTWbCFAAIIRCHAm1wUaRw1CF3MfOy2hTJrHVfHjArEgwgggAACCCBQKQFdu+jatHGVb+PflWpkFxtDQaaL+JwaAQQQKEPg1tmPJ298+ubHHQP6AH2APkAfoA/QB+gD9IFu9QH9MYLmc+v/WPr89EfKWAIHeUwKMkGmjUYjgAACCCCAAAIIIIAAAgggUG2BxhUx+v13+pFrrvIdmS8KMiM9+BcCCCCAAAIIIIAAAggggAACCBQgsGzHoaQQw48RjI5JQWZ0Fx5FAAEEEEAAAQQQQAABBBBAAIE2BEb7laU2DhfdSynIRJdSAkIAAQQQQAABBBBAAAEEEEAAgaoL/D+gzaFXwbS/+QAAAABJRU5ErkJggg==;" vertex="1" parent="Gb36NZh8UBVs52BO06hP-1">
          <mxGeometry x="190" y="190" width="1124" height="618" as="geometry" />
        </mxCell>
      </root>
    </mxGraphModel>
  </diagram>
</mxfile>
